<svg width="227" height="227" viewBox="0 0 227 227" fill="none" xmlns="http://www.w3.org/2000/svg">
<g filter="url(#filter0_b_734_3)">
<rect y="113.137" width="160" height="160" rx="20" transform="rotate(-45 0 113.137)" fill="white" fill-opacity="0.3"/>
<rect x="2.47487" y="113.137" width="156.5" height="156.5" rx="18.25" transform="rotate(-45 2.47487 113.137)" stroke="white" stroke-width="3.5"/>
</g>
<path d="M90.0677 164L89.3117 161.606H85.1177L84.3617 164H82.2197L86.3057 151.76H88.2137L92.3177 164H90.0677ZM86.2877 157.862L85.7297 159.626H88.6817L88.1237 157.862L87.2237 154.766L86.2877 157.862ZM98.3805 156.62C98.0805 156.62 97.7385 156.692 97.3545 156.836C96.9705 156.98 96.5145 157.262 95.9865 157.682V164H93.9165V154.874H95.8785V156.098C96.4425 155.606 96.9765 155.252 97.4805 155.036C97.9845 154.808 98.4945 154.694 99.0105 154.694C99.8865 154.694 100.552 154.976 101.008 155.54C101.464 156.092 101.692 156.872 101.692 157.88V164H99.6225V158.132C99.6225 157.124 99.2085 156.62 98.3805 156.62ZM109.774 164V162.758C109.222 163.31 108.742 163.688 108.334 163.892C107.938 164.084 107.524 164.18 107.092 164.18C106.108 164.18 105.34 163.808 104.788 163.064C104.248 162.32 103.978 161.276 103.978 159.932V158.96C103.978 157.652 104.308 156.614 104.968 155.846C105.628 155.078 106.582 154.694 107.83 154.694C108.142 154.694 108.448 154.724 108.748 154.784C109.06 154.844 109.366 154.928 109.666 155.036V150.68H111.736V164H109.774ZM106.102 159.932C106.102 160.736 106.234 161.324 106.498 161.696C106.774 162.068 107.158 162.254 107.65 162.254C107.926 162.254 108.22 162.176 108.532 162.02C108.844 161.852 109.222 161.54 109.666 161.084V156.908C109.078 156.668 108.538 156.548 108.046 156.548C107.35 156.548 106.852 156.764 106.552 157.196C106.252 157.628 106.102 158.216 106.102 158.96V159.932ZM119.736 156.764C119.172 156.764 118.632 156.854 118.116 157.034C117.612 157.202 117.126 157.478 116.658 157.862V164H114.588V154.874H116.55V156.278C117.162 155.702 117.708 155.294 118.188 155.054C118.668 154.814 119.184 154.694 119.736 154.694V156.764ZM129.019 158.888V159.968C129.019 161.24 128.671 162.26 127.975 163.028C127.279 163.796 126.295 164.18 125.023 164.18C123.751 164.18 122.767 163.796 122.071 163.028C121.375 162.26 121.027 161.24 121.027 159.968V158.888C121.027 157.616 121.369 156.602 122.053 155.846C122.749 155.078 123.739 154.694 125.023 154.694C126.307 154.694 127.291 155.078 127.975 155.846C128.671 156.602 129.019 157.616 129.019 158.888ZM126.895 158.888C126.895 158.156 126.733 157.586 126.409 157.178C126.085 156.758 125.623 156.548 125.023 156.548C124.423 156.548 123.961 156.758 123.637 157.178C123.313 157.586 123.151 158.156 123.151 158.888V159.968C123.151 160.7 123.313 161.276 123.637 161.696C123.961 162.116 124.423 162.326 125.023 162.326C125.623 162.326 126.085 162.116 126.409 161.696C126.733 161.276 126.895 160.7 126.895 159.968V158.888ZM133.464 153.146H131.286V151.004H133.464V153.146ZM133.41 164H131.34V154.874H133.41V164ZM141.608 164V162.758C141.056 163.31 140.576 163.688 140.168 163.892C139.772 164.084 139.358 164.18 138.926 164.18C137.942 164.18 137.174 163.808 136.622 163.064C136.082 162.32 135.812 161.276 135.812 159.932V158.96C135.812 157.652 136.142 156.614 136.802 155.846C137.462 155.078 138.416 154.694 139.664 154.694C139.976 154.694 140.282 154.724 140.582 154.784C140.894 154.844 141.2 154.928 141.5 155.036V150.68H143.57V164H141.608ZM137.936 159.932C137.936 160.736 138.068 161.324 138.332 161.696C138.608 162.068 138.992 162.254 139.484 162.254C139.76 162.254 140.054 162.176 140.366 162.02C140.678 161.852 141.056 161.54 141.5 161.084V156.908C140.912 156.668 140.372 156.548 139.88 156.548C139.184 156.548 138.686 156.764 138.386 157.196C138.086 157.628 137.936 158.216 137.936 158.96V159.932ZM91.9901 184.182C93.3821 184.182 94.0781 183.666 94.0781 182.634C94.0781 182.214 93.9701 181.884 93.7541 181.644C93.5501 181.404 93.1661 181.194 92.6021 181.014L91.1261 180.528C89.3621 179.952 88.4801 178.794 88.4801 177.054C88.4801 176.046 88.7921 175.218 89.4161 174.57C90.0521 173.91 91.0421 173.58 92.3861 173.58C92.9501 173.58 93.5081 173.646 94.0601 173.778C94.6121 173.898 95.2001 174.096 95.8241 174.372L95.1581 176.226C94.5821 175.998 94.0901 175.836 93.6821 175.74C93.2861 175.632 92.8781 175.578 92.4581 175.578C91.9061 175.578 91.4681 175.68 91.1441 175.884C90.8321 176.076 90.6761 176.43 90.6761 176.946C90.6761 177.33 90.7841 177.648 91.0001 177.9C91.2281 178.14 91.6001 178.344 92.1161 178.512L93.5921 178.998C94.4801 179.298 95.1461 179.736 95.5901 180.312C96.0461 180.876 96.2741 181.626 96.2741 182.562C96.2741 183.642 95.9321 184.518 95.2481 185.19C94.5641 185.85 93.4901 186.18 92.0261 186.18C91.4501 186.18 90.8501 186.114 90.2261 185.982C89.6141 185.838 88.9421 185.598 88.2101 185.262L88.8761 183.408C89.5481 183.696 90.1181 183.9 90.5861 184.02C91.0661 184.128 91.5341 184.182 91.9901 184.182ZM103.863 185.694C103.551 185.838 103.191 185.952 102.783 186.036C102.375 186.132 101.961 186.18 101.541 186.18C100.845 186.18 100.287 186.036 99.8665 185.748C99.4465 185.46 99.1405 185.058 98.9485 184.542C98.7685 184.026 98.6785 183.438 98.6785 182.778V178.674H97.2025V176.874H98.6785V174.498H100.749V176.874H103.593V178.674H100.749V182.778C100.749 183.33 100.851 183.714 101.055 183.93C101.271 184.134 101.577 184.236 101.973 184.236C102.165 184.236 102.369 184.218 102.585 184.182C102.813 184.134 103.065 184.056 103.341 183.948L103.863 185.694ZM110.963 186V184.794C110.411 185.274 109.895 185.628 109.415 185.856C108.935 186.072 108.449 186.18 107.957 186.18C107.141 186.18 106.511 185.904 106.067 185.352C105.623 184.788 105.401 184.002 105.401 182.994V176.874H107.471V182.742C107.471 183.75 107.843 184.254 108.587 184.254C108.887 184.254 109.211 184.182 109.559 184.038C109.919 183.894 110.351 183.618 110.855 183.21V176.874H112.925V186H110.963ZM121.121 186V184.758C120.569 185.31 120.089 185.688 119.681 185.892C119.285 186.084 118.871 186.18 118.439 186.18C117.455 186.18 116.687 185.808 116.135 185.064C115.595 184.32 115.325 183.276 115.325 181.932V180.96C115.325 179.652 115.655 178.614 116.315 177.846C116.975 177.078 117.929 176.694 119.177 176.694C119.489 176.694 119.795 176.724 120.095 176.784C120.407 176.844 120.713 176.928 121.013 177.036V172.68H123.083V186H121.121ZM117.449 181.932C117.449 182.736 117.581 183.324 117.845 183.696C118.121 184.068 118.505 184.254 118.997 184.254C119.273 184.254 119.567 184.176 119.879 184.02C120.191 183.852 120.569 183.54 121.013 183.084V178.908C120.425 178.668 119.885 178.548 119.393 178.548C118.697 178.548 118.199 178.764 117.899 179.196C117.599 179.628 117.449 180.216 117.449 180.96V181.932ZM128.059 175.146H125.881V173.004H128.059V175.146ZM128.005 186H125.935V176.874H128.005V186ZM138.327 180.888V181.968C138.327 183.24 137.979 184.26 137.283 185.028C136.587 185.796 135.603 186.18 134.331 186.18C133.059 186.18 132.075 185.796 131.379 185.028C130.683 184.26 130.335 183.24 130.335 181.968V180.888C130.335 179.616 130.677 178.602 131.361 177.846C132.057 177.078 133.047 176.694 134.331 176.694C135.615 176.694 136.599 177.078 137.283 177.846C137.979 178.602 138.327 179.616 138.327 180.888ZM136.203 180.888C136.203 180.156 136.041 179.586 135.717 179.178C135.393 178.758 134.931 178.548 134.331 178.548C133.731 178.548 133.269 178.758 132.945 179.178C132.621 179.586 132.459 180.156 132.459 180.888V181.968C132.459 182.7 132.621 183.276 132.945 183.696C133.269 184.116 133.731 184.326 134.331 184.326C134.931 184.326 135.393 184.116 135.717 183.696C136.041 183.276 136.203 182.7 136.203 181.968V180.888Z" fill="white"/>
<path d="M111.735 93.8561L103.52 89.1168L84.5627 121.976L82.0351 133.034C81.7191 134.614 83.6149 135.562 84.5627 134.614L92.7775 127.031L111.735 93.8561Z" fill="white"/>
<path d="M122.477 89.1168L114.262 93.8561L133.219 126.715L141.434 134.298C142.698 135.246 144.277 134.298 143.961 132.718L141.434 121.976L122.477 89.1168Z" fill="white"/>
<path fill-rule="evenodd" clip-rule="evenodd" d="M123.741 108.074C120.581 109.97 117.106 111.234 112.998 111.234C102.572 111.234 94.0411 102.703 94.0411 92.2763C94.0411 91.3285 94.0411 90.0647 94.3571 89.1168H84.8785C84.5625 90.0647 84.5625 91.3285 84.5625 92.2763C84.5625 108.074 97.2007 120.712 112.998 120.712C118.37 120.712 123.741 119.132 127.848 116.289L123.741 108.074Z" fill="white"/>
<path d="M122.476 73.3191H119.317V67H106.678V73.3191H103.519C101.623 73.3191 100.359 74.5829 100.359 76.4786V89.1168L110.47 101.755C111.734 103.335 114.261 103.335 115.525 101.755L125.636 89.1168V76.4786C125.636 74.5829 124.372 73.3191 122.476 73.3191Z" fill="white"/>
<defs>
<filter id="filter0_b_734_3" x="3.30276" y="3.30175" width="219.67" height="219.67" filterUnits="userSpaceOnUse" color-interpolation-filters="sRGB">
<feFlood flood-opacity="0" result="BackgroundImageFix"/>
<feGaussianBlur in="BackgroundImageFix" stdDeviation="2.4912"/>
<feComposite in2="SourceAlpha" operator="in" result="effect1_backgroundBlur_734_3"/>
<feBlend mode="normal" in="SourceGraphic" in2="effect1_backgroundBlur_734_3" result="shape"/>
</filter>
</defs>
</svg>
