<svg width="227" height="227" viewBox="0 0 227 227" fill="none" xmlns="http://www.w3.org/2000/svg">
<g filter="url(#filter0_b_734_20)">
<rect x="0.273438" y="113.137" width="160" height="160" transform="rotate(-45 0.273438 113.137)" fill="white" fill-opacity="0.3"/>
<rect x="2.74831" y="113.137" width="156.5" height="156.5" transform="rotate(-45 2.74831 113.137)" stroke="white" stroke-width="3.5"/>
</g>
<path d="M102.999 168L102.159 165.34H97.4993L96.6593 168H94.2793L98.8193 154.4H100.939L105.499 168H102.999ZM98.7993 161.18L98.1793 163.14H101.459L100.839 161.18L99.8393 157.74L98.7993 161.18ZM109.446 159.78L110.206 164.82L112.926 154.4H115.086L117.786 164.74L118.626 159.78L119.666 154.4H122.106L119.046 168H116.586L113.966 157.88L111.326 168H108.866L105.806 154.4H108.406L109.446 159.78ZM127.469 165.98C129.016 165.98 129.789 165.407 129.789 164.26C129.789 163.793 129.669 163.427 129.429 163.16C129.203 162.893 128.776 162.66 128.149 162.46L126.509 161.92C124.549 161.28 123.569 159.993 123.569 158.06C123.569 156.94 123.916 156.02 124.609 155.3C125.316 154.567 126.416 154.2 127.909 154.2C128.536 154.2 129.156 154.273 129.769 154.42C130.383 154.553 131.036 154.773 131.729 155.08L130.989 157.14C130.349 156.887 129.803 156.707 129.349 156.6C128.909 156.48 128.456 156.42 127.989 156.42C127.376 156.42 126.889 156.533 126.529 156.76C126.183 156.973 126.009 157.367 126.009 157.94C126.009 158.367 126.129 158.72 126.369 159C126.623 159.267 127.036 159.493 127.609 159.68L129.249 160.22C130.236 160.553 130.976 161.04 131.469 161.68C131.976 162.307 132.229 163.14 132.229 164.18C132.229 165.38 131.849 166.353 131.089 167.1C130.329 167.833 129.136 168.2 127.509 168.2C126.869 168.2 126.203 168.127 125.509 167.98C124.829 167.82 124.083 167.553 123.269 167.18L124.009 165.12C124.756 165.44 125.389 165.667 125.909 165.8C126.443 165.92 126.963 165.98 127.469 165.98Z" fill="white"/>
<path d="M106.809 69.805L112.742 67L142.5 81.0845V120.916L112.742 135L106.809 132.195V69.805ZM101.615 72.2615L97.025 74.4375V127.571L101.615 129.738V72.2615ZM89.273 78.101L92.9408 76.3755V125.625L89.273 123.899V78.101ZM85.975 79.665V122.335L83 120.924V81.076L85.975 79.6735V79.665Z" fill="white"/>
<defs>
<filter id="filter0_b_734_20" x="-4.70896" y="-4.98252" width="236.238" height="236.239" filterUnits="userSpaceOnUse" color-interpolation-filters="sRGB">
<feFlood flood-opacity="0" result="BackgroundImageFix"/>
<feGaussianBlur in="BackgroundImageFix" stdDeviation="2.4912"/>
<feComposite in2="SourceAlpha" operator="in" result="effect1_backgroundBlur_734_20"/>
<feBlend mode="normal" in="SourceGraphic" in2="effect1_backgroundBlur_734_20" result="shape"/>
</filter>
</defs>
</svg>
