<svg width="227" height="227" viewBox="0 0 227 227" fill="none" xmlns="http://www.w3.org/2000/svg">
<g filter="url(#filter0_b_734_13)">
<rect y="113.137" width="160" height="160" rx="20" transform="rotate(-45 0 113.137)" fill="white" fill-opacity="0.3"/>
<rect x="2.47487" y="113.137" width="156.5" height="156.5" rx="18.25" transform="rotate(-45 2.47487 113.137)" stroke="white" stroke-width="3.5"/>
</g>
<path d="M84.167 171V158.76H87.893C88.805 158.76 89.525 158.892 90.053 159.156C90.593 159.42 90.977 159.792 91.205 160.272C91.445 160.752 91.565 161.316 91.565 161.964V162.468C91.565 163.416 91.157 164.142 90.341 164.646C90.917 164.874 91.355 165.204 91.655 165.636C91.955 166.068 92.105 166.584 92.105 167.184V167.688C92.105 168.348 91.985 168.93 91.745 169.434C91.505 169.926 91.109 170.31 90.557 170.586C90.005 170.862 89.267 171 88.343 171H84.167ZM87.893 160.74H86.327V163.8H87.893C88.373 163.8 88.733 163.692 88.973 163.476C89.225 163.248 89.351 162.942 89.351 162.558V161.964C89.351 161.58 89.225 161.28 88.973 161.064C88.733 160.848 88.373 160.74 87.893 160.74ZM88.343 165.78H86.327V169.02H88.343C88.847 169.02 89.231 168.9 89.495 168.66C89.759 168.42 89.891 168.096 89.891 167.688V167.094C89.891 166.686 89.759 166.368 89.495 166.14C89.231 165.9 88.847 165.78 88.343 165.78ZM94.3723 168.426V157.68H96.4423V168.426C96.4423 168.606 96.4843 168.78 96.5683 168.948C96.6643 169.104 96.8443 169.182 97.1083 169.182H97.3963V171.09H96.8923C96.2083 171.09 95.6863 170.958 95.3263 170.694C94.9663 170.43 94.7143 170.094 94.5703 169.686C94.4383 169.278 94.3723 168.858 94.3723 168.426ZM106.331 170.478C105.707 170.73 105.119 170.91 104.567 171.018C104.015 171.126 103.493 171.18 103.001 171.18C101.645 171.18 100.619 170.796 99.9229 170.028C99.2269 169.26 98.8789 168.24 98.8789 166.968V165.888C98.8789 165.036 99.0349 164.298 99.3469 163.674C99.6589 163.05 100.103 162.564 100.679 162.216C101.255 161.868 101.933 161.694 102.713 161.694C103.349 161.694 103.943 161.826 104.495 162.09C105.059 162.342 105.515 162.744 105.863 163.296C106.223 163.836 106.403 164.532 106.403 165.384C106.403 165.636 106.385 165.906 106.349 166.194C106.313 166.47 106.253 166.764 106.169 167.076H100.877C100.901 167.82 101.087 168.378 101.435 168.75C101.783 169.122 102.341 169.308 103.109 169.308C103.517 169.308 103.937 169.26 104.369 169.164C104.813 169.068 105.269 168.924 105.737 168.732L106.331 170.478ZM102.713 163.44C102.161 163.44 101.729 163.62 101.417 163.98C101.117 164.328 100.943 164.832 100.895 165.492H104.351C104.363 165.432 104.369 165.378 104.369 165.33C104.369 165.27 104.369 165.216 104.369 165.168C104.369 164.592 104.207 164.16 103.883 163.872C103.559 163.584 103.169 163.44 102.713 163.44ZM113.252 163.62C112.952 163.62 112.61 163.692 112.226 163.836C111.842 163.98 111.386 164.262 110.858 164.682V171H108.788V161.874H110.75V163.098C111.314 162.606 111.848 162.252 112.352 162.036C112.856 161.808 113.366 161.694 113.882 161.694C114.758 161.694 115.424 161.976 115.88 162.54C116.336 163.092 116.564 163.872 116.564 164.88V171H114.494V165.132C114.494 164.124 114.08 163.62 113.252 163.62ZM124.645 171V169.758C124.093 170.31 123.613 170.688 123.205 170.892C122.809 171.084 122.395 171.18 121.963 171.18C120.979 171.18 120.211 170.808 119.659 170.064C119.119 169.32 118.849 168.276 118.849 166.932V165.96C118.849 164.652 119.179 163.614 119.839 162.846C120.499 162.078 121.453 161.694 122.701 161.694C123.013 161.694 123.319 161.724 123.619 161.784C123.931 161.844 124.237 161.928 124.537 162.036V157.68H126.607V171H124.645ZM120.973 166.932C120.973 167.736 121.105 168.324 121.369 168.696C121.645 169.068 122.029 169.254 122.521 169.254C122.797 169.254 123.091 169.176 123.403 169.02C123.715 168.852 124.093 168.54 124.537 168.084V163.908C123.949 163.668 123.409 163.548 122.917 163.548C122.221 163.548 121.723 163.764 121.423 164.196C121.123 164.628 120.973 165.216 120.973 165.96V166.932ZM136.389 170.478C135.765 170.73 135.177 170.91 134.625 171.018C134.073 171.126 133.551 171.18 133.059 171.18C131.703 171.18 130.677 170.796 129.981 170.028C129.285 169.26 128.937 168.24 128.937 166.968V165.888C128.937 165.036 129.093 164.298 129.405 163.674C129.717 163.05 130.161 162.564 130.737 162.216C131.313 161.868 131.991 161.694 132.771 161.694C133.407 161.694 134.001 161.826 134.553 162.09C135.117 162.342 135.573 162.744 135.921 163.296C136.281 163.836 136.461 164.532 136.461 165.384C136.461 165.636 136.443 165.906 136.407 166.194C136.371 166.47 136.311 166.764 136.227 167.076H130.935C130.959 167.82 131.145 168.378 131.493 168.75C131.841 169.122 132.399 169.308 133.167 169.308C133.575 169.308 133.995 169.26 134.427 169.164C134.871 169.068 135.327 168.924 135.795 168.732L136.389 170.478ZM132.771 163.44C132.219 163.44 131.787 163.62 131.475 163.98C131.175 164.328 131.001 164.832 130.953 165.492H134.409C134.421 165.432 134.427 165.378 134.427 165.33C134.427 165.27 134.427 165.216 134.427 165.168C134.427 164.592 134.265 164.16 133.941 163.872C133.617 163.584 133.227 163.44 132.771 163.44ZM143.994 163.764C143.43 163.764 142.89 163.854 142.374 164.034C141.87 164.202 141.384 164.478 140.916 164.862V171H138.846V161.874H140.808V163.278C141.42 162.702 141.966 162.294 142.446 162.054C142.926 161.814 143.442 161.694 143.994 161.694V163.764Z" fill="white"/>
<path d="M145.748 103.965C145.243 100.414 144.014 97.0469 142.092 93.9578C140.416 91.2619 138.265 88.8642 135.698 86.8263L135.705 86.8199L108.744 66.1128C108.722 66.0933 108.699 66.0751 108.684 66.0645C107.787 65.3778 106.574 65 105.268 65C103.96 65 102.699 65.3787 101.719 66.0665C100.665 66.8028 100.062 67.7798 100.02 68.8198C99.9814 69.7899 100.444 70.7234 101.327 71.4513C103.062 72.8203 104.793 74.2193 106.527 75.6197C108.209 76.9795 109.943 78.3799 111.668 79.7433L78.6459 79.7209C74.8695 79.7209 72.2981 81.4943 71.7691 84.4632C71.5367 85.7636 71.9468 87.1935 72.8637 88.2886C73.8365 89.4497 75.2488 90.09 76.8404 90.09L79.3578 90.0915C82.8355 90.0915 86.3285 90.0831 89.8168 90.0747L93.1433 90.067L63.1732 112.24L63.0542 112.327C61.3801 113.61 60.2842 115.409 60.0477 117.262C59.8685 118.666 60.196 119.949 60.9953 120.973C61.9478 122.195 63.4351 122.867 65.1833 122.867C66.9008 122.867 68.6533 122.216 70.1201 121.031L86.3046 107.786C86.2354 108.433 86.1514 109.381 86.161 110.07C86.1792 111.16 86.5293 113.348 87.0835 115.125C88.2286 118.775 90.1574 122.115 92.8162 125.048C95.5826 128.099 98.9519 130.519 102.83 132.238C106.93 134.051 111.337 134.971 115.929 134.971H115.972C120.579 134.96 125 134.025 129.113 132.192C132.998 130.452 136.366 128.023 139.122 124.972C141.777 122.024 143.703 118.678 144.846 115.031C145.411 113.227 145.775 111.359 145.926 109.477C146.067 107.654 146.006 105.8 145.748 103.965ZM116.265 121.461C106.144 121.461 97.9357 114.118 97.9357 105.061C97.9357 96.0036 106.144 88.6614 116.265 88.6614C126.387 88.6614 134.594 96.0036 134.594 105.061C134.594 114.118 126.387 121.461 116.265 121.461ZM126.835 103.619C126.984 106.323 125.905 108.833 124.009 110.691C122.08 112.584 119.327 113.773 116.25 113.773C113.173 113.773 110.421 112.584 108.491 110.691C106.596 108.833 105.518 106.323 105.666 103.622C105.812 100.996 107.093 98.6777 109.022 97.0365C110.919 95.4227 113.467 94.438 116.25 94.438C119.033 94.438 121.58 95.4229 123.477 97.0365C125.407 98.6777 126.688 100.994 126.835 103.619Z" fill="white"/>
<defs>
<filter id="filter0_b_734_13" x="3.30276" y="3.30175" width="219.668" height="219.67" filterUnits="userSpaceOnUse" color-interpolation-filters="sRGB">
<feFlood flood-opacity="0" result="BackgroundImageFix"/>
<feGaussianBlur in="BackgroundImageFix" stdDeviation="2.4912"/>
<feComposite in2="SourceAlpha" operator="in" result="effect1_backgroundBlur_734_13"/>
<feBlend mode="normal" in="SourceGraphic" in2="effect1_backgroundBlur_734_13" result="shape"/>
</filter>
</defs>
</svg>
