<svg width="227" height="227" viewBox="0 0 227 227" fill="none" xmlns="http://www.w3.org/2000/svg">
<g filter="url(#filter0_b_734_9)">
<rect y="113.137" width="160" height="160" rx="20" transform="rotate(-45 0 113.137)" fill="white" fill-opacity="0.3"/>
<rect x="2.47487" y="113.137" width="156.5" height="156.5" rx="18.25" transform="rotate(-45 2.47487 113.137)" stroke="white" stroke-width="3.5"/>
</g>
<path d="M74.5993 166.158C74.5993 167.034 74.7913 167.754 75.1753 168.318C75.5593 168.87 76.1893 169.146 77.0653 169.146C77.4253 169.146 77.7973 169.098 78.1813 169.002C78.5773 168.906 79.0633 168.744 79.6393 168.516L80.3053 170.388C79.6573 170.676 79.0573 170.88 78.5053 171C77.9653 171.12 77.4433 171.18 76.9393 171.18C75.9313 171.18 75.0853 170.964 74.4013 170.532C73.7293 170.1 73.2253 169.506 72.8893 168.75C72.5533 167.994 72.3853 167.13 72.3853 166.158V163.584C72.3853 162.612 72.5533 161.748 72.8893 160.992C73.2253 160.236 73.7293 159.648 74.4013 159.228C75.0853 158.796 75.9313 158.58 76.9393 158.58C77.4313 158.58 77.9413 158.64 78.4693 158.76C78.9973 158.868 79.5733 159.06 80.1973 159.336L79.5313 161.244C78.9793 161.016 78.5173 160.854 78.1453 160.758C77.7733 160.662 77.4133 160.614 77.0653 160.614C76.1893 160.614 75.5593 160.89 75.1753 161.442C74.7913 161.994 74.5993 162.708 74.5993 163.584V166.158ZM89.407 165.888V166.968C89.407 168.24 89.059 169.26 88.363 170.028C87.667 170.796 86.683 171.18 85.411 171.18C84.139 171.18 83.155 170.796 82.459 170.028C81.763 169.26 81.415 168.24 81.415 166.968V165.888C81.415 164.616 81.757 163.602 82.441 162.846C83.137 162.078 84.127 161.694 85.411 161.694C86.695 161.694 87.679 162.078 88.363 162.846C89.059 163.602 89.407 164.616 89.407 165.888ZM87.283 165.888C87.283 165.156 87.121 164.586 86.797 164.178C86.473 163.758 86.011 163.548 85.411 163.548C84.811 163.548 84.349 163.758 84.025 164.178C83.701 164.586 83.539 165.156 83.539 165.888V166.968C83.539 167.7 83.701 168.276 84.025 168.696C84.349 169.116 84.811 169.326 85.411 169.326C86.011 169.326 86.473 169.116 86.797 168.696C87.121 168.276 87.283 167.7 87.283 166.968V165.888ZM93.312 165.906V166.968C93.312 167.736 93.45 168.312 93.726 168.696C94.002 169.08 94.446 169.272 95.058 169.272C95.358 169.272 95.694 169.236 96.066 169.164C96.45 169.08 96.864 168.954 97.308 168.786L97.902 170.532C97.362 170.748 96.852 170.91 96.372 171.018C95.892 171.126 95.418 171.18 94.95 171.18C93.75 171.18 92.832 170.796 92.196 170.028C91.56 169.26 91.242 168.24 91.242 166.968V165.906C91.242 164.622 91.56 163.602 92.196 162.846C92.832 162.078 93.75 161.694 94.95 161.694C95.406 161.694 95.868 161.748 96.336 161.856C96.804 161.964 97.296 162.12 97.812 162.324L97.218 164.106C96.354 163.77 95.634 163.602 95.058 163.602C94.446 163.602 94.002 163.794 93.726 164.178C93.45 164.55 93.312 165.126 93.312 165.906ZM107.266 165.888V166.968C107.266 168.24 106.918 169.26 106.222 170.028C105.526 170.796 104.542 171.18 103.27 171.18C101.998 171.18 101.014 170.796 100.318 170.028C99.6224 169.26 99.2744 168.24 99.2744 166.968V165.888C99.2744 164.616 99.6164 163.602 100.3 162.846C100.996 162.078 101.986 161.694 103.27 161.694C104.554 161.694 105.538 162.078 106.222 162.846C106.918 163.602 107.266 164.616 107.266 165.888ZM105.142 165.888C105.142 165.156 104.98 164.586 104.656 164.178C104.332 163.758 103.87 163.548 103.27 163.548C102.67 163.548 102.208 163.758 101.884 164.178C101.56 164.586 101.398 165.156 101.398 165.888V166.968C101.398 167.7 101.56 168.276 101.884 168.696C102.208 169.116 102.67 169.326 103.27 169.326C103.87 169.326 104.332 169.116 104.656 168.696C104.98 168.276 105.142 167.7 105.142 166.968V165.888ZM116.499 171.09C115.887 171.09 115.395 170.964 115.023 170.712C114.663 170.46 114.399 170.148 114.231 169.776C113.715 170.256 113.217 170.61 112.737 170.838C112.257 171.066 111.741 171.18 111.189 171.18C110.385 171.18 109.791 170.922 109.407 170.406C109.035 169.89 108.849 169.236 108.849 168.444C108.849 167.916 108.945 167.454 109.137 167.058C109.341 166.65 109.671 166.332 110.127 166.104C110.583 165.876 111.207 165.762 111.999 165.762C112.311 165.762 112.635 165.786 112.971 165.834C113.307 165.87 113.643 165.918 113.979 165.978V164.916C113.979 164.412 113.841 164.07 113.565 163.89C113.289 163.698 112.917 163.602 112.449 163.602C112.089 163.602 111.693 163.65 111.261 163.746C110.841 163.842 110.385 163.992 109.893 164.196L109.299 162.432C110.511 161.94 111.609 161.694 112.593 161.694C113.481 161.694 114.165 161.844 114.645 162.144C115.137 162.444 115.479 162.84 115.671 163.332C115.863 163.824 115.959 164.352 115.959 164.916V168.426C115.959 168.606 116.007 168.78 116.103 168.948C116.211 169.104 116.415 169.182 116.715 169.182H116.913V171.09H116.499ZM110.847 168.408C110.847 168.732 110.919 168.99 111.063 169.182C111.207 169.362 111.417 169.452 111.693 169.452C111.969 169.452 112.281 169.38 112.629 169.236C112.977 169.092 113.427 168.756 113.979 168.228V167.454C113.355 167.346 112.743 167.292 112.143 167.292C111.675 167.292 111.339 167.388 111.135 167.58C110.943 167.772 110.847 168.048 110.847 168.408ZM118.98 171V158.76H123.012C124.296 158.76 125.256 159.084 125.892 159.732C126.54 160.38 126.864 161.244 126.864 162.324V163.278C126.864 164.358 126.54 165.228 125.892 165.888C125.256 166.536 124.296 166.86 123.012 166.86H121.14V171H118.98ZM123.012 160.83H121.14V164.79H123.012C123.54 164.79 123.942 164.658 124.218 164.394C124.506 164.13 124.65 163.758 124.65 163.278V162.324C124.65 161.856 124.506 161.49 124.218 161.226C123.942 160.962 123.54 160.83 123.012 160.83ZM136.341 165.888V166.968C136.341 168.24 135.993 169.26 135.297 170.028C134.601 170.796 133.617 171.18 132.345 171.18C131.073 171.18 130.089 170.796 129.393 170.028C128.697 169.26 128.349 168.24 128.349 166.968V165.888C128.349 164.616 128.691 163.602 129.375 162.846C130.071 162.078 131.061 161.694 132.345 161.694C133.629 161.694 134.613 162.078 135.297 162.846C135.993 163.602 136.341 164.616 136.341 165.888ZM134.217 165.888C134.217 165.156 134.055 164.586 133.731 164.178C133.407 163.758 132.945 163.548 132.345 163.548C131.745 163.548 131.283 163.758 130.959 164.178C130.635 164.586 130.473 165.156 130.473 165.888V166.968C130.473 167.7 130.635 168.276 130.959 168.696C131.283 169.116 131.745 169.326 132.345 169.326C132.945 169.326 133.407 169.116 133.731 168.696C134.055 168.276 134.217 167.7 134.217 166.968V165.888ZM144.008 171V169.758C143.456 170.31 142.976 170.688 142.568 170.892C142.172 171.084 141.758 171.18 141.326 171.18C140.342 171.18 139.574 170.808 139.022 170.064C138.482 169.32 138.212 168.276 138.212 166.932V165.96C138.212 164.652 138.542 163.614 139.202 162.846C139.862 162.078 140.816 161.694 142.064 161.694C142.376 161.694 142.682 161.724 142.982 161.784C143.294 161.844 143.6 161.928 143.9 162.036V157.68H145.97V171H144.008ZM140.336 166.932C140.336 167.736 140.468 168.324 140.732 168.696C141.008 169.068 141.392 169.254 141.884 169.254C142.16 169.254 142.454 169.176 142.766 169.02C143.078 168.852 143.456 168.54 143.9 168.084V163.908C143.312 163.668 142.772 163.548 142.28 163.548C141.584 163.548 141.086 163.764 140.786 164.196C140.486 164.628 140.336 165.216 140.336 165.96V166.932ZM151.378 169.38C151.822 169.38 152.188 169.308 152.476 169.164C152.764 169.008 152.908 168.78 152.908 168.48C152.908 168.216 152.812 168.012 152.62 167.868C152.44 167.712 152.11 167.574 151.63 167.454L150.604 167.184C149.812 166.98 149.224 166.638 148.84 166.158C148.468 165.678 148.282 165.108 148.282 164.448C148.282 163.668 148.552 163.014 149.092 162.486C149.632 161.958 150.466 161.694 151.594 161.694C152.05 161.694 152.53 161.748 153.034 161.856C153.538 161.964 154.066 162.138 154.618 162.378L154.024 164.142C153.52 163.902 153.064 163.734 152.656 163.638C152.248 163.542 151.888 163.494 151.576 163.494C150.724 163.494 150.298 163.782 150.298 164.358C150.298 164.586 150.37 164.766 150.514 164.898C150.67 165.03 150.952 165.15 151.36 165.258L152.386 165.528C153.262 165.756 153.898 166.104 154.294 166.572C154.702 167.04 154.906 167.628 154.906 168.336C154.906 169.176 154.618 169.86 154.042 170.388C153.478 170.916 152.584 171.18 151.36 171.18C150.316 171.18 149.218 170.94 148.066 170.46L148.624 168.75C149.188 168.978 149.698 169.14 150.154 169.236C150.61 169.332 151.018 169.38 151.378 169.38Z" fill="white"/>
<path d="M147 135H79V67H147V135ZM106.735 87.4C106.594 87.3943 106.43 87.3915 106.265 87.3915C102.341 87.3915 98.7993 89.0207 96.2777 91.6415L96.2748 91.6472C93.9968 94.1462 92.6 97.4867 92.6 101.153C92.6 101.224 92.6 101.295 92.6028 101.365V101.354C92.6 101.453 92.6 101.572 92.6 101.688C92.6 109.211 98.6973 115.308 106.22 115.308C106.43 115.308 106.639 115.303 106.846 115.294H106.818C106.925 115.297 107.05 115.3 107.175 115.3C110.464 115.3 113.487 114.169 115.882 112.279L115.853 112.302C118.018 110.517 119.542 108.021 120.072 105.179L120.083 105.105H113.567C112.725 107.834 110.226 109.78 107.274 109.78C107.138 109.78 107.002 109.778 106.869 109.769H106.886C106.846 109.769 106.801 109.769 106.752 109.769C104.511 109.769 102.491 108.826 101.066 107.313L101.063 107.31C99.689 105.777 98.8503 103.743 98.8503 101.513C98.8503 101.459 98.8503 101.402 98.8532 101.348V101.357C98.8532 101.312 98.8532 101.255 98.8532 101.201C98.8532 99.0223 99.638 97.0277 100.938 95.4835L100.927 95.4977C102.318 93.9223 104.341 92.9363 106.597 92.9363C106.676 92.9363 106.755 92.9363 106.832 92.9392H106.82C106.888 92.9363 106.968 92.9363 107.047 92.9363C108.733 92.9363 110.28 93.5257 111.495 94.5117L111.481 94.5003C112.6 95.4835 113.38 96.8293 113.638 98.3537L113.643 98.3933H120.047C119.701 95.2795 118.227 92.5652 116.054 90.6187L116.043 90.6073C113.663 88.6098 110.566 87.3972 107.186 87.3972C107.03 87.3972 106.877 87.4 106.724 87.4057H106.747L106.735 87.4ZM127.515 88.0205L123.599 89.6978L128.504 101.17L123.597 112.645L127.512 114.317L130.805 106.562L130.822 106.599L133.1 101.159L127.515 88.0205Z" fill="white"/>
<defs>
<filter id="filter0_b_734_9" x="3.30276" y="3.30175" width="219.67" height="219.67" filterUnits="userSpaceOnUse" color-interpolation-filters="sRGB">
<feFlood flood-opacity="0" result="BackgroundImageFix"/>
<feGaussianBlur in="BackgroundImageFix" stdDeviation="2.4912"/>
<feComposite in2="SourceAlpha" operator="in" result="effect1_backgroundBlur_734_9"/>
<feBlend mode="normal" in="SourceGraphic" in2="effect1_backgroundBlur_734_9" result="shape"/>
</filter>
</defs>
</svg>
