<svg width="227" height="227" viewBox="0 0 227 227" fill="none" xmlns="http://www.w3.org/2000/svg">
<g filter="url(#filter0_b_734_12)">
<rect x="0.273438" y="113.137" width="160" height="160" transform="rotate(-45 0.273438 113.137)" fill="white" fill-opacity="0.3"/>
<rect x="2.74831" y="113.137" width="156.5" height="156.5" transform="rotate(-45 2.74831 113.137)" stroke="white" stroke-width="3.5"/>
</g>
<path d="M100.05 162.62C100.05 163.593 100.264 164.393 100.69 165.02C101.117 165.633 101.817 165.94 102.79 165.94C103.19 165.94 103.604 165.887 104.03 165.78C104.47 165.673 105.01 165.493 105.65 165.24L106.39 167.32C105.67 167.64 105.004 167.867 104.39 168C103.79 168.133 103.21 168.2 102.65 168.2C101.53 168.2 100.59 167.96 99.8304 167.48C99.0838 167 98.5238 166.34 98.1504 165.5C97.7771 164.66 97.5904 163.7 97.5904 162.62V159.76C97.5904 158.68 97.7771 157.72 98.1504 156.88C98.5238 156.04 99.0838 155.387 99.8304 154.92C100.59 154.44 101.53 154.2 102.65 154.2C103.197 154.2 103.764 154.267 104.35 154.4C104.937 154.52 105.577 154.733 106.27 155.04L105.53 157.16C104.917 156.907 104.404 156.727 103.99 156.62C103.577 156.513 103.177 156.46 102.79 156.46C101.817 156.46 101.117 156.767 100.69 157.38C100.264 157.993 100.05 158.787 100.05 159.76V162.62ZM117.034 162.9H113.914V166.1H111.874V162.9H108.754V160.9H111.874V157.7H113.914V160.9H117.034V162.9ZM128.792 162.9H125.672V166.1H123.632V162.9H120.512V160.9H123.632V157.7H125.672V160.9H128.792V162.9Z" fill="white"/>
<path fill-rule="evenodd" clip-rule="evenodd" d="M141.687 84.0421C141.229 83.2186 140.596 82.4994 139.9 82.0829L115.745 67.6248C114.354 66.7917 112.077 66.7917 110.685 67.6248L86.5301 82.0829C85.1384 82.9157 84 84.9603 84 86.626V115.542C84 116.375 84.2847 117.303 84.7434 118.127L96.5189 111.078L96.519 111.078L84.7435 118.127C85.202 118.95 85.8346 119.669 86.5302 120.086L110.685 134.544C112.077 135.377 114.354 135.377 115.745 134.544L139.9 120.086C140.596 119.669 141.229 118.95 141.687 118.127L141.687 118.126C142.145 117.303 142.43 116.375 142.43 115.542V86.626C142.43 85.793 142.145 84.8656 141.687 84.0423L141.687 84.0421ZM130.059 91.0025L141.687 84.0423L141.687 84.0422L130.059 91.0024C126.524 85.1974 120.143 81.6076 113.312 81.6076C102.521 81.6076 93.7411 90.3449 93.7411 101.084C93.7411 104.735 94.7557 108.155 96.5189 111.078L104.903 106.06L96.519 111.078C99.9426 116.755 106.189 120.561 113.312 120.561C120.148 120.561 126.533 116.966 130.067 111.154L121.668 106.156C119.894 109.041 116.714 110.823 113.312 110.823C109.741 110.823 106.611 108.91 104.903 106.06C104.029 104.603 103.526 102.901 103.526 101.084C103.526 95.7146 107.916 91.346 113.312 91.346C116.718 91.346 119.9 93.1319 121.673 96.0217L113.215 101.084L113.215 101.084L121.673 96.0219L121.682 96.0362L130.063 91.0095L130.059 91.0025ZM130.059 91.0025L121.673 96.0219L121.673 96.0217L130.059 91.0024L130.059 91.0025ZM130.26 99.8544H127.825V97.4325H125.391V99.8544H122.956V102.276H125.391V104.698H127.825V102.276H130.26V99.8544ZM137.565 99.8671H139.999V102.301H137.565V104.736H135.13V102.301H132.696V99.8671H135.13V97.4325H137.565V99.8671Z" fill="white"/>
<defs>
<filter id="filter0_b_734_12" x="-4.70896" y="-4.98252" width="236.238" height="236.239" filterUnits="userSpaceOnUse" color-interpolation-filters="sRGB">
<feFlood flood-opacity="0" result="BackgroundImageFix"/>
<feGaussianBlur in="BackgroundImageFix" stdDeviation="2.4912"/>
<feComposite in2="SourceAlpha" operator="in" result="effect1_backgroundBlur_734_12"/>
<feBlend mode="normal" in="SourceGraphic" in2="effect1_backgroundBlur_734_12" result="shape"/>
</filter>
</defs>
</svg>
