<svg width="227" height="227" viewBox="0 0 227 227" fill="none" xmlns="http://www.w3.org/2000/svg">
<g filter="url(#filter0_b_734_10)">
<rect y="113.137" width="160" height="160" transform="rotate(-45 0 113.137)" fill="white" fill-opacity="0.3"/>
<rect x="2.47487" y="113.137" width="156.5" height="156.5" transform="rotate(-45 2.47487 113.137)" stroke="white" stroke-width="3.5"/>
</g>
<path d="M83.234 162.62C83.234 163.593 83.4474 164.393 83.874 165.02C84.3007 165.633 85.0007 165.94 85.974 165.94C86.374 165.94 86.7874 165.887 87.214 165.78C87.654 165.673 88.194 165.493 88.834 165.24L89.574 167.32C88.854 167.64 88.1874 167.867 87.574 168C86.974 168.133 86.394 168.2 85.834 168.2C84.714 168.2 83.774 167.96 83.014 167.48C82.2674 167 81.7074 166.34 81.334 165.5C80.9607 164.66 80.774 163.7 80.774 162.62V159.76C80.774 158.68 80.9607 157.72 81.334 156.88C81.7074 156.04 82.2674 155.387 83.014 154.92C83.774 154.44 84.714 154.2 85.834 154.2C86.3807 154.2 86.9474 154.267 87.534 154.4C88.1207 154.52 88.7607 154.733 89.454 155.04L88.714 157.16C88.1007 156.907 87.5874 156.727 87.174 156.62C86.7607 156.513 86.3607 156.46 85.974 156.46C85.0007 156.46 84.3007 156.767 83.874 157.38C83.4474 157.993 83.234 158.787 83.234 159.76V162.62ZM90.2992 162.7V160.7H96.3792V162.7H90.2992ZM101.805 166.2C102.298 166.2 102.705 166.12 103.025 165.96C103.345 165.787 103.505 165.533 103.505 165.2C103.505 164.907 103.398 164.68 103.185 164.52C102.985 164.347 102.618 164.193 102.085 164.06L100.945 163.76C100.065 163.533 99.4118 163.153 98.9851 162.62C98.5718 162.087 98.3651 161.453 98.3651 160.72C98.3651 159.853 98.6651 159.127 99.2651 158.54C99.8651 157.953 100.792 157.66 102.045 157.66C102.552 157.66 103.085 157.72 103.645 157.84C104.205 157.96 104.792 158.153 105.405 158.42L104.745 160.38C104.185 160.113 103.678 159.927 103.225 159.82C102.772 159.713 102.372 159.66 102.025 159.66C101.078 159.66 100.605 159.98 100.605 160.62C100.605 160.873 100.685 161.073 100.845 161.22C101.018 161.367 101.332 161.5 101.785 161.62L102.925 161.92C103.898 162.173 104.605 162.56 105.045 163.08C105.498 163.6 105.725 164.253 105.725 165.04C105.725 165.973 105.405 166.733 104.765 167.32C104.138 167.907 103.145 168.2 101.785 168.2C100.625 168.2 99.4051 167.933 98.1251 167.4L98.7451 165.5C99.3718 165.753 99.9385 165.933 100.445 166.04C100.952 166.147 101.405 166.2 101.805 166.2ZM113.046 159.8C112.713 159.8 112.333 159.88 111.906 160.04C111.48 160.2 110.973 160.513 110.386 160.98V168H108.086V153.2H110.386V159.12C111 158.6 111.573 158.227 112.106 158C112.64 157.773 113.186 157.66 113.746 157.66C114.72 157.66 115.46 157.973 115.966 158.6C116.473 159.213 116.726 160.08 116.726 161.2V168H114.426V161.48C114.426 160.36 113.966 159.8 113.046 159.8ZM127.446 168.1C126.766 168.1 126.219 167.96 125.806 167.68C125.406 167.4 125.113 167.053 124.926 166.64C124.353 167.173 123.799 167.567 123.266 167.82C122.733 168.073 122.159 168.2 121.546 168.2C120.653 168.2 119.993 167.913 119.566 167.34C119.153 166.767 118.946 166.04 118.946 165.16C118.946 164.573 119.053 164.06 119.266 163.62C119.493 163.167 119.859 162.813 120.366 162.56C120.873 162.307 121.566 162.18 122.446 162.18C122.793 162.18 123.153 162.207 123.526 162.26C123.899 162.3 124.273 162.353 124.646 162.42V161.24C124.646 160.68 124.493 160.3 124.186 160.1C123.879 159.887 123.466 159.78 122.946 159.78C122.546 159.78 122.106 159.833 121.626 159.94C121.159 160.047 120.653 160.213 120.106 160.44L119.446 158.48C120.793 157.933 122.013 157.66 123.106 157.66C124.093 157.66 124.853 157.827 125.386 158.16C125.933 158.493 126.313 158.933 126.526 159.48C126.739 160.027 126.846 160.613 126.846 161.24V165.14C126.846 165.34 126.899 165.533 127.006 165.72C127.126 165.893 127.353 165.98 127.686 165.98H127.906V168.1H127.446ZM121.166 165.12C121.166 165.48 121.246 165.767 121.406 165.98C121.566 166.18 121.799 166.28 122.106 166.28C122.413 166.28 122.759 166.2 123.146 166.04C123.533 165.88 124.033 165.507 124.646 164.92V164.06C123.953 163.94 123.273 163.88 122.606 163.88C122.086 163.88 121.713 163.987 121.486 164.2C121.273 164.413 121.166 164.72 121.166 165.12ZM135.623 159.96C134.996 159.96 134.396 160.06 133.823 160.26C133.263 160.447 132.723 160.753 132.203 161.18V168H129.903V157.86H132.083V159.42C132.763 158.78 133.369 158.327 133.903 158.06C134.436 157.793 135.009 157.66 135.623 157.66V159.96ZM141.977 168.2C141.644 168.2 141.304 168.167 140.957 168.1C140.624 168.033 140.284 167.94 139.937 167.82V172.26H137.637V157.86H139.817V159.24C140.444 158.613 140.977 158.193 141.417 157.98C141.857 157.767 142.317 157.66 142.797 157.66C143.904 157.66 144.757 158.073 145.357 158.9C145.957 159.727 146.257 160.887 146.257 162.38V163.46C146.257 164.913 145.89 166.067 145.157 166.92C144.424 167.773 143.364 168.2 141.977 168.2ZM142.177 159.8C141.87 159.8 141.544 159.893 141.197 160.08C140.864 160.253 140.444 160.593 139.937 161.1V165.74C140.59 166.007 141.19 166.14 141.737 166.14C142.51 166.14 143.064 165.9 143.397 165.42C143.73 164.94 143.897 164.287 143.897 163.46V162.38C143.897 161.487 143.744 160.833 143.437 160.42C143.144 160.007 142.724 159.8 142.177 159.8Z" fill="white"/>
<path fill-rule="evenodd" clip-rule="evenodd" d="M139.898 82.0823C140.594 82.4988 141.227 83.218 141.685 84.0415L130.053 91.0042C126.518 85.1979 120.138 81.6072 113.305 81.6072C102.514 81.6072 93.7351 90.3442 93.7351 101.083C93.7351 104.735 94.7502 108.155 96.5143 111.079L84.7433 118.125C84.2847 117.302 84 116.374 84 115.541V86.6254C84 84.9597 85.1384 82.9151 86.53 82.0823L110.684 67.6247C112.076 66.7918 114.353 66.7918 115.744 67.6247L139.898 82.0823ZM104.898 106.061L96.5143 111.079L96.5146 111.08L84.7442 118.125C85.2027 118.948 85.8353 119.668 86.5309 120.084L110.685 134.542C112.076 135.375 114.354 135.375 115.745 134.542L139.899 120.084C140.595 119.667 141.228 118.948 141.686 118.125L141.685 118.125C142.144 117.301 142.428 116.374 142.428 115.541V86.6255C142.428 85.7924 142.144 84.865 141.685 84.0417L130.053 91.0043L130.053 91.0042L121.668 96.0234C119.895 93.1321 116.712 91.3453 113.305 91.3453C107.909 91.3453 103.52 95.7138 103.52 101.083C103.52 102.901 104.023 104.604 104.898 106.061ZM104.898 106.062L96.5146 111.08C99.9385 116.754 106.184 120.559 113.305 120.559C120.138 120.559 126.519 116.969 130.053 111.162L141.685 118.125L141.685 118.125L130.053 111.162L130.059 111.152L126.268 108.896L113.215 101.083L113.215 101.084L113.214 101.083L121.668 96.0235L121.675 96.0354L130.056 91.0088L130.053 91.0043L121.668 96.0235L121.668 96.0234L113.214 101.083L104.898 106.061L104.898 106.062ZM126.158 108.831L130.053 111.162L130.053 111.162L126.268 108.896L126.158 108.831ZM126.158 108.831L121.661 106.155C119.887 109.04 116.708 110.821 113.305 110.821C109.736 110.821 106.607 108.91 104.898 106.062L113.215 101.084L126.158 108.831ZM135.122 96.208V93.7798H137.556V96.208H139.991V98.6488H137.556V103.518H139.991V105.952H137.556V108.387H135.122V105.952H130.253L130.253 108.387H127.819V105.952H125.384V103.505H127.819V98.6488H125.384V96.208H127.819V93.7798H130.253V96.208H135.122ZM130.253 98.6488H135.122V103.518L130.253 103.505V98.6488Z" fill="white"/>
<defs>
<filter id="filter0_b_734_10" x="-4.9824" y="-4.98252" width="236.238" height="236.239" filterUnits="userSpaceOnUse" color-interpolation-filters="sRGB">
<feFlood flood-opacity="0" result="BackgroundImageFix"/>
<feGaussianBlur in="BackgroundImageFix" stdDeviation="2.4912"/>
<feComposite in2="SourceAlpha" operator="in" result="effect1_backgroundBlur_734_10"/>
<feBlend mode="normal" in="SourceGraphic" in2="effect1_backgroundBlur_734_10" result="shape"/>
</filter>
</defs>
</svg>
