<svg width="227" height="227" viewBox="0 0 227 227" fill="none" xmlns="http://www.w3.org/2000/svg">
<g filter="url(#filter0_b_663_18)">
<rect x="0.273438" y="113.137" width="160" height="160" transform="rotate(-45 0.273438 113.137)" fill="white" fill-opacity="0.3"/>
<rect x="2.74831" y="113.137" width="156.5" height="156.5" transform="rotate(-45 2.74831 113.137)" stroke="white" stroke-width="3.5"/>
</g>
<path d="M101.457 162.62C101.457 163.593 101.67 164.393 102.097 165.02C102.523 165.633 103.223 165.94 104.197 165.94C104.597 165.94 105.01 165.887 105.437 165.78C105.877 165.673 106.417 165.493 107.057 165.24L107.797 167.32C107.077 167.64 106.41 167.867 105.797 168C105.197 168.133 104.617 168.2 104.057 168.2C102.937 168.2 101.997 167.96 101.237 167.48C100.49 167 99.93 166.34 99.5567 165.5C99.1833 164.66 98.9967 163.7 98.9967 162.62V159.76C98.9967 158.68 99.1833 157.72 99.5567 156.88C99.93 156.04 100.49 155.387 101.237 154.92C101.997 154.44 102.937 154.2 104.057 154.2C104.603 154.2 105.17 154.267 105.757 154.4C106.343 154.52 106.983 154.733 107.677 155.04L106.937 157.16C106.323 156.907 105.81 156.727 105.397 156.62C104.983 156.513 104.583 156.46 104.197 156.46C103.223 156.46 102.523 156.767 102.097 157.38C101.67 157.993 101.457 158.787 101.457 159.76V162.62ZM113.26 165.98C114.807 165.98 115.58 165.407 115.58 164.26C115.58 163.793 115.46 163.427 115.22 163.16C114.994 162.893 114.567 162.66 113.94 162.46L112.3 161.92C110.34 161.28 109.36 159.993 109.36 158.06C109.36 156.94 109.707 156.02 110.4 155.3C111.107 154.567 112.207 154.2 113.7 154.2C114.327 154.2 114.947 154.273 115.56 154.42C116.174 154.553 116.827 154.773 117.52 155.08L116.78 157.14C116.14 156.887 115.594 156.707 115.14 156.6C114.7 156.48 114.247 156.42 113.78 156.42C113.167 156.42 112.68 156.533 112.32 156.76C111.974 156.973 111.8 157.367 111.8 157.94C111.8 158.367 111.92 158.72 112.16 159C112.414 159.267 112.827 159.493 113.4 159.68L115.04 160.22C116.027 160.553 116.767 161.04 117.26 161.68C117.767 162.307 118.02 163.14 118.02 164.18C118.02 165.38 117.64 166.353 116.88 167.1C116.12 167.833 114.927 168.2 113.3 168.2C112.66 168.2 111.994 168.127 111.3 167.98C110.62 167.82 109.874 167.553 109.06 167.18L109.8 165.12C110.547 165.44 111.18 165.667 111.7 165.8C112.234 165.92 112.754 165.98 113.26 165.98ZM123.612 165.98C125.159 165.98 125.932 165.407 125.932 164.26C125.932 163.793 125.812 163.427 125.572 163.16C125.345 162.893 124.919 162.66 124.292 162.46L122.652 161.92C120.692 161.28 119.712 159.993 119.712 158.06C119.712 156.94 120.059 156.02 120.752 155.3C121.459 154.567 122.559 154.2 124.052 154.2C124.679 154.2 125.299 154.273 125.912 154.42C126.525 154.553 127.179 154.773 127.872 155.08L127.132 157.14C126.492 156.887 125.945 156.707 125.492 156.6C125.052 156.48 124.599 156.42 124.132 156.42C123.519 156.42 123.032 156.533 122.672 156.76C122.325 156.973 122.152 157.367 122.152 157.94C122.152 158.367 122.272 158.72 122.512 159C122.765 159.267 123.179 159.493 123.752 159.68L125.392 160.22C126.379 160.553 127.119 161.04 127.612 161.68C128.119 162.307 128.372 163.14 128.372 164.18C128.372 165.38 127.992 166.353 127.232 167.1C126.472 167.833 125.279 168.2 123.652 168.2C123.012 168.2 122.345 168.127 121.652 167.98C120.972 167.82 120.225 167.553 119.412 167.18L120.152 165.12C120.899 165.44 121.532 165.667 122.052 165.8C122.585 165.92 123.105 165.98 123.612 165.98Z" fill="white"/>
<path d="M144.222 67L138.388 128.404L113.111 135.017L87.833 128.404L82 67H144.222ZM132.466 79.4855H113.088H93.3668L94.3099 86.9005H113.088H114.143L113.088 87.3271L94.9962 94.6487L95.5962 101.897L113.088 101.952L122.463 101.981L121.863 111.645L113.088 114.046V114.038L113.016 114.057L104.541 111.979L104.027 105.98H103.999H96.1386H96.1109L97.1398 117.561L113.088 122.143V122.135L113.117 122.143L128.98 117.644L131.038 94.6487H113.088H113.044L113.088 94.6301L131.695 86.9005L132.466 79.4855Z" fill="white"/>
<defs>
<filter id="filter0_b_663_18" x="-4.70896" y="-4.98252" width="236.238" height="236.239" filterUnits="userSpaceOnUse" color-interpolation-filters="sRGB">
<feFlood flood-opacity="0" result="BackgroundImageFix"/>
<feGaussianBlur in="BackgroundImageFix" stdDeviation="2.4912"/>
<feComposite in2="SourceAlpha" operator="in" result="effect1_backgroundBlur_663_18"/>
<feBlend mode="normal" in="SourceGraphic" in2="effect1_backgroundBlur_663_18" result="shape"/>
</filter>
</defs>
</svg>
