<svg width="227" height="227" viewBox="0 0 227 227" fill="none" xmlns="http://www.w3.org/2000/svg">
<g filter="url(#filter0_b_734_21)">
<rect y="113.137" width="160" height="160" rx="20" transform="rotate(-45 0 113.137)" fill="white" fill-opacity="0.3"/>
<rect x="2.47487" y="113.137" width="156.5" height="156.5" rx="18.25" transform="rotate(-45 2.47487 113.137)" stroke="white" stroke-width="3.5"/>
</g>
<path d="M87.6123 171V158.76H91.7523C93.2163 158.76 94.3323 159.168 95.1003 159.984C95.8683 160.8 96.2523 162 96.2523 163.584V166.158C96.2523 167.754 95.8683 168.96 95.1003 169.776C94.3323 170.592 93.2163 171 91.7523 171H87.6123ZM91.6623 160.83H89.7723V168.93H91.6623C92.5143 168.93 93.1203 168.72 93.4803 168.3C93.8523 167.88 94.0383 167.166 94.0383 166.158V163.584C94.0383 162.588 93.8523 161.88 93.4803 161.46C93.1203 161.04 92.5143 160.83 91.6623 160.83ZM106.308 165.888V166.968C106.308 168.24 105.96 169.26 105.264 170.028C104.568 170.796 103.584 171.18 102.312 171.18C101.04 171.18 100.056 170.796 99.3604 170.028C98.6644 169.26 98.3164 168.24 98.3164 166.968V165.888C98.3164 164.616 98.6584 163.602 99.3424 162.846C100.038 162.078 101.028 161.694 102.312 161.694C103.596 161.694 104.58 162.078 105.264 162.846C105.96 163.602 106.308 164.616 106.308 165.888ZM104.184 165.888C104.184 165.156 104.022 164.586 103.698 164.178C103.374 163.758 102.912 163.548 102.312 163.548C101.712 163.548 101.25 163.758 100.926 164.178C100.602 164.586 100.44 165.156 100.44 165.888V166.968C100.44 167.7 100.602 168.276 100.926 168.696C101.25 169.116 101.712 169.326 102.312 169.326C102.912 169.326 103.374 169.116 103.698 168.696C104.022 168.276 104.184 167.7 104.184 166.968V165.888ZM110.213 165.906V166.968C110.213 167.736 110.351 168.312 110.627 168.696C110.903 169.08 111.347 169.272 111.959 169.272C112.259 169.272 112.595 169.236 112.967 169.164C113.351 169.08 113.765 168.954 114.209 168.786L114.803 170.532C114.263 170.748 113.753 170.91 113.273 171.018C112.793 171.126 112.319 171.18 111.851 171.18C110.651 171.18 109.733 170.796 109.097 170.028C108.461 169.26 108.143 168.24 108.143 166.968V165.906C108.143 164.622 108.461 163.602 109.097 162.846C109.733 162.078 110.651 161.694 111.851 161.694C112.307 161.694 112.769 161.748 113.237 161.856C113.705 161.964 114.197 162.12 114.713 162.324L114.119 164.106C113.255 163.77 112.535 163.602 111.959 163.602C111.347 163.602 110.903 163.794 110.627 164.178C110.351 164.55 110.213 165.126 110.213 165.906ZM122.152 171L119.902 167.202C119.542 167.562 119.164 167.922 118.768 168.282V171H116.698V157.68H118.768V165.996C119.452 165.3 120.04 164.634 120.532 163.998C121.036 163.35 121.498 162.642 121.918 161.874H124.294C123.898 162.594 123.466 163.278 122.998 163.926C122.53 164.574 122.014 165.228 121.45 165.888L124.654 171H122.152ZM132.944 170.478C132.32 170.73 131.732 170.91 131.18 171.018C130.628 171.126 130.106 171.18 129.614 171.18C128.258 171.18 127.232 170.796 126.536 170.028C125.84 169.26 125.492 168.24 125.492 166.968V165.888C125.492 165.036 125.648 164.298 125.96 163.674C126.272 163.05 126.716 162.564 127.292 162.216C127.868 161.868 128.546 161.694 129.326 161.694C129.962 161.694 130.556 161.826 131.108 162.09C131.672 162.342 132.128 162.744 132.476 163.296C132.836 163.836 133.016 164.532 133.016 165.384C133.016 165.636 132.998 165.906 132.962 166.194C132.926 166.47 132.866 166.764 132.782 167.076H127.49C127.514 167.82 127.7 168.378 128.048 168.75C128.396 169.122 128.954 169.308 129.722 169.308C130.13 169.308 130.55 169.26 130.982 169.164C131.426 169.068 131.882 168.924 132.35 168.732L132.944 170.478ZM129.326 163.44C128.774 163.44 128.342 163.62 128.03 163.98C127.73 164.328 127.556 164.832 127.508 165.492H130.964C130.976 165.432 130.982 165.378 130.982 165.33C130.982 165.27 130.982 165.216 130.982 165.168C130.982 164.592 130.82 164.16 130.496 163.872C130.172 163.584 129.782 163.44 129.326 163.44ZM140.549 163.764C139.985 163.764 139.445 163.854 138.929 164.034C138.425 164.202 137.939 164.478 137.471 164.862V171H135.401V161.874H137.363V163.278C137.975 162.702 138.521 162.294 139.001 162.054C139.481 161.814 139.997 161.694 140.549 161.694V163.764Z" fill="white"/>
<path d="M153.187 95.2118C151.509 94.1057 149.447 93.4459 147.232 93.4459C146.978 93.4459 146.726 93.4541 146.477 93.4706L146.509 93.4678C145.288 93.4706 144.095 93.5801 142.934 93.7827L143.06 93.7635C142.416 90.0483 140.253 86.9327 137.25 85.0272L137.198 84.9971L136.024 84.3181L135.252 85.4351C134.332 86.8369 133.612 88.4686 133.182 90.2126L133.16 90.3194C132.916 91.2064 132.777 92.2249 132.777 93.2762C132.777 95.5513 133.434 97.6704 134.567 99.4581L134.54 99.4116C132.796 100.23 130.759 100.748 128.615 100.846H128.579H74.5653C73.1526 100.849 72.0082 101.991 72.0027 103.401C72 103.554 72 103.737 72 103.921C72 108.715 72.8679 113.306 74.4558 117.547L74.3682 117.279C75.8959 121.749 78.7815 125.423 82.5269 127.904L82.6035 127.95C87.3783 130.423 93.0291 131.871 99.0167 131.871C99.5834 131.871 100.145 131.857 100.706 131.833L100.626 131.835C100.676 131.835 100.733 131.835 100.791 131.835C104.273 131.835 107.676 131.504 110.975 130.872L110.639 130.926C115.553 130.007 119.933 128.356 123.903 126.072L123.701 126.179C127.142 124.167 130.083 121.741 132.585 118.918L132.618 118.88C136.245 114.609 139.197 109.624 141.228 104.192L141.34 103.85H142.096C142.247 103.855 142.422 103.861 142.597 103.861C145.954 103.861 149.004 102.544 151.257 100.397L151.251 100.403C152.283 99.4226 153.102 98.2316 153.641 96.8956L153.666 96.8299L154 95.847L153.187 95.2118ZM79.57 99.2692H86.8143C87.162 99.2665 87.444 98.9845 87.444 98.6368V92.1893C87.444 91.8416 87.162 91.5568 86.8143 91.5541H79.57C79.2223 91.5568 78.9403 91.8388 78.9403 92.1865V98.6368C78.9403 98.9845 79.2223 99.2692 79.57 99.2692ZM89.5466 99.2692H96.7854C97.1331 99.2692 97.4178 98.9872 97.4178 98.6368V92.1893C97.4178 91.8416 97.1358 91.5568 96.7881 91.5541H89.5439C89.1934 91.5541 88.9087 91.8388 88.9087 92.1893V98.6368C88.9114 98.9872 89.1962 99.2692 89.5466 99.2692ZM99.671 99.2692H106.915C107.263 99.2665 107.545 98.9845 107.545 98.6368V92.1893C107.545 91.8416 107.263 91.5568 106.915 91.5541H99.671C99.3233 91.5568 99.0413 91.8388 99.0413 92.1865V98.6368C99.0413 98.9845 99.3233 99.2692 99.6737 99.2692H99.671ZM109.68 99.2692H116.916C117.267 99.2692 117.549 98.9872 117.552 98.6368V92.1893C117.552 91.8388 117.267 91.5541 116.916 91.5541H109.68C109.333 91.5541 109.048 91.8361 109.048 92.1865V98.6368C109.048 98.9845 109.33 99.2692 109.678 99.2692C109.678 99.2692 109.678 99.2692 109.68 99.2692ZM89.5466 89.9936H96.7854C97.1358 89.9908 97.4178 89.7088 97.4178 89.3584V82.9109C97.4178 82.5632 97.1358 82.2784 96.7854 82.2784H89.5466C89.1962 82.2784 88.9142 82.5604 88.9114 82.9109V89.3584C88.9142 89.7088 89.1962 89.9908 89.5466 89.9936ZM99.671 89.9936H106.915C107.263 89.9908 107.545 89.7061 107.545 89.3584V82.9109C107.545 82.5632 107.263 82.2784 106.912 82.2784H99.6765C99.3288 82.2784 99.044 82.5604 99.044 82.9109V89.3584C99.0468 89.7088 99.326 89.9908 99.6765 89.9936H99.671ZM109.68 89.9936H116.916C117.267 89.9908 117.549 89.7088 117.552 89.3584V82.9109C117.549 82.5604 117.267 82.2784 116.916 82.2784H109.68C109.333 82.2784 109.048 82.5604 109.048 82.9109V89.3584C109.048 89.7088 109.33 89.9908 109.68 89.9936ZM109.68 80.7179H116.916C117.267 80.7179 117.552 80.4331 117.552 80.0827V73.6324C117.549 73.282 117.267 73 116.916 73H109.68C109.333 73 109.048 73.282 109.048 73.6324V80.0827C109.048 80.4304 109.33 80.7151 109.678 80.7151C109.678 80.7151 109.678 80.7151 109.68 80.7151V80.7179ZM119.775 99.2692H127.013C127.364 99.2692 127.646 98.9872 127.649 98.6368V92.1893C127.649 91.8388 127.364 91.5541 127.013 91.5541H119.775C119.424 91.5541 119.142 91.8361 119.142 92.1865V98.6368C119.142 98.9845 119.424 99.2692 119.775 99.2692Z" fill="white"/>
<defs>
<filter id="filter0_b_734_21" x="3.30276" y="3.30175" width="219.668" height="219.67" filterUnits="userSpaceOnUse" color-interpolation-filters="sRGB">
<feFlood flood-opacity="0" result="BackgroundImageFix"/>
<feGaussianBlur in="BackgroundImageFix" stdDeviation="2.4912"/>
<feComposite in2="SourceAlpha" operator="in" result="effect1_backgroundBlur_734_21"/>
<feBlend mode="normal" in="SourceGraphic" in2="effect1_backgroundBlur_734_21" result="shape"/>
</filter>
</defs>
</svg>
