<svg width="227" height="227" viewBox="0 0 227 227" fill="none" xmlns="http://www.w3.org/2000/svg">
<g filter="url(#filter0_b_734_19)">
<rect y="113.137" width="160" height="160" rx="20" transform="rotate(-45 0 113.137)" fill="white" fill-opacity="0.3"/>
<rect x="2.47487" y="113.137" width="156.5" height="156.5" rx="18.25" transform="rotate(-45 2.47487 113.137)" stroke="white" stroke-width="3.5"/>
</g>
<path d="M107.824 170.208C107.524 170.388 107.026 170.598 106.33 170.838C105.646 171.066 104.842 171.18 103.918 171.18C102.874 171.18 101.998 170.964 101.29 170.532C100.594 170.1 100.066 169.506 99.7056 168.75C99.3456 167.994 99.1656 167.13 99.1656 166.158V163.584C99.1656 162.588 99.3456 161.718 99.7056 160.974C100.066 160.218 100.6 159.63 101.308 159.21C102.028 158.79 102.928 158.58 104.008 158.58C104.536 158.58 105.082 158.64 105.646 158.76C106.21 158.868 106.828 159.072 107.5 159.372L106.834 161.262C106.246 161.034 105.736 160.872 105.304 160.776C104.884 160.668 104.464 160.614 104.044 160.614C103.108 160.614 102.43 160.884 102.01 161.424C101.59 161.952 101.38 162.672 101.38 163.584V166.158C101.38 167.022 101.59 167.73 102.01 168.282C102.442 168.834 103.114 169.11 104.026 169.11C104.302 169.11 104.602 169.086 104.926 169.038C105.25 168.99 105.562 168.924 105.862 168.84V166.158H103.882V164.268H107.824V170.208ZM112.225 166.158C112.225 167.034 112.417 167.754 112.801 168.318C113.185 168.87 113.815 169.146 114.691 169.146C115.051 169.146 115.423 169.098 115.807 169.002C116.203 168.906 116.689 168.744 117.265 168.516L117.931 170.388C117.283 170.676 116.683 170.88 116.131 171C115.591 171.12 115.069 171.18 114.565 171.18C113.557 171.18 112.711 170.964 112.027 170.532C111.355 170.1 110.851 169.506 110.515 168.75C110.179 167.994 110.011 167.13 110.011 166.158V163.584C110.011 162.612 110.179 161.748 110.515 160.992C110.851 160.236 111.355 159.648 112.027 159.228C112.711 158.796 113.557 158.58 114.565 158.58C115.057 158.58 115.567 158.64 116.095 158.76C116.623 158.868 117.199 159.06 117.823 159.336L117.157 161.244C116.605 161.016 116.143 160.854 115.771 160.758C115.399 160.662 115.039 160.614 114.691 160.614C113.815 160.614 113.185 160.89 112.801 161.442C112.417 161.994 112.225 162.708 112.225 163.584V166.158ZM120.185 171V158.76H124.217C125.501 158.76 126.461 159.084 127.097 159.732C127.745 160.38 128.069 161.244 128.069 162.324V163.278C128.069 164.358 127.745 165.228 127.097 165.888C126.461 166.536 125.501 166.86 124.217 166.86H122.345V171H120.185ZM124.217 160.83H122.345V164.79H124.217C124.745 164.79 125.147 164.658 125.423 164.394C125.711 164.13 125.855 163.758 125.855 163.278V162.324C125.855 161.856 125.711 161.49 125.423 161.226C125.147 160.962 124.745 160.83 124.217 160.83Z" fill="white"/>
<path fill-rule="evenodd" clip-rule="evenodd" d="M134.949 70.4951L134.937 70.4777C130.567 66.6679 125.306 64.0232 119.641 62.7891C113.977 61.555 108.092 61.7713 102.533 63.418C96.9886 65.0932 91.9606 68.1506 87.922 72.3029C83.8833 76.4551 80.9667 81.566 79.446 87.1552C76.2954 89.3514 73.7078 92.2604 71.8937 95.6454C70.0795 99.0304 69.0901 102.796 69.0059 106.635C68.9216 110.475 69.745 114.28 71.4089 117.742C73.0729 121.203 75.5304 124.222 78.5816 126.555C82.8482 129.804 88.0571 131.576 93.4203 131.601H131.242C136.505 131.651 141.645 130.009 145.904 126.916C150.163 123.824 153.316 119.445 154.898 114.425C156.46 109.41 156.359 104.025 154.611 99.0726C152.864 94.1197 149.562 89.8643 145.199 86.9406C143.458 80.577 139.895 74.8608 134.949 70.4951ZM89.5395 115.626C90.7577 116.177 92.0803 116.554 93.4261 116.554L131.236 116.566C136.457 116.566 140.692 112.36 140.692 107.174C140.692 101.988 136.457 97.7824 131.236 97.7824V95.9087C131.289 93.0735 130.696 90.2634 129.503 87.6908C128.31 85.1182 126.548 82.8503 124.351 81.0585H124.339C116.572 74.8052 105.167 75.7681 98.438 83.112L98.3568 83.199C104.134 84.3592 109.361 87.5555 113.004 92.2948L102.046 103.189C101.201 101.329 99.7765 99.7924 97.9854 98.8097C96.1943 97.8271 94.1331 97.451 92.1103 97.7377C90.0876 98.0244 88.2121 98.9586 86.7646 100.4C85.3172 101.842 84.3756 103.714 84.0809 105.735C83.7944 107.753 84.1727 109.809 85.1586 111.592C86.1445 113.376 87.6844 114.79 89.5453 115.62L89.5395 115.626Z" fill="white"/>
<defs>
<filter id="filter0_b_734_19" x="3.30276" y="3.30175" width="219.668" height="219.67" filterUnits="userSpaceOnUse" color-interpolation-filters="sRGB">
<feFlood flood-opacity="0" result="BackgroundImageFix"/>
<feGaussianBlur in="BackgroundImageFix" stdDeviation="2.4912"/>
<feComposite in2="SourceAlpha" operator="in" result="effect1_backgroundBlur_734_19"/>
<feBlend mode="normal" in="SourceGraphic" in2="effect1_backgroundBlur_734_19" result="shape"/>
</filter>
</defs>
</svg>
