<svg width="227" height="227" viewBox="0 0 227 227" fill="none" xmlns="http://www.w3.org/2000/svg">
<g filter="url(#filter0_b_734_5)">
<rect y="113.137" width="160" height="160" rx="20" transform="rotate(-45 0 113.137)" fill="white" fill-opacity="0.3"/>
<rect x="2.47487" y="113.137" width="156.5" height="156.5" rx="18.25" transform="rotate(-45 2.47487 113.137)" stroke="white" stroke-width="3.5"/>
</g>
<path d="M97.4965 170.208C97.1965 170.388 96.6985 170.598 96.0025 170.838C95.3185 171.066 94.5145 171.18 93.5905 171.18C92.5465 171.18 91.6705 170.964 90.9625 170.532C90.2665 170.1 89.7385 169.506 89.3785 168.75C89.0185 167.994 88.8385 167.13 88.8385 166.158V163.584C88.8385 162.588 89.0185 161.718 89.3785 160.974C89.7385 160.218 90.2725 159.63 90.9805 159.21C91.7005 158.79 92.6005 158.58 93.6805 158.58C94.2085 158.58 94.7545 158.64 95.3185 158.76C95.8825 158.868 96.5005 159.072 97.1725 159.372L96.5065 161.262C95.9185 161.034 95.4085 160.872 94.9765 160.776C94.5565 160.668 94.1365 160.614 93.7165 160.614C92.7805 160.614 92.1025 160.884 91.6825 161.424C91.2625 161.952 91.0525 162.672 91.0525 163.584V166.158C91.0525 167.022 91.2625 167.73 91.6825 168.282C92.1145 168.834 92.7865 169.11 93.6985 169.11C93.9745 169.11 94.2745 169.086 94.5985 169.038C94.9225 168.99 95.2345 168.924 95.5345 168.84V166.158H93.5545V164.268H97.4965V170.208ZM105.12 163.764C104.556 163.764 104.016 163.854 103.5 164.034C102.996 164.202 102.51 164.478 102.042 164.862V171H99.9722V161.874H101.934V163.278C102.546 162.702 103.092 162.294 103.572 162.054C104.052 161.814 104.568 161.694 105.12 161.694V163.764ZM113.845 171.09C113.233 171.09 112.741 170.964 112.369 170.712C112.009 170.46 111.745 170.148 111.577 169.776C111.061 170.256 110.563 170.61 110.083 170.838C109.603 171.066 109.087 171.18 108.535 171.18C107.731 171.18 107.137 170.922 106.753 170.406C106.381 169.89 106.195 169.236 106.195 168.444C106.195 167.916 106.291 167.454 106.483 167.058C106.687 166.65 107.017 166.332 107.473 166.104C107.929 165.876 108.553 165.762 109.345 165.762C109.657 165.762 109.981 165.786 110.317 165.834C110.653 165.87 110.989 165.918 111.325 165.978V164.916C111.325 164.412 111.187 164.07 110.911 163.89C110.635 163.698 110.263 163.602 109.795 163.602C109.435 163.602 109.039 163.65 108.607 163.746C108.187 163.842 107.731 163.992 107.239 164.196L106.645 162.432C107.857 161.94 108.955 161.694 109.939 161.694C110.827 161.694 111.511 161.844 111.991 162.144C112.483 162.444 112.825 162.84 113.017 163.332C113.209 163.824 113.305 164.352 113.305 164.916V168.426C113.305 168.606 113.353 168.78 113.449 168.948C113.557 169.104 113.761 169.182 114.061 169.182H114.259V171.09H113.845ZM108.193 168.408C108.193 168.732 108.265 168.99 108.409 169.182C108.553 169.362 108.763 169.452 109.039 169.452C109.315 169.452 109.627 169.38 109.975 169.236C110.323 169.092 110.773 168.756 111.325 168.228V167.454C110.701 167.346 110.089 167.292 109.489 167.292C109.021 167.292 108.685 167.388 108.481 167.58C108.289 167.772 108.193 168.048 108.193 168.408ZM121.402 171V169.758C120.85 170.31 120.37 170.688 119.962 170.892C119.566 171.084 119.152 171.18 118.72 171.18C117.736 171.18 116.968 170.808 116.416 170.064C115.876 169.32 115.606 168.276 115.606 166.932V165.96C115.606 164.652 115.936 163.614 116.596 162.846C117.256 162.078 118.21 161.694 119.458 161.694C119.77 161.694 120.076 161.724 120.376 161.784C120.688 161.844 120.994 161.928 121.294 162.036V157.68H123.364V171H121.402ZM117.73 166.932C117.73 167.736 117.862 168.324 118.126 168.696C118.402 169.068 118.786 169.254 119.278 169.254C119.554 169.254 119.848 169.176 120.16 169.02C120.472 168.852 120.85 168.54 121.294 168.084V163.908C120.706 163.668 120.166 163.548 119.674 163.548C118.978 163.548 118.48 163.764 118.18 164.196C117.88 164.628 117.73 165.216 117.73 165.96V166.932ZM126.162 168.426V157.68H128.232V168.426C128.232 168.606 128.274 168.78 128.358 168.948C128.454 169.104 128.634 169.182 128.898 169.182H129.186V171.09H128.682C127.998 171.09 127.476 170.958 127.116 170.694C126.756 170.43 126.504 170.094 126.36 169.686C126.228 169.278 126.162 168.858 126.162 168.426ZM138.121 170.478C137.497 170.73 136.909 170.91 136.357 171.018C135.805 171.126 135.283 171.18 134.791 171.18C133.435 171.18 132.409 170.796 131.713 170.028C131.017 169.26 130.669 168.24 130.669 166.968V165.888C130.669 165.036 130.825 164.298 131.137 163.674C131.449 163.05 131.893 162.564 132.469 162.216C133.045 161.868 133.723 161.694 134.503 161.694C135.139 161.694 135.733 161.826 136.285 162.09C136.849 162.342 137.305 162.744 137.653 163.296C138.013 163.836 138.193 164.532 138.193 165.384C138.193 165.636 138.175 165.906 138.139 166.194C138.103 166.47 138.043 166.764 137.959 167.076H132.667C132.691 167.82 132.877 168.378 133.225 168.75C133.573 169.122 134.131 169.308 134.899 169.308C135.307 169.308 135.727 169.26 136.159 169.164C136.603 169.068 137.059 168.924 137.527 168.732L138.121 170.478ZM134.503 163.44C133.951 163.44 133.519 163.62 133.207 163.98C132.907 164.328 132.733 164.832 132.685 165.492H136.141C136.153 165.432 136.159 165.378 136.159 165.33C136.159 165.27 136.159 165.216 136.159 165.168C136.159 164.592 135.997 164.16 135.673 163.872C135.349 163.584 134.959 163.44 134.503 163.44Z" fill="white"/>
<path d="M151.902 73.0733C146.606 67.7746 138.063 67.6268 132.586 72.7393C132.323 72.9872 132.17 73.3297 132.161 73.6909C132.163 74.0505 132.305 74.3954 132.556 74.6526L134.287 76.4445C134.754 76.9093 135.491 76.9611 136.018 76.566C137.391 75.5297 139.066 74.9714 140.786 74.9766C144.014 74.9625 146.931 76.8998 148.169 79.8806C149.408 82.8615 148.723 86.2952 146.435 88.5726C135.401 99.6074 120.671 68.6898 87.2425 84.594C86.0928 85.1315 85.2202 86.125 84.8356 87.3345C84.451 88.5439 84.5896 89.8591 85.2178 90.9618L90.9478 100.873C92.1918 103.019 94.9263 103.771 97.0928 102.563L97.2345 102.482L97.1232 102.563L99.6642 101.136C102.496 99.3776 105.172 97.3793 107.662 95.1631C108.189 94.7109 108.967 94.7109 109.494 95.1631C109.805 95.4072 109.988 95.78 109.99 96.1755C109.998 96.5598 109.839 96.9287 109.555 97.1878C106.932 99.5158 104.111 101.609 101.122 103.444H101.041L98.5 104.862C97.4259 105.47 96.2115 105.788 94.977 105.783C92.3822 105.783 89.9817 104.407 88.67 102.169L83.2538 92.8043C72.8467 100.154 66.5296 114.317 69.921 132.286C70.0453 132.905 70.5856 133.353 71.2168 133.36H77.3922C78.0564 133.36 78.6164 132.865 78.6982 132.205C79.2675 127.685 83.1117 124.295 87.6677 124.295C92.2238 124.295 96.0679 127.685 96.6372 132.205C96.7237 132.866 97.287 133.36 97.9533 133.36H103.967C104.631 133.36 105.191 132.865 105.273 132.205C105.86 127.697 109.701 124.325 114.247 124.325C118.794 124.325 122.634 127.697 123.222 132.205C123.304 132.865 123.864 133.36 124.528 133.36H130.47C131.189 133.36 131.775 132.783 131.786 132.064C131.928 123.691 134.186 114.074 140.624 109.255C162.927 92.5714 157.065 78.2668 151.902 73.0733ZM129.154 98.3115L124.902 96.1755C124.898 94.9136 125.776 93.8204 127.01 93.5534C128.243 93.2864 129.495 93.9184 130.012 95.0692C130.53 96.22 130.172 97.576 129.154 98.3217V98.3115Z" fill="white"/>
<defs>
<filter id="filter0_b_734_5" x="3.30276" y="3.30175" width="219.67" height="219.67" filterUnits="userSpaceOnUse" color-interpolation-filters="sRGB">
<feFlood flood-opacity="0" result="BackgroundImageFix"/>
<feGaussianBlur in="BackgroundImageFix" stdDeviation="2.4912"/>
<feComposite in2="SourceAlpha" operator="in" result="effect1_backgroundBlur_734_5"/>
<feBlend mode="normal" in="SourceGraphic" in2="effect1_backgroundBlur_734_5" result="shape"/>
</filter>
</defs>
</svg>
