<svg width="227" height="227" viewBox="0 0 227 227" fill="none" xmlns="http://www.w3.org/2000/svg">
<g filter="url(#filter0_b_663_16)">
<rect y="113.137" width="160" height="160" transform="rotate(-45 0 113.137)" fill="white" fill-opacity="0.3"/>
<rect x="2.47487" y="113.137" width="156.5" height="156.5" transform="rotate(-45 2.47487 113.137)" stroke="white" stroke-width="3.5"/>
</g>
<path d="M97.3506 168V162.26H92.2706V168H89.8706V154.4H92.2706V159.96H97.3506V154.4H99.7506V168H97.3506ZM101.883 156.7V154.4H111.883V156.7H108.083V168H105.683V156.7H101.883ZM116.651 154.4L120.451 163.7L124.231 154.4H126.851V168H124.551V162.8L124.851 158.04L121.471 166.4H119.331L116.031 158.02L116.331 162.8V168H114.031V154.4H116.651ZM138.453 165.7V168H130.613V154.4H133.013V165.7H138.453Z" fill="white"/>
<path fill-rule="evenodd" clip-rule="evenodd" d="M131.523 87.405H131.498H101.342L102.063 94.2067H130.805C130.384 100.165 129.109 112.788 128.642 118.532L112.498 122.948V122.961L112.463 122.978L96.3082 117.455L95.2015 104.409H103.12L103.68 111.425L112.477 114.612H112.498L121.28 111.551L122.184 101.008H94.8481C94.716 99.6446 93.0167 81.9365 92.7203 80.6034H132.23C132.008 82.8479 131.783 85.1537 131.523 87.405ZM81 67L86.7334 128.718L112.463 135.017L138.259 128.592L144 67H81Z" fill="white"/>
<defs>
<filter id="filter0_b_663_16" x="-4.9824" y="-4.98252" width="236.238" height="236.239" filterUnits="userSpaceOnUse" color-interpolation-filters="sRGB">
<feFlood flood-opacity="0" result="BackgroundImageFix"/>
<feGaussianBlur in="BackgroundImageFix" stdDeviation="2.4912"/>
<feComposite in2="SourceAlpha" operator="in" result="effect1_backgroundBlur_663_16"/>
<feBlend mode="normal" in="SourceGraphic" in2="effect1_backgroundBlur_663_16" result="shape"/>
</filter>
</defs>
</svg>
