<svg width="227" height="227" viewBox="0 0 227 227" fill="none" xmlns="http://www.w3.org/2000/svg">
<g filter="url(#filter0_b_734_2)">
<rect y="113.137" width="160" height="160" transform="rotate(-45 0 113.137)" fill="white" fill-opacity="0.3"/>
<rect x="2.47487" y="113.137" width="156.5" height="156.5" transform="rotate(-45 2.47487 113.137)" stroke="white" stroke-width="3.5"/>
</g>
<path d="M95.2098 168.2V165.9C96.2898 165.9 97.0698 165.7 97.5498 165.3C98.0431 164.887 98.2898 164.16 98.2898 163.12V154.4H100.69V163.12C100.69 164.16 100.53 165.06 100.21 165.82C99.8898 166.58 99.3298 167.167 98.5298 167.58C97.7431 167.993 96.6365 168.2 95.2098 168.2ZM111.469 168.1C110.789 168.1 110.243 167.96 109.829 167.68C109.429 167.4 109.136 167.053 108.949 166.64C108.376 167.173 107.823 167.567 107.289 167.82C106.756 168.073 106.183 168.2 105.569 168.2C104.676 168.2 104.016 167.913 103.589 167.34C103.176 166.767 102.969 166.04 102.969 165.16C102.969 164.573 103.076 164.06 103.289 163.62C103.516 163.167 103.883 162.813 104.389 162.56C104.896 162.307 105.589 162.18 106.469 162.18C106.816 162.18 107.176 162.207 107.549 162.26C107.923 162.3 108.296 162.353 108.669 162.42V161.24C108.669 160.68 108.516 160.3 108.209 160.1C107.903 159.887 107.489 159.78 106.969 159.78C106.569 159.78 106.129 159.833 105.649 159.94C105.183 160.047 104.676 160.213 104.129 160.44L103.469 158.48C104.816 157.933 106.036 157.66 107.129 157.66C108.116 157.66 108.876 157.827 109.409 158.16C109.956 158.493 110.336 158.933 110.549 159.48C110.763 160.027 110.869 160.613 110.869 161.24V165.14C110.869 165.34 110.923 165.533 111.029 165.72C111.149 165.893 111.376 165.98 111.709 165.98H111.929V168.1H111.469ZM105.189 165.12C105.189 165.48 105.269 165.767 105.429 165.98C105.589 166.18 105.823 166.28 106.129 166.28C106.436 166.28 106.783 166.2 107.169 166.04C107.556 165.88 108.056 165.507 108.669 164.92V164.06C107.976 163.94 107.296 163.88 106.629 163.88C106.109 163.88 105.736 163.987 105.509 164.2C105.296 164.413 105.189 164.72 105.189 165.12ZM121.693 157.86L118.093 168H115.993L112.393 157.86H114.713L116.453 162.92L117.113 165.02L117.753 162.92L119.413 157.86H121.693ZM131.294 168.1C130.614 168.1 130.067 167.96 129.654 167.68C129.254 167.4 128.96 167.053 128.774 166.64C128.2 167.173 127.647 167.567 127.114 167.82C126.58 168.073 126.007 168.2 125.394 168.2C124.5 168.2 123.84 167.913 123.414 167.34C123 166.767 122.794 166.04 122.794 165.16C122.794 164.573 122.9 164.06 123.114 163.62C123.34 163.167 123.707 162.813 124.214 162.56C124.72 162.307 125.414 162.18 126.294 162.18C126.64 162.18 127 162.207 127.374 162.26C127.747 162.3 128.12 162.353 128.494 162.42V161.24C128.494 160.68 128.34 160.3 128.034 160.1C127.727 159.887 127.314 159.78 126.794 159.78C126.394 159.78 125.954 159.833 125.474 159.94C125.007 160.047 124.5 160.213 123.954 160.44L123.294 158.48C124.64 157.933 125.86 157.66 126.954 157.66C127.94 157.66 128.7 157.827 129.234 158.16C129.78 158.493 130.16 158.933 130.374 159.48C130.587 160.027 130.694 160.613 130.694 161.24V165.14C130.694 165.34 130.747 165.533 130.854 165.72C130.974 165.893 131.2 165.98 131.534 165.98H131.754V168.1H131.294ZM125.014 165.12C125.014 165.48 125.094 165.767 125.254 165.98C125.414 166.18 125.647 166.28 125.954 166.28C126.26 166.28 126.607 166.2 126.994 166.04C127.38 165.88 127.88 165.507 128.494 164.92V164.06C127.8 163.94 127.12 163.88 126.454 163.88C125.934 163.88 125.56 163.987 125.334 164.2C125.12 164.413 125.014 164.72 125.014 165.12Z" fill="white"/>
<path d="M102.802 85.1448C102.026 83.4273 101.677 81.424 102.271 79.6041C102.864 77.7435 104.193 76.2511 105.522 74.8606C109.222 71.1596 113.782 68.4404 117.401 64.6787C119.405 62.6134 121.06 60.1395 121.633 57.2973C122.103 55.212 121.878 53.0653 121.449 51C123.371 53.1878 124.005 56.316 123.453 59.1377C122.86 62.3066 121.101 65.1076 119.036 67.5201C117.38 69.4628 115.479 71.1802 113.496 72.7753C111.185 74.6359 108.916 76.6394 107.465 79.2566C106.237 81.3826 105.951 83.9998 106.79 86.3103C108.16 90.2765 111.349 93.2209 113.087 96.9623C111.165 95.2651 109.284 93.5069 107.525 91.6466C105.686 89.6837 103.948 87.5986 102.802 85.1448ZM113.23 82.0368C112.882 85.2879 114.579 88.3547 116.604 90.7675C117.584 91.851 118.423 93.18 118.463 94.6932C118.505 96.7165 117.36 98.5983 115.887 99.9267C116.235 99.8863 116.48 99.5793 116.767 99.4158C118.975 98.005 121.101 96.2262 122.184 93.7937C122.9 92.1374 122.737 90.1743 121.796 88.6406C120.692 86.8415 119.241 85.2467 118.382 83.2841C117.911 82.1801 117.748 80.8921 118.136 79.7267C118.648 78.1526 119.752 76.8643 120.917 75.7397C124.127 72.6937 128.012 70.5256 131.733 68.1543C127.03 69.5035 122.389 71.3643 118.423 74.2883C115.908 76.1693 113.578 78.7861 113.23 82.0368ZM135.577 97.4124C137.806 97.5352 139.993 99.1706 140.402 101.42C140.791 103.362 139.851 105.284 138.644 106.756C136.66 109.127 133.982 110.825 131.284 112.277C131.017 112.439 130.793 112.644 130.588 112.869C134.146 111.969 137.703 110.621 140.586 108.31C142.18 106.981 143.591 105.222 143.898 103.116C144.185 101.297 143.429 99.4157 142.079 98.2095C140.443 96.7164 138.133 96.1648 135.965 96.4513C134.718 96.6147 133.348 96.8805 132.49 97.9232C133.513 97.7194 134.514 97.31 135.577 97.4124ZM91.1895 103.259C93.8675 103.975 96.6279 104.18 99.3676 104.364C101.821 104.527 104.275 104.568 106.749 104.548C113.128 104.446 119.548 104.016 125.804 102.626C126.396 102.483 127.051 102.381 127.583 102.013C128.626 101.338 129.77 100.806 130.895 100.274C125.804 101.092 120.692 101.788 115.54 102.115C110.327 102.442 105.072 102.647 99.838 102.299C98.3456 102.156 96.8118 102.074 95.4217 101.501C95.0942 101.358 94.6443 101.073 94.8077 100.643C95.1147 100.09 95.7281 99.825 96.2596 99.5387C98.509 98.4755 100.962 97.8828 103.355 97.1876C99.2446 97.1259 95.1553 98.1684 91.394 99.784C90.5555 100.193 89.6151 100.52 88.9406 101.215C88.6742 101.501 88.6742 101.993 88.9812 102.237C89.5947 102.789 90.4121 103.035 91.1895 103.259ZM124.312 108.882C120.734 109.516 117.135 110.11 113.516 110.293C109.549 110.559 105.583 110.334 101.657 109.925C100.901 109.823 100.144 109.7 99.4699 109.353C99.1223 109.148 98.7749 108.821 98.7955 108.391C98.836 107.717 99.4082 107.247 99.8175 106.756C98.5502 107.206 97.2823 107.676 96.2192 108.515C95.7688 108.863 95.3194 109.414 95.4417 110.027C95.6265 110.743 96.3215 111.172 96.9349 111.499C98.4474 112.277 100.145 112.624 101.801 112.931C105.992 113.606 110.265 113.626 114.477 113.339C118.935 112.992 123.371 112.256 127.685 110.988C126.458 110.437 125.293 109.802 124.312 108.882ZM101.842 115.957C100.697 116.284 99.531 116.673 98.5908 117.429C98.1197 117.797 97.7522 118.431 97.9774 119.024C98.2638 119.78 98.9794 120.231 99.6534 120.618C101.412 121.58 103.395 122.029 105.337 122.377C109.734 123.072 114.252 122.97 118.628 122.193C121.224 121.702 123.821 121.007 126.233 119.924C124.659 119.269 123.126 118.533 121.654 117.675C119.098 118.124 116.521 118.595 113.904 118.758C110.449 119.024 106.953 118.738 103.497 118.309C102.679 118.125 101.657 118.043 101.105 117.327C100.82 116.734 101.474 116.304 101.842 115.957ZM129.811 129.103C132.674 128.511 135.557 127.835 138.174 126.507C138.991 126.036 139.993 125.525 140.259 124.544C140.402 123.604 139.421 123.113 138.726 122.724C139.155 123.216 139.441 123.931 139.012 124.503C138.296 125.464 137.07 125.832 135.986 126.2C132.592 127.161 129.075 127.55 125.579 127.938C116.317 128.776 106.994 128.981 97.7322 128.204C94.6244 127.877 91.4546 127.529 88.4902 126.425C88.0204 126.221 87.3047 126.016 87.3047 125.382C87.4882 124.831 88.0204 124.523 88.4902 124.258C90.6166 123.174 92.9883 122.581 95.3599 122.438C94.6654 122.029 93.8474 121.988 93.0501 122.009C91.0665 122.07 89.1243 122.581 87.2436 123.216C85.6283 123.808 83.9722 124.462 82.6837 125.649C82.1727 126.098 81.7029 126.956 82.2338 127.57C83.0518 128.45 84.3198 128.674 85.4435 128.94C91.7409 130.024 98.1197 130.636 104.5 130.862C112.964 131.108 121.49 130.739 129.811 129.103ZM138.194 130.208C134.35 131.434 130.364 132.109 126.397 132.661C119.548 133.52 112.637 133.786 105.746 133.582C101.555 133.418 97.3641 133.132 93.2336 132.436C94.1945 133.09 95.3806 133.295 96.485 133.602C101.126 134.583 105.89 134.767 110.613 134.91C117.543 135.033 124.475 134.767 131.304 133.683C134.535 133.112 137.785 132.416 140.688 130.903C142.202 130.106 143.735 128.878 144 127.1C142.467 128.735 140.259 129.492 138.194 130.208Z" fill="white"/>
<defs>
<filter id="filter0_b_734_2" x="-4.9824" y="-4.98252" width="236.238" height="236.239" filterUnits="userSpaceOnUse" color-interpolation-filters="sRGB">
<feFlood flood-opacity="0" result="BackgroundImageFix"/>
<feGaussianBlur in="BackgroundImageFix" stdDeviation="2.4912"/>
<feComposite in2="SourceAlpha" operator="in" result="effect1_backgroundBlur_734_2"/>
<feBlend mode="normal" in="SourceGraphic" in2="effect1_backgroundBlur_734_2" result="shape"/>
</filter>
</defs>
</svg>
