<svg width="227" height="227" viewBox="0 0 227 227" fill="none" xmlns="http://www.w3.org/2000/svg">
<g filter="url(#filter0_b_663_17)">
<rect y="113.137" width="160" height="160" rx="20" transform="rotate(-45 0 113.137)" fill="white" fill-opacity="0.3"/>
<rect x="2.47487" y="113.137" width="156.5" height="156.5" rx="18.25" transform="rotate(-45 2.47487 113.137)" stroke="white" stroke-width="3.5"/>
</g>
<path d="M73.7408 171.18V169.11C74.7128 169.11 75.4148 168.93 75.8468 168.57C76.2908 168.198 76.5128 167.544 76.5128 166.608V158.76H78.6728V166.608C78.6728 167.544 78.5288 168.354 78.2408 169.038C77.9528 169.722 77.4488 170.25 76.7288 170.622C76.0208 170.994 75.0248 171.18 73.7408 171.18ZM88.3744 171.09C87.7624 171.09 87.2704 170.964 86.8984 170.712C86.5384 170.46 86.2744 170.148 86.1064 169.776C85.5904 170.256 85.0924 170.61 84.6124 170.838C84.1324 171.066 83.6164 171.18 83.0644 171.18C82.2604 171.18 81.6664 170.922 81.2824 170.406C80.9104 169.89 80.7244 169.236 80.7244 168.444C80.7244 167.916 80.8204 167.454 81.0124 167.058C81.2164 166.65 81.5464 166.332 82.0024 166.104C82.4584 165.876 83.0824 165.762 83.8744 165.762C84.1864 165.762 84.5104 165.786 84.8464 165.834C85.1824 165.87 85.5184 165.918 85.8544 165.978V164.916C85.8544 164.412 85.7164 164.07 85.4404 163.89C85.1644 163.698 84.7924 163.602 84.3244 163.602C83.9644 163.602 83.5684 163.65 83.1364 163.746C82.7164 163.842 82.2604 163.992 81.7684 164.196L81.1744 162.432C82.3864 161.94 83.4844 161.694 84.4684 161.694C85.3564 161.694 86.0404 161.844 86.5204 162.144C87.0124 162.444 87.3544 162.84 87.5464 163.332C87.7384 163.824 87.8344 164.352 87.8344 164.916V168.426C87.8344 168.606 87.8824 168.78 87.9784 168.948C88.0864 169.104 88.2904 169.182 88.5904 169.182H88.7884V171.09H88.3744ZM82.7224 168.408C82.7224 168.732 82.7944 168.99 82.9384 169.182C83.0824 169.362 83.2924 169.452 83.5684 169.452C83.8444 169.452 84.1564 169.38 84.5044 169.236C84.8524 169.092 85.3024 168.756 85.8544 168.228V167.454C85.2304 167.346 84.6184 167.292 84.0184 167.292C83.5504 167.292 83.2144 167.388 83.0104 167.58C82.8184 167.772 82.7224 168.048 82.7224 168.408ZM97.5758 161.874L94.3358 171H92.4458L89.2058 161.874H91.2938L92.8598 166.428L93.4538 168.318L94.0298 166.428L95.5238 161.874H97.5758ZM106.216 171.09C105.604 171.09 105.112 170.964 104.74 170.712C104.38 170.46 104.116 170.148 103.948 169.776C103.432 170.256 102.934 170.61 102.454 170.838C101.974 171.066 101.458 171.18 100.906 171.18C100.102 171.18 99.5082 170.922 99.1242 170.406C98.7522 169.89 98.5662 169.236 98.5662 168.444C98.5662 167.916 98.6622 167.454 98.8542 167.058C99.0582 166.65 99.3882 166.332 99.8442 166.104C100.3 165.876 100.924 165.762 101.716 165.762C102.028 165.762 102.352 165.786 102.688 165.834C103.024 165.87 103.36 165.918 103.696 165.978V164.916C103.696 164.412 103.558 164.07 103.282 163.89C103.006 163.698 102.634 163.602 102.166 163.602C101.806 163.602 101.41 163.65 100.978 163.746C100.558 163.842 100.102 163.992 99.6102 164.196L99.0162 162.432C100.228 161.94 101.326 161.694 102.31 161.694C103.198 161.694 103.882 161.844 104.362 162.144C104.854 162.444 105.196 162.84 105.388 163.332C105.58 163.824 105.676 164.352 105.676 164.916V168.426C105.676 168.606 105.724 168.78 105.82 168.948C105.928 169.104 106.132 169.182 106.432 169.182H106.63V171.09H106.216ZM100.564 168.408C100.564 168.732 100.636 168.99 100.78 169.182C100.924 169.362 101.134 169.452 101.41 169.452C101.686 169.452 101.998 169.38 102.346 169.236C102.694 169.092 103.144 168.756 103.696 168.228V167.454C103.072 167.346 102.46 167.292 101.86 167.292C101.392 167.292 101.056 167.388 100.852 167.58C100.66 167.772 100.564 168.048 100.564 168.408ZM111.361 169.182C112.753 169.182 113.449 168.666 113.449 167.634C113.449 167.214 113.341 166.884 113.125 166.644C112.921 166.404 112.537 166.194 111.973 166.014L110.497 165.528C108.733 164.952 107.851 163.794 107.851 162.054C107.851 161.046 108.163 160.218 108.787 159.57C109.423 158.91 110.413 158.58 111.757 158.58C112.321 158.58 112.879 158.646 113.431 158.778C113.983 158.898 114.571 159.096 115.195 159.372L114.529 161.226C113.953 160.998 113.461 160.836 113.053 160.74C112.657 160.632 112.249 160.578 111.829 160.578C111.277 160.578 110.839 160.68 110.515 160.884C110.203 161.076 110.047 161.43 110.047 161.946C110.047 162.33 110.155 162.648 110.371 162.9C110.599 163.14 110.971 163.344 111.487 163.512L112.963 163.998C113.851 164.298 114.517 164.736 114.961 165.312C115.417 165.876 115.645 166.626 115.645 167.562C115.645 168.642 115.303 169.518 114.619 170.19C113.935 170.85 112.861 171.18 111.397 171.18C110.821 171.18 110.221 171.114 109.597 170.982C108.985 170.838 108.313 170.598 107.581 170.262L108.247 168.408C108.919 168.696 109.489 168.9 109.957 169.02C110.437 169.128 110.905 169.182 111.361 169.182ZM119.328 165.906V166.968C119.328 167.736 119.466 168.312 119.742 168.696C120.018 169.08 120.462 169.272 121.074 169.272C121.374 169.272 121.71 169.236 122.082 169.164C122.466 169.08 122.88 168.954 123.324 168.786L123.918 170.532C123.378 170.748 122.868 170.91 122.388 171.018C121.908 171.126 121.434 171.18 120.966 171.18C119.766 171.18 118.848 170.796 118.212 170.028C117.576 169.26 117.258 168.24 117.258 166.968V165.906C117.258 164.622 117.576 163.602 118.212 162.846C118.848 162.078 119.766 161.694 120.966 161.694C121.422 161.694 121.884 161.748 122.352 161.856C122.82 161.964 123.312 162.12 123.828 162.324L123.234 164.106C122.37 163.77 121.65 163.602 121.074 163.602C120.462 163.602 120.018 163.794 119.742 164.178C119.466 164.55 119.328 165.126 119.328 165.906ZM130.96 163.764C130.396 163.764 129.856 163.854 129.34 164.034C128.836 164.202 128.35 164.478 127.882 164.862V171H125.812V161.874H127.774V163.278C128.386 162.702 128.932 162.294 129.412 162.054C129.892 161.814 130.408 161.694 130.96 161.694V163.764ZM134.897 160.146H132.719V158.004H134.897V160.146ZM134.843 171H132.773V161.874H134.843V171ZM141.601 171.18C141.301 171.18 140.995 171.15 140.683 171.09C140.383 171.03 140.077 170.946 139.765 170.838V174.834H137.695V161.874H139.657V163.116C140.221 162.552 140.701 162.174 141.097 161.982C141.493 161.79 141.907 161.694 142.339 161.694C143.335 161.694 144.103 162.066 144.643 162.81C145.183 163.554 145.453 164.598 145.453 165.942V166.914C145.453 168.222 145.123 169.26 144.463 170.028C143.803 170.796 142.849 171.18 141.601 171.18ZM141.781 163.62C141.505 163.62 141.211 163.704 140.899 163.872C140.599 164.028 140.221 164.334 139.765 164.79V168.966C140.353 169.206 140.893 169.326 141.385 169.326C142.081 169.326 142.579 169.11 142.879 168.678C143.179 168.246 143.329 167.658 143.329 166.914V165.942C143.329 165.138 143.191 164.55 142.915 164.178C142.651 163.806 142.273 163.62 141.781 163.62ZM153.345 170.694C153.033 170.838 152.673 170.952 152.265 171.036C151.857 171.132 151.443 171.18 151.023 171.18C150.327 171.18 149.769 171.036 149.349 170.748C148.929 170.46 148.623 170.058 148.431 169.542C148.251 169.026 148.161 168.438 148.161 167.778V163.674H146.685V161.874H148.161V159.498H150.231V161.874H153.075V163.674H150.231V167.778C150.231 168.33 150.333 168.714 150.537 168.93C150.753 169.134 151.059 169.236 151.455 169.236C151.647 169.236 151.851 169.218 152.067 169.182C152.295 169.134 152.547 169.056 152.823 168.948L153.345 170.694Z" fill="white"/>
<path fill-rule="evenodd" clip-rule="evenodd" d="M78.0696 67C77.9916 67.011 77.9973 67.1025 78.0029 67.1941C78.0029 89.7778 78.0029 112.358 78.0029 134.941C101.203 135.092 124.689 134.963 148 135.006C148 112.337 148 89.6689 148 67C124.691 67 101.379 67 78.0696 67ZM113.533 127.119C111.914 128.706 109.358 129.64 106.214 129.64C101.058 129.64 98.1947 127.199 96.3672 123.822C98.1264 122.73 99.9242 121.676 101.757 120.655C102.504 122.686 105.029 124.97 107.878 123.564C109.684 122.672 109.475 119.969 109.475 117.035C109.475 110.942 109.475 103.913 109.475 98.4168C109.469 98.3252 109.464 98.2338 109.541 98.2227C111.693 98.2227 113.844 98.2227 115.995 98.2227C115.995 103.119 115.995 108.658 115.995 113.866C115.995 119.536 116.412 124.3 113.533 127.119ZM142.41 121.496C142.044 126.804 137.583 129.623 131.565 129.64C125.666 129.656 121.891 127.109 119.588 123.175C121.244 122.068 123.119 121.177 124.845 120.138C126.226 122.236 128.617 124.252 132.164 123.951C134.374 123.764 136.939 122.014 135.491 119.362C134.788 118.076 133.091 117.423 131.565 116.776C126.723 114.723 121.041 112.84 121.584 105.463C121.766 102.999 122.934 101.267 124.446 100.033C125.995 98.7686 128.07 97.9211 130.833 97.8354C135.851 97.6793 138.604 99.848 140.481 102.878C138.883 104.061 137.123 105.089 135.358 106.11C134.778 104.38 131.982 102.695 129.636 103.718C128.569 104.183 127.61 105.55 128.172 107.209C128.673 108.688 130.718 109.498 132.364 110.183C137.343 112.254 142.908 114.278 142.41 121.496Z" fill="white"/>
<defs>
<filter id="filter0_b_663_17" x="3.30276" y="3.30175" width="219.67" height="219.67" filterUnits="userSpaceOnUse" color-interpolation-filters="sRGB">
<feFlood flood-opacity="0" result="BackgroundImageFix"/>
<feGaussianBlur in="BackgroundImageFix" stdDeviation="2.4912"/>
<feComposite in2="SourceAlpha" operator="in" result="effect1_backgroundBlur_663_17"/>
<feBlend mode="normal" in="SourceGraphic" in2="effect1_backgroundBlur_663_17" result="shape"/>
</filter>
</defs>
</svg>
