<svg width="227" height="227" viewBox="0 0 227 227" fill="none" xmlns="http://www.w3.org/2000/svg">
<g filter="url(#filter0_b_734_22)">
<rect x="0.273438" y="113.137" width="160" height="160" transform="rotate(-45 0.273438 113.137)" fill="white" fill-opacity="0.3"/>
<rect x="2.74831" y="113.137" width="156.5" height="156.5" transform="rotate(-45 2.74831 113.137)" stroke="white" stroke-width="3.5"/>
</g>
<path d="M95.8699 168L92.4699 162.06C92.2432 162.313 92.0099 162.567 91.7699 162.82C91.5432 163.073 91.3032 163.333 91.0499 163.6V168H88.6499V154.4H91.0499V160.86C92.0632 159.7 92.9299 158.6 93.6499 157.56C94.3699 156.507 94.9899 155.453 95.5099 154.4H98.1299C97.5565 155.547 96.9432 156.633 96.2899 157.66C95.6499 158.673 94.9699 159.613 94.2499 160.48L98.7699 168H95.8699ZM108.466 162.32V163.52C108.466 164.933 108.08 166.067 107.306 166.92C106.533 167.773 105.44 168.2 104.026 168.2C102.613 168.2 101.52 167.773 100.746 166.92C99.973 166.067 99.5863 164.933 99.5863 163.52V162.32C99.5863 160.907 99.9663 159.78 100.726 158.94C101.5 158.087 102.6 157.66 104.026 157.66C105.453 157.66 106.546 158.087 107.306 158.94C108.08 159.78 108.466 160.907 108.466 162.32ZM106.106 162.32C106.106 161.507 105.926 160.873 105.566 160.42C105.206 159.953 104.693 159.72 104.026 159.72C103.36 159.72 102.846 159.953 102.486 160.42C102.126 160.873 101.946 161.507 101.946 162.32V163.52C101.946 164.333 102.126 164.973 102.486 165.44C102.846 165.907 103.36 166.14 104.026 166.14C104.693 166.14 105.206 165.907 105.566 165.44C105.926 164.973 106.106 164.333 106.106 163.52V162.32ZM117.145 167.66C116.799 167.82 116.399 167.947 115.945 168.04C115.492 168.147 115.032 168.2 114.565 168.2C113.792 168.2 113.172 168.04 112.705 167.72C112.239 167.4 111.899 166.953 111.685 166.38C111.485 165.807 111.385 165.153 111.385 164.42V159.86H109.745V157.86H111.385V155.22H113.685V157.86H116.845V159.86H113.685V164.42C113.685 165.033 113.799 165.46 114.025 165.7C114.265 165.927 114.605 166.04 115.045 166.04C115.259 166.04 115.485 166.02 115.725 165.98C115.979 165.927 116.259 165.84 116.565 165.72L117.145 167.66ZM118.934 165.14V153.2H121.234V165.14C121.234 165.34 121.281 165.533 121.374 165.72C121.481 165.893 121.681 165.98 121.974 165.98H122.294V168.1H121.734C120.974 168.1 120.394 167.953 119.994 167.66C119.594 167.367 119.314 166.993 119.154 166.54C119.008 166.087 118.934 165.62 118.934 165.14ZM126.882 155.94H124.462V153.56H126.882V155.94ZM126.822 168H124.522V157.86H126.822V168ZM134.951 159.8C134.617 159.8 134.237 159.88 133.811 160.04C133.384 160.2 132.877 160.513 132.291 160.98V168H129.991V157.86H132.171V159.22C132.797 158.673 133.391 158.28 133.951 158.04C134.511 157.787 135.077 157.66 135.651 157.66C136.624 157.66 137.364 157.973 137.871 158.6C138.377 159.213 138.631 160.08 138.631 161.2V168H136.331V161.48C136.331 160.36 135.871 159.8 134.951 159.8Z" fill="white"/>
<path d="M146.8 134.8H79V67H146.8L112.9 100.9L146.8 134.8Z" fill="white"/>
<defs>
<filter id="filter0_b_734_22" x="-4.70896" y="-4.98252" width="236.238" height="236.239" filterUnits="userSpaceOnUse" color-interpolation-filters="sRGB">
<feFlood flood-opacity="0" result="BackgroundImageFix"/>
<feGaussianBlur in="BackgroundImageFix" stdDeviation="2.4912"/>
<feComposite in2="SourceAlpha" operator="in" result="effect1_backgroundBlur_734_22"/>
<feBlend mode="normal" in="SourceGraphic" in2="effect1_backgroundBlur_734_22" result="shape"/>
</filter>
</defs>
</svg>
