<svg width="227" height="227" viewBox="0 0 227 227" fill="none" xmlns="http://www.w3.org/2000/svg">
<g filter="url(#filter0_b_734_18)">
<rect y="113.137" width="160" height="160" transform="rotate(-45 0 113.137)" fill="white" fill-opacity="0.3"/>
<rect x="2.47487" y="113.137" width="156.5" height="156.5" transform="rotate(-45 2.47487 113.137)" stroke="white" stroke-width="3.5"/>
</g>
<path d="M98.9118 165.7V168H91.0718V154.4H93.4718V165.7H98.9118ZM103.268 155.94H100.848V153.56H103.268V155.94ZM103.208 168H100.908V157.86H103.208V168ZM111.337 159.8C111.004 159.8 110.624 159.88 110.197 160.04C109.771 160.2 109.264 160.513 108.677 160.98V168H106.377V157.86H108.557V159.22C109.184 158.673 109.777 158.28 110.337 158.04C110.897 157.787 111.464 157.66 112.037 157.66C113.011 157.66 113.751 157.973 114.257 158.6C114.764 159.213 115.017 160.08 115.017 161.2V168H112.717V161.48C112.717 160.36 112.257 159.8 111.337 159.8ZM124.097 168V166.66C123.484 167.193 122.91 167.587 122.377 167.84C121.844 168.08 121.304 168.2 120.757 168.2C119.85 168.2 119.15 167.893 118.657 167.28C118.164 166.653 117.917 165.78 117.917 164.66V157.86H120.217V164.38C120.217 165.5 120.63 166.06 121.457 166.06C121.79 166.06 122.15 165.98 122.537 165.82C122.937 165.66 123.417 165.353 123.977 164.9V157.86H126.277V168H124.097ZM134.804 168L132.704 164.6L130.644 168H128.244L131.524 162.8L128.464 157.86H130.944L132.824 160.88L134.644 157.86H137.044L133.984 162.7L137.284 168H134.804Z" fill="white"/>
<path d="M109.401 69.3399C109.329 69.5469 108.996 69.5153 108.806 69.5756C108.637 69.6647 108.499 69.82 108.303 69.82C108.125 69.82 107.838 69.7481 107.815 69.5756C107.78 69.3399 108.131 69.0985 108.352 69.0985C108.496 69.0295 108.663 68.9921 108.838 68.9921C108.999 68.9921 109.151 69.0237 109.289 69.0841L109.281 69.0812C109.344 69.1071 109.39 69.1674 109.39 69.2393C109.39 69.2479 109.39 69.2537 109.387 69.2623V69.3342H109.398L109.401 69.3399ZM111.379 69.3399V69.2623C111.356 69.1904 111.425 69.1128 111.482 69.0841C111.615 69.0266 111.77 68.9921 111.934 68.9921C112.109 68.9921 112.276 69.0323 112.422 69.1013L112.417 69.0985C112.644 69.0985 112.992 69.3399 112.954 69.5843C112.934 69.7596 112.649 69.82 112.468 69.82C112.27 69.82 112.138 69.6647 111.962 69.5756C111.776 69.5095 111.439 69.5469 111.376 69.3428L111.379 69.3399ZM115.265 75.0257C113.736 75.9944 111.928 76.6756 109.991 76.9401L109.922 76.9487C108.18 76.8481 106.596 76.2358 105.302 75.2585L105.322 75.2729C104.77 74.7928 104.316 74.3099 103.983 74.0685C103.394 73.5884 103.465 72.8727 103.718 72.8727C104.109 72.9302 104.181 73.3527 104.434 73.5913C104.779 73.827 105.207 74.3099 105.728 74.7871C106.869 75.7299 108.312 76.3422 109.896 76.4629L109.922 76.4658C111.801 76.3019 113.512 75.6983 114.989 74.7641L114.943 74.7928C115.645 74.307 116.542 73.5942 117.272 73.1141C117.832 72.6255 117.806 72.154 118.275 72.154C118.735 72.2115 118.398 72.6341 117.746 73.347C117.039 73.8874 116.231 74.4421 115.395 74.9567L115.268 75.0285L115.265 75.0257ZM89.55 107.62H89.5845C89.7829 107.62 89.9783 107.64 90.1681 107.674L90.1479 107.671C91.7117 108.074 92.9994 109.045 93.8072 110.347L93.8215 110.373L97.0898 116.349L97.1013 116.361C98.415 118.583 99.8264 120.506 101.404 122.279L101.373 122.242C102.781 123.737 103.73 125.68 103.986 127.836L103.991 127.882V127.905C103.957 130.253 102.229 132.191 99.9787 132.55L99.9528 132.553C99.3779 132.642 98.7111 132.691 98.0355 132.691C95.5721 132.691 93.2668 132.021 91.2891 130.851L91.3495 130.886C88.3226 129.618 84.81 128.833 81.1306 128.724H81.0875C80.0182 128.652 79.0869 128.106 78.4976 127.298L78.4919 127.29C78.3366 126.79 78.2475 126.215 78.2475 125.617C78.2475 124.611 78.5005 123.665 78.9489 122.84L78.9345 122.872V122.857L78.9432 122.846C79.061 122.305 79.13 121.682 79.13 121.043C79.13 120.256 79.0265 119.494 78.8311 118.77L78.8454 118.83C78.7276 118.399 78.6586 117.902 78.6586 117.387C78.6586 116.691 78.7822 116.027 79.0121 115.412L79.0006 115.453C79.5755 114.254 80.4235 114.015 81.4785 113.538C82.7375 113.156 83.8327 112.578 84.787 111.834L84.764 111.851H84.7698V111.842C85.6896 110.879 86.368 109.683 87.17 108.833C87.7305 108.117 88.5842 107.654 89.5472 107.625H89.5529L89.55 107.62ZM128.396 107.444C128.393 107.493 128.393 107.553 128.393 107.614C128.393 109.75 129.684 111.583 131.529 112.38L131.564 112.394C131.702 112.403 131.863 112.408 132.024 112.408C134.412 112.408 136.551 111.342 137.988 109.658L137.997 109.646L138.756 109.612C138.908 109.589 139.083 109.577 139.262 109.577C140.242 109.577 141.136 109.957 141.8 110.577L141.797 110.575L141.808 110.586C142.524 111.451 143.021 112.521 143.208 113.696L143.214 113.734C143.372 115.185 143.898 116.493 144.7 117.585L144.686 117.562C145.882 118.586 146.712 120.006 146.965 121.618L146.971 121.656L146.982 121.63V121.693L146.971 121.65C146.916 122.59 146.307 123.073 145.183 123.789C141.78 125.217 138.856 127.117 136.338 129.446L136.358 129.428C134.611 131.705 132.044 133.277 129.106 133.7L129.046 133.706C128.833 133.734 128.586 133.752 128.336 133.752C126.128 133.752 124.231 132.418 123.403 130.515L123.389 130.48L123.371 130.469C123.104 129.647 122.952 128.701 122.952 127.721C122.952 126.525 123.179 125.384 123.596 124.335L123.573 124.398C124.245 122.478 124.823 120.184 125.205 117.821L125.237 117.583C125.283 115.248 125.536 113.003 125.979 110.827L125.938 111.066C126.183 109.577 127.033 108.324 128.221 107.545L128.241 107.533L128.402 107.456L128.396 107.444ZM120.546 75.2671C122.27 81.4387 124.395 86.7709 127.005 91.8156L126.778 91.3355C128.54 94.4687 129.911 98.105 130.696 101.957L130.736 102.198C130.762 102.198 130.793 102.198 130.825 102.198C131.449 102.198 132.052 102.282 132.627 102.44L132.578 102.428C132.895 101.293 133.076 99.9906 133.076 98.6454C133.076 94.5464 131.388 90.8383 128.669 88.1851L128.666 88.1822C127.876 87.4636 127.833 86.9778 128.223 86.9778C131.015 89.5936 133.079 92.951 134.102 96.7338L134.136 96.8804C134.392 97.8262 134.539 98.9127 134.539 100.034C134.539 101.043 134.421 102.026 134.197 102.966L134.214 102.88C134.427 102.989 134.674 103.072 134.935 103.118L134.953 103.121C138.661 105.038 140.029 106.49 139.371 108.643V108.488C139.155 108.476 138.94 108.488 138.724 108.488H138.667C139.21 106.809 138.014 105.524 134.841 104.09C131.555 102.652 128.928 102.882 128.482 105.76C128.451 105.901 128.428 106.064 128.419 106.234V106.243C128.209 106.329 127.959 106.409 127.7 106.467L127.669 106.473C126.208 107.438 125.168 108.942 124.826 110.695L124.82 110.736C124.395 112.733 124.127 115.047 124.084 117.413V117.447V117.459C123.823 119.29 123.423 120.928 122.883 122.498L122.94 122.308C120.115 124.619 116.47 126.016 112.494 126.016C109.246 126.016 106.216 125.082 103.661 123.467L103.73 123.507C103.31 122.78 102.83 122.15 102.284 121.59L102.287 121.592C102.008 121.133 101.68 120.739 101.304 120.4L101.298 120.397C101.893 120.397 102.468 120.308 103.011 120.144L102.968 120.155C103.486 119.911 103.882 119.488 104.092 118.971L104.098 118.957C104.15 118.689 104.181 118.385 104.181 118.071C104.181 116.792 103.678 115.634 102.856 114.777L102.859 114.78C101.08 112.592 98.9525 110.77 96.5466 109.376L96.4373 109.318C94.5085 108.203 93.0483 106.458 92.3268 104.369L92.3067 104.305C92.0394 103.391 91.8841 102.339 91.8841 101.253C91.8841 100.238 92.0192 99.2548 92.2693 98.3177L92.2521 98.3953C93.3357 94.6182 94.8995 91.3212 96.9087 88.3461L96.8283 88.4697C97.2134 88.2368 96.9605 88.9555 95.3623 91.9679C93.9998 94.0174 93.1863 96.5384 93.1863 99.249C93.1863 101.664 93.8302 103.926 94.957 105.878L94.9225 105.814C95.0719 102.052 95.9142 98.5218 97.3198 95.2966L97.2479 95.4834C100.281 90.0162 102.577 83.6664 103.787 76.9372L103.845 76.5606C104.017 76.69 104.624 77.0464 104.883 77.285C105.664 77.7622 106.248 78.4808 107.001 78.9551C107.769 79.7025 108.821 80.1624 109.976 80.1624C110.037 80.1624 110.097 80.1624 110.157 80.1595H110.149C110.29 80.171 110.419 80.1825 110.542 80.1825C111.862 80.1566 113.092 79.8031 114.161 79.1994L114.124 79.2196C115.165 78.7395 115.993 78.0209 116.783 77.7823H116.8C118.338 77.3655 119.626 76.4773 120.537 75.2844L120.549 75.2671H120.546ZM110.488 67.5721C110.496 67.5721 110.505 67.5721 110.514 67.5721C112.149 67.5721 113.658 68.1096 114.874 69.018L114.854 69.0036C115.941 69.6762 117.194 70.2483 118.519 70.6536L118.634 70.6823H118.646C119.353 70.9985 119.936 71.49 120.353 72.1023L120.362 72.1167V71.6453C120.494 71.9097 120.574 72.223 120.574 72.5536C120.574 72.8353 120.517 73.1026 120.416 73.347L120.422 73.3326C119.594 74.79 118.252 75.8736 116.648 76.3451L116.602 76.3566V76.3623C115.639 76.8481 114.802 77.5581 113.819 78.0324C112.813 78.636 111.603 78.9925 110.307 78.9925C110.264 78.9925 110.221 78.9925 110.177 78.9925H110.183C110.12 78.9953 110.045 78.9982 109.97 78.9982C109.47 78.9982 108.987 78.9091 108.545 78.7424L108.573 78.751C108.116 78.5009 107.74 78.2652 107.375 78.0123L107.415 78.041C106.763 77.469 106.044 76.92 105.291 76.4169L105.216 76.3709V76.3537H105.199C104.121 75.7817 103.273 74.9049 102.75 73.8356L102.735 73.8011C102.658 73.6085 102.615 73.3843 102.615 73.1515C102.615 72.5249 102.937 71.973 103.422 71.651L103.428 71.6481C104.233 71.1623 104.793 70.6737 105.164 70.4409C105.538 70.1764 105.679 70.0758 105.797 69.9694H105.802V69.9579C106.573 68.9835 107.593 68.2361 108.769 67.8136L108.815 67.7992C109.315 67.6555 109.89 67.5721 110.485 67.5664L110.488 67.5721ZM105.567 61.4437H105.696C106.236 61.4552 106.734 61.6363 107.136 61.9323L107.13 61.9266C107.645 62.3836 108.065 62.9384 108.352 63.5651L108.364 63.5967C108.688 64.3009 108.89 65.1202 108.913 65.9825V65.9911V66.0055C108.924 66.1377 108.93 66.2901 108.93 66.4424C108.93 66.6235 108.921 66.8046 108.904 66.9828L108.907 66.9598V67.2473C108.801 67.2732 108.706 67.3105 108.608 67.3335C108.059 67.5606 107.596 67.8021 107.156 68.0751L107.197 68.0521C107.22 67.894 107.231 67.713 107.231 67.529C107.231 67.3766 107.222 67.2243 107.205 67.0748L107.208 67.0921V67.0374C107.156 66.5948 107.053 66.1895 106.9 65.8072L106.912 65.8388C106.794 65.4594 106.587 65.1374 106.317 64.8816C106.159 64.7379 105.949 64.6487 105.716 64.6487C105.696 64.6487 105.676 64.6487 105.656 64.6516H105.659H105.584C105.288 64.6832 105.041 64.8672 104.917 65.1202L104.914 65.1259C104.693 65.3932 104.541 65.7238 104.483 66.086V66.0975C104.417 66.3447 104.382 66.6293 104.382 66.9225C104.382 67.0489 104.388 67.1754 104.403 67.299V67.2847V67.3393C104.449 67.7819 104.552 68.1901 104.701 68.5696L104.69 68.5379C104.811 68.9174 105.015 69.2422 105.285 69.5009C105.32 69.5354 105.36 69.5641 105.406 69.5871H105.409C105.17 69.7395 104.963 69.9004 104.773 70.0787L104.776 70.0758C104.647 70.1908 104.489 70.277 104.313 70.3172L104.305 70.3201C103.951 69.8976 103.624 69.4233 103.342 68.9231L103.319 68.8771C102.994 68.1729 102.793 67.3565 102.761 66.4913V66.4798C102.75 66.3418 102.744 66.1808 102.744 66.017C102.744 65.3243 102.856 64.6574 103.06 64.0336L103.049 64.0796C103.261 63.338 103.609 62.697 104.072 62.1508L104.066 62.1594C104.431 61.7283 104.966 61.4552 105.567 61.4408H105.57L105.567 61.4437ZM116.208 61.231H116.254C116.257 61.231 116.26 61.231 116.266 61.231C117.056 61.231 117.78 61.4983 118.361 61.9467L118.352 61.941C119.011 62.4498 119.54 63.0908 119.91 63.8238L119.925 63.8554C120.273 64.62 120.488 65.5082 120.52 66.4453V66.4568C120.52 66.3849 120.54 66.3131 120.54 66.2412V66.6178L120.526 66.543L120.511 66.4568C120.503 67.3766 120.307 68.2447 119.956 69.0352L119.974 68.995C119.795 69.4635 119.537 69.866 119.209 70.1994C119.123 70.1477 119.016 70.0988 118.91 70.0557L118.893 70.0499C118.505 69.9292 118.166 69.7653 117.858 69.5641L117.872 69.5728C117.651 69.4808 117.387 69.4003 117.114 69.3399L117.082 69.3342C117.315 69.1157 117.53 68.8829 117.729 68.6357L117.74 68.6213C117.921 68.1959 118.033 67.7043 118.056 67.1869V67.1783V67.1064C118.056 67.0834 118.056 67.0604 118.056 67.0346C118.056 66.5459 117.976 66.0774 117.826 65.6404L117.835 65.6721C117.654 65.215 117.433 64.8212 117.168 64.4619L117.18 64.4763C116.93 64.2233 116.599 64.0508 116.228 64.002H116.22H116.162C116.159 64.002 116.153 64.002 116.151 64.002C115.771 64.002 115.432 64.1888 115.225 64.4734L115.222 64.4763C114.889 64.8011 114.636 65.2035 114.492 65.6548L114.486 65.6749C114.305 66.0975 114.187 66.589 114.164 67.1007V67.1093V67.1783C114.17 67.5232 114.196 67.8567 114.242 68.1815L114.236 68.1384C113.543 67.8969 112.664 67.6526 112.054 67.414C112.02 67.2042 111.997 66.957 111.991 66.704V66.6954V66.6235C111.988 66.566 111.988 66.4999 111.988 66.4338C111.988 65.5025 112.187 64.62 112.546 63.8238L112.529 63.864C112.833 63.062 113.371 62.4038 114.058 61.9582L114.072 61.9496C114.659 61.5012 115.403 61.231 116.208 61.231ZM114.308 49C113.75 49 113.176 49.0287 112.583 49.0747C97.4032 50.2705 101.43 66.3418 101.197 71.697C101.054 75.796 99.6625 79.5415 97.3888 82.5971L97.4262 82.5453C93.3817 87.1503 90.0818 92.5313 87.7937 98.4212L87.6701 98.7862C86.9285 100.755 86.4973 103.029 86.4973 105.403C86.4973 106.223 86.5491 107.03 86.6468 107.821L86.6382 107.726C86.4772 107.858 86.3421 108.019 86.2472 108.203L86.2444 108.212C85.3102 109.175 84.6289 110.368 83.8614 111.224C83.0479 111.848 82.0936 112.339 81.0588 112.644L80.9984 112.659C79.6647 113.058 78.5781 113.929 77.9083 115.076L77.894 115.102C77.595 115.711 77.4197 116.427 77.4197 117.186C77.4197 117.215 77.4197 117.24 77.4197 117.269C77.4254 117.953 77.4944 118.614 77.6295 119.258L77.618 119.192C77.779 119.822 77.871 120.546 77.871 121.291C77.871 121.779 77.8307 122.259 77.7531 122.728L77.7589 122.676C77.2788 123.576 77 124.645 77 125.781C77 126.58 77.138 127.344 77.3938 128.054L77.3794 128.008C78.1642 129.124 79.3513 129.911 80.7253 130.161L80.757 130.167C84.4191 130.475 87.8023 131.239 90.993 132.409L90.7228 132.323C92.7292 133.516 95.1467 134.22 97.7251 134.22C98.5702 134.22 99.3981 134.145 100.203 133.999L100.12 134.01C102.037 133.576 103.601 132.326 104.443 130.65L104.46 130.613C106.57 130.601 108.878 129.647 112.578 129.414C115.087 129.207 118.232 130.374 121.833 130.133C121.94 130.59 122.081 130.989 122.259 131.366L122.242 131.328L122.253 131.34C123.357 133.651 125.674 135.22 128.359 135.22C128.591 135.22 128.821 135.209 129.048 135.186L129.02 135.189C132.328 134.7 135.168 132.981 137.106 130.524L137.126 130.498C139.549 128.29 142.377 126.47 145.476 125.171L145.669 125.099C146.911 124.55 147.802 123.418 147.997 122.055L148 122.035C147.83 120.04 146.873 118.301 145.447 117.103L145.436 117.094V116.746L145.424 116.735C144.809 115.786 144.378 114.659 144.214 113.452L144.209 113.409C144.056 111.934 143.409 110.632 142.441 109.652H142.429C142.217 109.459 141.987 109.41 141.754 109.166C141.564 109.031 141.328 108.948 141.072 108.936C141.633 107.206 141.955 105.216 141.955 103.15C141.955 100.448 141.4 97.875 140.4 95.5409L140.449 95.6674C138.425 90.8613 135.795 86.7249 132.596 83.1087L132.636 83.1576C129.46 80.0474 127.381 75.8248 127.036 71.1221L127.033 71.0617C127.128 63.3322 127.881 49.0316 114.302 49.0115L114.308 49Z" fill="white"/>
<defs>
<filter id="filter0_b_734_18" x="-4.9824" y="-4.98252" width="236.238" height="236.239" filterUnits="userSpaceOnUse" color-interpolation-filters="sRGB">
<feFlood flood-opacity="0" result="BackgroundImageFix"/>
<feGaussianBlur in="BackgroundImageFix" stdDeviation="2.4912"/>
<feComposite in2="SourceAlpha" operator="in" result="effect1_backgroundBlur_734_18"/>
<feBlend mode="normal" in="SourceGraphic" in2="effect1_backgroundBlur_734_18" result="shape"/>
</filter>
</defs>
</svg>
