<svg width="227" height="227" viewBox="0 0 227 227" fill="none" xmlns="http://www.w3.org/2000/svg">
<g filter="url(#filter0_b_734_15)">
<rect y="113.137" width="160" height="160" rx="20" transform="rotate(-45 0 113.137)" fill="white" fill-opacity="0.3"/>
<rect x="2.47487" y="113.137" width="156.5" height="156.5" rx="18.25" transform="rotate(-45 2.47487 113.137)" stroke="white" stroke-width="3.5"/>
</g>
<path d="M86.2675 171V158.76H88.2475C89.1955 159.996 90.0955 161.304 90.9475 162.684C91.7995 164.052 92.5735 165.462 93.2695 166.914L93.1075 163.26V158.76H95.1775V171H93.1975C92.4295 169.488 91.6315 167.97 90.8035 166.446C89.9875 164.91 89.1175 163.464 88.1935 162.108L88.3375 166.32V171H86.2675ZM103.721 171V169.794C103.169 170.274 102.653 170.628 102.173 170.856C101.693 171.072 101.207 171.18 100.715 171.18C99.8987 171.18 99.2687 170.904 98.8247 170.352C98.3807 169.788 98.1587 169.002 98.1587 167.994V161.874H100.229V167.742C100.229 168.75 100.601 169.254 101.345 169.254C101.645 169.254 101.969 169.182 102.317 169.038C102.677 168.894 103.109 168.618 103.613 168.21V161.874H105.683V171H103.721ZM110.603 164.682V171H108.533V161.874H110.495V163.08C111.059 162.588 111.581 162.234 112.061 162.018C112.541 161.802 113.033 161.694 113.537 161.694C114.653 161.694 115.415 162.186 115.823 163.17C116.423 162.642 116.981 162.264 117.497 162.036C118.013 161.808 118.535 161.694 119.063 161.694C119.903 161.694 120.545 161.976 120.989 162.54C121.433 163.092 121.655 163.872 121.655 164.88V171H119.585V165.132C119.585 164.124 119.201 163.62 118.433 163.62C118.133 163.62 117.803 163.692 117.443 163.836C117.083 163.98 116.645 164.262 116.129 164.682V171H114.059V165.132C114.059 164.124 113.675 163.62 112.907 163.62C112.607 163.62 112.277 163.692 111.917 163.836C111.557 163.98 111.119 164.262 110.603 164.682ZM124.658 171V158.76H128.69C129.974 158.76 130.934 159.084 131.57 159.732C132.218 160.38 132.542 161.244 132.542 162.324V163.278C132.542 164.358 132.218 165.228 131.57 165.888C130.934 166.536 129.974 166.86 128.69 166.86H126.818V171H124.658ZM128.69 160.83H126.818V164.79H128.69C129.218 164.79 129.62 164.658 129.896 164.394C130.184 164.13 130.328 163.758 130.328 163.278V162.324C130.328 161.856 130.184 161.49 129.896 161.226C129.62 160.962 129.218 160.83 128.69 160.83ZM138.414 171.9C138.018 173.004 137.514 173.796 136.902 174.276C136.29 174.768 135.45 175.014 134.382 175.014V172.944C135.018 172.92 135.516 172.776 135.876 172.512C136.248 172.26 136.524 171.906 136.704 171.45L136.866 171.036L133.608 161.874H135.66L137.226 166.428L137.838 168.354L138.432 166.428L139.926 161.874H141.978L138.414 171.9Z" fill="white"/>
<path d="M108.046 78.4412L96.2601 72.4454L83.3242 78.9514L95.4301 85.0767L108.046 78.4412Z" fill="white"/>
<path d="M113.448 81.1878L125.805 87.473L112.983 93.9612L100.859 87.8258L113.448 81.1878Z" fill="white"/>
<path d="M129.952 72.5368L142.647 78.9514L131.295 84.6959L118.91 78.4031L129.952 72.5368Z" fill="white"/>
<path d="M124.488 69.7724L113.058 64L101.754 69.6836L113.53 75.6692L124.488 69.7724Z" fill="white"/>
<path d="M115.555 119.361V135.076L129.399 128.116L129.384 112.393L115.555 119.361Z" fill="white"/>
<path d="M129.379 106.907L129.364 91.3492L115.555 98.2665V113.83L129.379 106.907Z" fill="white"/>
<path d="M145.996 103.991V119.767L134.187 125.705L134.18 110.002L145.996 103.991Z" fill="white"/>
<path d="M146 98.4746V83.0155L134.168 88.9427L134.178 104.531L146 98.4746Z" fill="white"/>
<path d="M110.664 98.269L101.338 93.5449V113.967C101.338 113.967 89.9329 89.5114 88.8846 87.3156C88.6618 87.0286 88.3737 86.7988 88.0443 86.6455C85.9933 85.5768 80 82.5052 80 82.5052V118.577L88.2906 123.044V104.189C88.2906 104.189 99.5739 126.037 99.6882 126.273C100.269 127.547 101.106 128.687 102.145 129.624C103.757 130.698 110.667 134.886 110.667 134.886L110.664 98.269Z" fill="white"/>
<defs>
<filter id="filter0_b_734_15" x="3.30276" y="3.30175" width="219.668" height="219.67" filterUnits="userSpaceOnUse" color-interpolation-filters="sRGB">
<feFlood flood-opacity="0" result="BackgroundImageFix"/>
<feGaussianBlur in="BackgroundImageFix" stdDeviation="2.4912"/>
<feComposite in2="SourceAlpha" operator="in" result="effect1_backgroundBlur_734_15"/>
<feBlend mode="normal" in="SourceGraphic" in2="effect1_backgroundBlur_734_15" result="shape"/>
</filter>
</defs>
</svg>
