<svg width="227" height="227" viewBox="0 0 227 227" fill="none" xmlns="http://www.w3.org/2000/svg">
<g filter="url(#filter0_b_734_17)">
<rect y="113.137" width="160" height="160" rx="20" transform="rotate(-45 0 113.137)" fill="white" fill-opacity="0.3"/>
<rect x="2.47487" y="113.137" width="156.5" height="156.5" rx="18.25" transform="rotate(-45 2.47487 113.137)" stroke="white" stroke-width="3.5"/>
</g>
<path d="M86.4345 171V158.76H90.4665C91.7505 158.76 92.7105 159.084 93.3465 159.732C93.9945 160.38 94.3185 161.244 94.3185 162.324V163.278C94.3185 164.358 93.9945 165.228 93.3465 165.888C92.7105 166.536 91.7505 166.86 90.4665 166.86H88.5945V171H86.4345ZM90.4665 160.83H88.5945V164.79H90.4665C90.9945 164.79 91.3965 164.658 91.6725 164.394C91.9605 164.13 92.1045 163.758 92.1045 163.278V162.324C92.1045 161.856 91.9605 161.49 91.6725 161.226C91.3965 160.962 90.9945 160.83 90.4665 160.83ZM103.325 171.09C102.713 171.09 102.221 170.964 101.849 170.712C101.489 170.46 101.225 170.148 101.057 169.776C100.541 170.256 100.043 170.61 99.5626 170.838C99.0826 171.066 98.5666 171.18 98.0146 171.18C97.2106 171.18 96.6166 170.922 96.2326 170.406C95.8606 169.89 95.6746 169.236 95.6746 168.444C95.6746 167.916 95.7706 167.454 95.9626 167.058C96.1666 166.65 96.4966 166.332 96.9526 166.104C97.4086 165.876 98.0326 165.762 98.8246 165.762C99.1366 165.762 99.4606 165.786 99.7966 165.834C100.133 165.87 100.469 165.918 100.805 165.978V164.916C100.805 164.412 100.667 164.07 100.391 163.89C100.115 163.698 99.7426 163.602 99.2746 163.602C98.9146 163.602 98.5186 163.65 98.0866 163.746C97.6666 163.842 97.2106 163.992 96.7186 164.196L96.1246 162.432C97.3366 161.94 98.4346 161.694 99.4186 161.694C100.307 161.694 100.991 161.844 101.471 162.144C101.963 162.444 102.305 162.84 102.497 163.332C102.689 163.824 102.785 164.352 102.785 164.916V168.426C102.785 168.606 102.833 168.78 102.929 168.948C103.037 169.104 103.241 169.182 103.541 169.182H103.739V171.09H103.325ZM97.6726 168.408C97.6726 168.732 97.7446 168.99 97.8886 169.182C98.0326 169.362 98.2426 169.452 98.5186 169.452C98.7946 169.452 99.1066 169.38 99.4546 169.236C99.8026 169.092 100.253 168.756 100.805 168.228V167.454C100.181 167.346 99.5686 167.292 98.9686 167.292C98.5006 167.292 98.1646 167.388 97.9606 167.58C97.7686 167.772 97.6726 168.048 97.6726 168.408ZM110 163.62C109.7 163.62 109.358 163.692 108.974 163.836C108.59 163.98 108.134 164.262 107.606 164.682V171H105.536V161.874H107.498V163.098C108.062 162.606 108.596 162.252 109.1 162.036C109.604 161.808 110.114 161.694 110.63 161.694C111.506 161.694 112.172 161.976 112.628 162.54C113.084 163.092 113.312 163.872 113.312 164.88V171H111.242V165.132C111.242 164.124 110.828 163.62 110 163.62ZM121.393 171V169.758C120.841 170.31 120.361 170.688 119.953 170.892C119.557 171.084 119.143 171.18 118.711 171.18C117.727 171.18 116.959 170.808 116.407 170.064C115.867 169.32 115.597 168.276 115.597 166.932V165.96C115.597 164.652 115.927 163.614 116.587 162.846C117.247 162.078 118.201 161.694 119.449 161.694C119.761 161.694 120.067 161.724 120.367 161.784C120.679 161.844 120.985 161.928 121.285 162.036V157.68H123.355V171H121.393ZM117.721 166.932C117.721 167.736 117.853 168.324 118.117 168.696C118.393 169.068 118.777 169.254 119.269 169.254C119.545 169.254 119.839 169.176 120.151 169.02C120.463 168.852 120.841 168.54 121.285 168.084V163.908C120.697 163.668 120.157 163.548 119.665 163.548C118.969 163.548 118.471 163.764 118.171 164.196C117.871 164.628 117.721 165.216 117.721 165.96V166.932ZM133.12 171.09C132.508 171.09 132.016 170.964 131.644 170.712C131.284 170.46 131.02 170.148 130.852 169.776C130.336 170.256 129.838 170.61 129.358 170.838C128.878 171.066 128.362 171.18 127.81 171.18C127.006 171.18 126.412 170.922 126.028 170.406C125.656 169.89 125.47 169.236 125.47 168.444C125.47 167.916 125.566 167.454 125.758 167.058C125.962 166.65 126.292 166.332 126.748 166.104C127.204 165.876 127.828 165.762 128.62 165.762C128.932 165.762 129.256 165.786 129.592 165.834C129.928 165.87 130.264 165.918 130.6 165.978V164.916C130.6 164.412 130.462 164.07 130.186 163.89C129.91 163.698 129.538 163.602 129.07 163.602C128.71 163.602 128.314 163.65 127.882 163.746C127.462 163.842 127.006 163.992 126.514 164.196L125.92 162.432C127.132 161.94 128.23 161.694 129.214 161.694C130.102 161.694 130.786 161.844 131.266 162.144C131.758 162.444 132.1 162.84 132.292 163.332C132.484 163.824 132.58 164.352 132.58 164.916V168.426C132.58 168.606 132.628 168.78 132.724 168.948C132.832 169.104 133.036 169.182 133.336 169.182H133.534V171.09H133.12ZM127.468 168.408C127.468 168.732 127.54 168.99 127.684 169.182C127.828 169.362 128.038 169.452 128.314 169.452C128.59 169.452 128.902 169.38 129.25 169.236C129.598 169.092 130.048 168.756 130.6 168.228V167.454C129.976 167.346 129.364 167.292 128.764 167.292C128.296 167.292 127.96 167.388 127.756 167.58C127.564 167.772 127.468 168.048 127.468 168.408ZM137.887 169.38C138.331 169.38 138.697 169.308 138.985 169.164C139.273 169.008 139.417 168.78 139.417 168.48C139.417 168.216 139.321 168.012 139.129 167.868C138.949 167.712 138.619 167.574 138.139 167.454L137.113 167.184C136.321 166.98 135.733 166.638 135.349 166.158C134.977 165.678 134.791 165.108 134.791 164.448C134.791 163.668 135.061 163.014 135.601 162.486C136.141 161.958 136.975 161.694 138.103 161.694C138.559 161.694 139.039 161.748 139.543 161.856C140.047 161.964 140.575 162.138 141.127 162.378L140.533 164.142C140.029 163.902 139.573 163.734 139.165 163.638C138.757 163.542 138.397 163.494 138.085 163.494C137.233 163.494 136.807 163.782 136.807 164.358C136.807 164.586 136.879 164.766 137.023 164.898C137.179 165.03 137.461 165.15 137.869 165.258L138.895 165.528C139.771 165.756 140.407 166.104 140.803 166.572C141.211 167.04 141.415 167.628 141.415 168.336C141.415 169.176 141.127 169.86 140.551 170.388C139.987 170.916 139.093 171.18 137.869 171.18C136.825 171.18 135.727 170.94 134.575 170.46L135.133 168.75C135.697 168.978 136.207 169.14 136.663 169.236C137.119 169.332 137.527 169.38 137.887 169.38Z" fill="white"/>
<path d="M103.94 71.0194H111.372V86.449H103.942L103.94 71.0194ZM103.94 102.715H111.372V118.149H103.942L103.94 102.715ZM103.94 90.9549H111.372V98.2367H103.942L103.94 90.9549ZM92.0023 83.705H99.4318V135H92L92.0023 83.705ZM115.632 115.449H123.064V130.878H115.632V115.449ZM115.632 83.7232H123.064V99.1529H115.632V83.7232ZM115.632 103.661H123.064V110.943H115.632V103.661ZM127.322 67H134.754V118.295H127.322V67Z" fill="white"/>
<defs>
<filter id="filter0_b_734_17" x="3.30276" y="3.30175" width="219.668" height="219.67" filterUnits="userSpaceOnUse" color-interpolation-filters="sRGB">
<feFlood flood-opacity="0" result="BackgroundImageFix"/>
<feGaussianBlur in="BackgroundImageFix" stdDeviation="2.4912"/>
<feComposite in2="SourceAlpha" operator="in" result="effect1_backgroundBlur_734_17"/>
<feBlend mode="normal" in="SourceGraphic" in2="effect1_backgroundBlur_734_17" result="shape"/>
</filter>
</defs>
</svg>
