<svg width="227" height="227" viewBox="0 0 227 227" fill="none" xmlns="http://www.w3.org/2000/svg">
<g filter="url(#filter0_b_734_14)">
<rect y="113.137" width="160" height="160" transform="rotate(-45 0 113.137)" fill="white" fill-opacity="0.3"/>
<rect x="2.47487" y="113.137" width="156.5" height="156.5" transform="rotate(-45 2.47487 113.137)" stroke="white" stroke-width="3.5"/>
</g>
<path d="M83.4839 168V154.4H87.9639C89.3905 154.4 90.4572 154.76 91.1639 155.48C91.8839 156.2 92.2439 157.16 92.2439 158.36V159.42C92.2439 160.62 91.8839 161.587 91.1639 162.32C90.4572 163.04 89.3905 163.4 87.9639 163.4H85.8839V168H83.4839ZM87.9639 156.7H85.8839V161.1H87.9639C88.5505 161.1 88.9972 160.953 89.3039 160.66C89.6239 160.367 89.7839 159.953 89.7839 159.42V158.36C89.7839 157.84 89.6239 157.433 89.3039 157.14C88.9972 156.847 88.5505 156.7 87.9639 156.7ZM98.7682 169C98.3282 170.227 97.7682 171.107 97.0882 171.64C96.4082 172.187 95.4749 172.46 94.2882 172.46V170.16C94.9949 170.133 95.5482 169.973 95.9482 169.68C96.3616 169.4 96.6682 169.007 96.8682 168.5L97.0482 168.04L93.4282 157.86H95.7082L97.4482 162.92L98.1282 165.06L98.7882 162.92L100.448 157.86H102.728L98.7682 169ZM110.749 167.66C110.402 167.82 110.002 167.947 109.549 168.04C109.095 168.147 108.635 168.2 108.169 168.2C107.395 168.2 106.775 168.04 106.309 167.72C105.842 167.4 105.502 166.953 105.289 166.38C105.089 165.807 104.989 165.153 104.989 164.42V159.86H103.349V157.86H104.989V155.22H107.289V157.86H110.449V159.86H107.289V164.42C107.289 165.033 107.402 165.46 107.629 165.7C107.869 165.927 108.209 166.04 108.649 166.04C108.862 166.04 109.089 166.02 109.329 165.98C109.582 165.927 109.862 165.84 110.169 165.72L110.749 167.66ZM117.558 159.8C117.225 159.8 116.845 159.88 116.418 160.04C115.991 160.2 115.485 160.513 114.898 160.98V168H112.598V153.2H114.898V159.12C115.511 158.6 116.085 158.227 116.618 158C117.151 157.773 117.698 157.66 118.258 157.66C119.231 157.66 119.971 157.973 120.478 158.6C120.985 159.213 121.238 160.08 121.238 161.2V168H118.938V161.48C118.938 160.36 118.478 159.8 117.558 159.8ZM132.578 162.32V163.52C132.578 164.933 132.191 166.067 131.418 166.92C130.644 167.773 129.551 168.2 128.138 168.2C126.724 168.2 125.631 167.773 124.858 166.92C124.084 166.067 123.698 164.933 123.698 163.52V162.32C123.698 160.907 124.078 159.78 124.838 158.94C125.611 158.087 126.711 157.66 128.138 157.66C129.564 157.66 130.658 158.087 131.418 158.94C132.191 159.78 132.578 160.907 132.578 162.32ZM130.218 162.32C130.218 161.507 130.038 160.873 129.678 160.42C129.318 159.953 128.804 159.72 128.138 159.72C127.471 159.72 126.958 159.953 126.598 160.42C126.238 160.873 126.058 161.507 126.058 162.32V163.52C126.058 164.333 126.238 164.973 126.598 165.44C126.958 165.907 127.471 166.14 128.138 166.14C128.804 166.14 129.318 165.907 129.678 165.44C130.038 164.973 130.218 164.333 130.218 163.52V162.32ZM140.117 159.8C139.783 159.8 139.403 159.88 138.977 160.04C138.55 160.2 138.043 160.513 137.457 160.98V168H135.157V157.86H137.337V159.22C137.963 158.673 138.557 158.28 139.117 158.04C139.677 157.787 140.243 157.66 140.817 157.66C141.79 157.66 142.53 157.973 143.037 158.6C143.543 159.213 143.797 160.08 143.797 161.2V168H141.497V161.48C141.497 160.36 141.037 159.8 140.117 159.8Z" fill="white"/>
<path fill-rule="evenodd" clip-rule="evenodd" d="M122.33 129.757C120.691 129.757 119.365 128.425 119.365 126.777C119.365 125.13 120.691 123.801 122.33 123.801C123.968 123.801 125.294 125.13 125.294 126.777C125.294 128.425 123.968 129.757 122.33 129.757ZM113.245 135C130.51 135 129.432 127.475 129.432 127.475L129.412 119.678H112.939V117.338H135.953C135.953 117.338 147 118.599 147 101.09C147 83.5804 137.361 84.1976 137.361 84.1976H131.605V92.3257C131.605 92.3257 131.914 102.014 122.119 102.014H105.778C105.778 102.014 96.5984 101.869 96.5984 110.936V125.926C96.5984 125.926 95.2044 135 113.245 135ZM103.674 72.2428C105.313 72.2428 106.635 73.5754 106.635 75.2228C106.635 76.8701 105.313 78.1994 103.674 78.1994C102.035 78.1994 100.709 76.8701 100.709 75.2228C100.709 73.5754 102.035 72.2428 103.674 72.2428ZM112.755 67C95.4934 67 96.5712 74.5255 96.5712 74.5255L96.5916 82.3216H113.065V84.6624H90.0466C90.0466 84.6624 79 83.4011 79 100.91C79 118.42 88.6424 117.802 88.6424 117.802H94.3953V109.674C94.3953 109.674 94.0858 99.9856 103.885 99.9856H120.222C120.222 99.9856 129.402 100.131 129.402 91.064V76.0744C129.402 76.0744 130.796 67 112.755 67Z" fill="white"/>
<defs>
<filter id="filter0_b_734_14" x="-4.9824" y="-4.98252" width="236.238" height="236.239" filterUnits="userSpaceOnUse" color-interpolation-filters="sRGB">
<feFlood flood-opacity="0" result="BackgroundImageFix"/>
<feGaussianBlur in="BackgroundImageFix" stdDeviation="2.4912"/>
<feComposite in2="SourceAlpha" operator="in" result="effect1_backgroundBlur_734_14"/>
<feBlend mode="normal" in="SourceGraphic" in2="effect1_backgroundBlur_734_14" result="shape"/>
</filter>
</defs>
</svg>
