<svg width="227" height="227" viewBox="0 0 227 227" fill="none" xmlns="http://www.w3.org/2000/svg">
<g filter="url(#filter0_b_663_19)">
<rect y="113.137" width="160" height="160" rx="20" transform="rotate(-45 0 113.137)" fill="white" fill-opacity="0.3"/>
<rect x="2.47487" y="113.137" width="156.5" height="156.5" rx="18.25" transform="rotate(-45 2.47487 113.137)" stroke="white" stroke-width="3.5"/>
</g>
<path d="M85.0877 166.5V171H82.9277V158.76H87.0137C88.2497 158.76 89.1977 159.078 89.8577 159.714C90.5297 160.338 90.8657 161.178 90.8657 162.234V163.008C90.8657 163.704 90.7157 164.316 90.4157 164.844C90.1157 165.372 89.6837 165.774 89.1197 166.05C90.1037 167.73 90.9437 169.38 91.6397 171H89.1737C88.5737 169.5 87.8597 168 87.0317 166.5H85.0877ZM87.0137 160.74H85.0877V164.52H87.0137C87.5417 164.52 87.9437 164.388 88.2197 164.124C88.5077 163.848 88.6517 163.476 88.6517 163.008V162.234C88.6517 161.778 88.5077 161.418 88.2197 161.154C87.9437 160.878 87.5417 160.74 87.0137 160.74ZM100.556 170.478C99.9325 170.73 99.3445 170.91 98.7925 171.018C98.2405 171.126 97.7185 171.18 97.2265 171.18C95.8705 171.18 94.8445 170.796 94.1485 170.028C93.4525 169.26 93.1045 168.24 93.1045 166.968V165.888C93.1045 165.036 93.2605 164.298 93.5725 163.674C93.8845 163.05 94.3285 162.564 94.9045 162.216C95.4805 161.868 96.1585 161.694 96.9385 161.694C97.5745 161.694 98.1685 161.826 98.7205 162.09C99.2845 162.342 99.7405 162.744 100.088 163.296C100.448 163.836 100.628 164.532 100.628 165.384C100.628 165.636 100.61 165.906 100.574 166.194C100.538 166.47 100.478 166.764 100.394 167.076H95.1025C95.1265 167.82 95.3125 168.378 95.6605 168.75C96.0085 169.122 96.5665 169.308 97.3345 169.308C97.7425 169.308 98.1625 169.26 98.5945 169.164C99.0385 169.068 99.4945 168.924 99.9625 168.732L100.556 170.478ZM96.9385 163.44C96.3865 163.44 95.9545 163.62 95.6425 163.98C95.3425 164.328 95.1685 164.832 95.1205 165.492H98.5765C98.5885 165.432 98.5945 165.378 98.5945 165.33C98.5945 165.27 98.5945 165.216 98.5945 165.168C98.5945 164.592 98.4325 164.16 98.1085 163.872C97.7845 163.584 97.3945 163.44 96.9385 163.44ZM109.925 171.09C109.313 171.09 108.821 170.964 108.449 170.712C108.089 170.46 107.825 170.148 107.657 169.776C107.141 170.256 106.643 170.61 106.163 170.838C105.683 171.066 105.167 171.18 104.615 171.18C103.811 171.18 103.217 170.922 102.833 170.406C102.461 169.89 102.275 169.236 102.275 168.444C102.275 167.916 102.371 167.454 102.563 167.058C102.767 166.65 103.097 166.332 103.553 166.104C104.009 165.876 104.633 165.762 105.425 165.762C105.737 165.762 106.061 165.786 106.397 165.834C106.733 165.87 107.069 165.918 107.405 165.978V164.916C107.405 164.412 107.267 164.07 106.991 163.89C106.715 163.698 106.343 163.602 105.875 163.602C105.515 163.602 105.119 163.65 104.687 163.746C104.267 163.842 103.811 163.992 103.319 164.196L102.725 162.432C103.937 161.94 105.035 161.694 106.019 161.694C106.907 161.694 107.591 161.844 108.071 162.144C108.563 162.444 108.905 162.84 109.097 163.332C109.289 163.824 109.385 164.352 109.385 164.916V168.426C109.385 168.606 109.433 168.78 109.529 168.948C109.637 169.104 109.841 169.182 110.141 169.182H110.339V171.09H109.925ZM104.273 168.408C104.273 168.732 104.345 168.99 104.489 169.182C104.633 169.362 104.843 169.452 105.119 169.452C105.395 169.452 105.707 169.38 106.055 169.236C106.403 169.092 106.853 168.756 107.405 168.228V167.454C106.781 167.346 106.169 167.292 105.569 167.292C105.101 167.292 104.765 167.388 104.561 167.58C104.369 167.772 104.273 168.048 104.273 168.408ZM113.72 165.906V166.968C113.72 167.736 113.858 168.312 114.134 168.696C114.41 169.08 114.854 169.272 115.466 169.272C115.766 169.272 116.102 169.236 116.474 169.164C116.858 169.08 117.272 168.954 117.716 168.786L118.31 170.532C117.77 170.748 117.26 170.91 116.78 171.018C116.3 171.126 115.826 171.18 115.358 171.18C114.158 171.18 113.24 170.796 112.604 170.028C111.968 169.26 111.65 168.24 111.65 166.968V165.906C111.65 164.622 111.968 163.602 112.604 162.846C113.24 162.078 114.158 161.694 115.358 161.694C115.814 161.694 116.276 161.748 116.744 161.856C117.212 161.964 117.704 162.12 118.22 162.324L117.626 164.106C116.762 163.77 116.042 163.602 115.466 163.602C114.854 163.602 114.41 163.794 114.134 164.178C113.858 164.55 113.72 165.126 113.72 165.906ZM125.695 170.694C125.383 170.838 125.023 170.952 124.615 171.036C124.207 171.132 123.793 171.18 123.373 171.18C122.677 171.18 122.119 171.036 121.699 170.748C121.279 170.46 120.973 170.058 120.781 169.542C120.601 169.026 120.511 168.438 120.511 167.778V163.674H119.035V161.874H120.511V159.498H122.581V161.874H125.425V163.674H122.581V167.778C122.581 168.33 122.683 168.714 122.887 168.93C123.103 169.134 123.409 169.236 123.805 169.236C123.997 169.236 124.201 169.218 124.417 169.182C124.645 169.134 124.897 169.056 125.173 168.948L125.695 170.694ZM130.008 171.18V169.11C130.98 169.11 131.682 168.93 132.114 168.57C132.558 168.198 132.78 167.544 132.78 166.608V158.76H134.94V166.608C134.94 167.544 134.796 168.354 134.508 169.038C134.22 169.722 133.716 170.25 132.996 170.622C132.288 170.994 131.292 171.18 130.008 171.18ZM140.664 169.182C142.056 169.182 142.752 168.666 142.752 167.634C142.752 167.214 142.644 166.884 142.428 166.644C142.224 166.404 141.84 166.194 141.276 166.014L139.8 165.528C138.036 164.952 137.154 163.794 137.154 162.054C137.154 161.046 137.466 160.218 138.09 159.57C138.726 158.91 139.716 158.58 141.06 158.58C141.624 158.58 142.182 158.646 142.734 158.778C143.286 158.898 143.874 159.096 144.498 159.372L143.832 161.226C143.256 160.998 142.764 160.836 142.356 160.74C141.96 160.632 141.552 160.578 141.132 160.578C140.58 160.578 140.142 160.68 139.818 160.884C139.506 161.076 139.35 161.43 139.35 161.946C139.35 162.33 139.458 162.648 139.674 162.9C139.902 163.14 140.274 163.344 140.79 163.512L142.266 163.998C143.154 164.298 143.82 164.736 144.264 165.312C144.72 165.876 144.948 166.626 144.948 167.562C144.948 168.642 144.606 169.518 143.922 170.19C143.238 170.85 142.164 171.18 140.7 171.18C140.124 171.18 139.524 171.114 138.9 170.982C138.288 170.838 137.616 170.598 136.884 170.262L137.55 168.408C138.222 168.696 138.792 168.9 139.26 169.02C139.74 169.128 140.208 169.182 140.664 169.182Z" fill="white"/>
<path d="M108.872 116.82C110.313 116.883 111.785 116.929 113.276 116.929C114.783 116.929 116.271 116.899 117.731 116.82C116.271 118.653 114.83 120.275 113.305 121.82L113.326 121.8C111.809 120.272 110.352 118.648 108.979 116.957L108.872 116.82ZM93.9409 114.783C96.7787 115.483 100.24 116.079 103.772 116.445L104.116 116.473C106.277 119.358 108.463 121.897 110.808 124.285L110.779 124.254C107.344 127.979 102.709 130.597 97.4652 131.536L97.3211 131.557C97.3106 131.557 97.3001 131.557 97.2897 131.557C96.6398 131.557 96.0267 131.401 95.4895 131.126L95.5104 131.136C93.3303 129.927 92.3844 125.301 93.1207 119.356C93.2962 117.892 93.5845 116.351 93.9382 114.78L93.9409 114.783ZM132.677 114.75C132.987 115.957 133.278 117.494 133.485 119.058L133.508 119.277C134.26 125.219 133.333 129.841 131.171 131.075C130.689 131.335 130.112 131.488 129.499 131.488C129.439 131.488 129.378 131.485 129.318 131.483H129.326C123.946 130.528 119.314 127.928 115.886 124.249L115.868 124.229C118.171 121.879 120.341 119.345 122.33 116.68L122.482 116.466C126.349 116.074 129.816 115.468 133.194 114.64L132.677 114.747V114.75ZM97.004 105.248C97.6591 106.495 98.3457 107.738 99.1003 108.985C99.8532 110.226 100.623 111.438 101.409 112.621C99.1344 112.298 96.9385 111.89 94.8396 111.394C95.4292 109.39 96.1681 107.315 97.0014 105.243L97.004 105.248ZM129.57 105.184C130.437 107.274 131.173 109.36 131.784 111.381C129.688 111.88 127.473 112.303 125.183 112.621C125.969 111.427 126.755 110.197 127.492 108.937C128.228 107.697 128.917 106.429 129.575 105.181L129.57 105.184ZM91.331 91.5649C92.4735 95.328 93.6998 98.475 95.1279 101.51L94.9313 101.047C93.7103 103.605 92.5023 106.735 91.5118 109.955L91.3755 110.477C89.5256 109.925 88.0372 109.383 86.5882 108.774L86.8895 108.886C81.2191 106.541 77.5506 103.458 77.5506 101.013C77.5506 98.5692 81.2191 95.4706 86.8895 93.1358C88.2652 92.5629 89.7745 92.0461 91.331 91.5649ZM135.193 91.5521C136.778 92.0283 138.285 92.5604 139.695 93.1358C145.365 95.491 149.034 98.5692 149.034 101.013C149.018 103.458 145.349 106.549 139.679 108.889C138.303 109.461 136.797 109.976 135.243 110.457C134.09 106.681 132.864 103.537 131.441 100.497L131.64 100.975C132.856 98.419 134.066 95.2898 135.054 92.069L135.193 91.5445V91.5521ZM125.162 89.4058C127.439 89.7342 129.633 90.1365 131.732 90.6381C131.142 92.6495 130.406 94.7169 129.57 96.7895C128.915 95.5495 128.228 94.2994 127.473 93.0543C126.737 91.8067 125.951 90.5922 125.165 89.4083L125.162 89.4058ZM101.391 89.4058C100.604 90.605 99.8183 91.8322 99.0846 93.0976C98.3483 94.3376 97.6591 95.5852 97.004 96.8328C96.1367 94.745 95.4004 92.6648 94.7898 90.6381C96.8861 90.162 99.0951 89.7368 101.388 89.4109L101.391 89.4058ZM113.292 88.5961C115.716 88.5961 118.129 88.703 120.503 88.8914C121.833 90.7433 123.124 92.7157 124.376 94.8086C125.594 96.8455 126.705 98.9095 127.709 101.001C126.7 103.086 125.595 105.169 124.392 107.206C123.147 109.306 121.861 111.305 120.527 113.156C118.142 113.357 115.726 113.466 113.29 113.466C110.866 113.466 108.452 113.354 106.078 113.171C104.75 111.32 103.453 109.339 102.205 107.254C100.988 105.217 99.8768 103.153 98.8723 101.062C99.8655 98.9715 100.987 96.8837 102.19 94.8442C103.434 92.7437 104.721 90.7527 106.055 88.9016C108.439 88.6979 110.855 88.591 113.292 88.591V88.5961ZM113.242 80.2423C114.762 81.77 116.219 83.3919 117.59 85.0825L117.694 85.2174C116.253 85.1538 114.78 85.1105 113.29 85.1105C111.783 85.1105 110.294 85.141 108.835 85.2174C110.292 83.3842 111.733 81.7623 113.261 80.2169L113.24 80.2372L113.242 80.2423ZM97.2556 70.5365C102.635 71.4939 107.265 74.0935 110.695 77.77L110.714 77.7904C108.41 80.143 106.241 82.6764 104.252 85.3473L104.1 85.5611C100.235 85.9507 96.7682 86.5516 93.3932 87.3791L93.9068 87.2721C93.5399 85.7139 93.2674 84.2041 93.0761 82.7553C92.3241 76.8127 93.2517 72.1915 95.4135 70.9617C95.9533 70.7148 96.5848 70.562 97.2504 70.5416H97.2582L97.2556 70.5365ZM129.25 70.4729V70.4933C129.284 70.4933 129.323 70.4907 129.365 70.4907C129.992 70.4907 130.581 70.6409 131.1 70.9057L131.079 70.8955C133.259 72.11 134.205 76.7338 133.469 82.6815C133.293 84.1455 133.005 85.6884 132.651 87.2619C129.808 86.5541 126.347 85.9558 122.814 85.5917L122.479 85.5637C120.315 82.6764 118.129 80.1379 115.784 77.7471L115.816 77.7777C119.251 74.0604 123.878 71.443 129.111 70.4984L129.258 70.4754L129.25 70.4729ZM129.266 67.0051C122.867 67.9497 117.327 70.9694 113.282 75.3258L113.261 75.3487C109.186 70.9948 103.647 67.9955 97.405 67.0866L97.2582 67.0687C97.2241 67.0687 97.1822 67.0687 97.1403 67.0687C95.8537 67.0687 94.6457 67.3972 93.6002 67.9726L93.6369 67.9548C89.1351 70.478 88.1263 78.3404 90.4505 88.2065C80.4827 91.1982 74 95.9798 74 101.019C74 106.078 80.5168 110.872 90.5134 113.841C88.2075 123.745 89.2373 131.62 93.7496 134.141C94.7401 134.693 95.9297 135.017 97.1953 135.017C97.253 135.017 97.3106 135.017 97.3656 135.014H97.3578C103.757 134.07 109.296 131.047 113.342 126.688L113.363 126.666C117.438 131.022 122.977 134.021 129.219 134.93L129.365 134.948C129.405 134.948 129.454 134.948 129.502 134.948C130.78 134.948 131.983 134.622 133.023 134.054L132.987 134.072C137.486 131.552 138.497 123.689 136.173 113.82C146.104 110.854 152.587 106.062 152.587 101.016C152.587 95.9569 146.07 91.1626 136.073 88.1862C138.379 78.292 137.35 70.4092 132.837 67.886C131.836 67.3284 130.636 67 129.357 67C129.323 67 129.289 67 129.255 67H129.261L129.266 67.0051ZM120.595 101.019C120.595 104.947 117.317 108.132 113.274 108.132C109.231 108.132 105.953 104.947 105.953 101.019C105.953 97.0899 109.231 93.9047 113.274 93.9047C115.297 93.9047 117.126 94.7017 118.452 95.9875C119.777 97.2758 120.595 99.053 120.595 101.019Z" fill="white"/>
<defs>
<filter id="filter0_b_663_19" x="3.30276" y="3.30175" width="219.67" height="219.67" filterUnits="userSpaceOnUse" color-interpolation-filters="sRGB">
<feFlood flood-opacity="0" result="BackgroundImageFix"/>
<feGaussianBlur in="BackgroundImageFix" stdDeviation="2.4912"/>
<feComposite in2="SourceAlpha" operator="in" result="effect1_backgroundBlur_663_19"/>
<feBlend mode="normal" in="SourceGraphic" in2="effect1_backgroundBlur_663_19" result="shape"/>
</filter>
</defs>
</svg>
