<svg width="227" height="227" viewBox="0 0 227 227" fill="none" xmlns="http://www.w3.org/2000/svg">
<g filter="url(#filter0_b_734_6)">
<rect y="113.137" width="160" height="160" transform="rotate(-45 0 113.137)" fill="white" fill-opacity="0.3"/>
<rect x="2.47487" y="113.137" width="156.5" height="156.5" transform="rotate(-45 2.47487 113.137)" stroke="white" stroke-width="3.5"/>
</g>
<path d="M95.9654 165.98C97.512 165.98 98.2854 165.407 98.2854 164.26C98.2854 163.793 98.1654 163.427 97.9254 163.16C97.6987 162.893 97.272 162.66 96.6454 162.46L95.0054 161.92C93.0454 161.28 92.0654 159.993 92.0654 158.06C92.0654 156.94 92.412 156.02 93.1054 155.3C93.812 154.567 94.912 154.2 96.4054 154.2C97.032 154.2 97.652 154.273 98.2654 154.42C98.8787 154.553 99.532 154.773 100.225 155.08L99.4854 157.14C98.8454 156.887 98.2987 156.707 97.8454 156.6C97.4054 156.48 96.952 156.42 96.4854 156.42C95.872 156.42 95.3854 156.533 95.0254 156.76C94.6787 156.973 94.5054 157.367 94.5054 157.94C94.5054 158.367 94.6254 158.72 94.8654 159C95.1187 159.267 95.532 159.493 96.1054 159.68L97.7454 160.22C98.732 160.553 99.472 161.04 99.9654 161.68C100.472 162.307 100.725 163.14 100.725 164.18C100.725 165.38 100.345 166.353 99.5854 167.1C98.8254 167.833 97.632 168.2 96.0054 168.2C95.3654 168.2 94.6987 168.127 94.0054 167.98C93.3254 167.82 92.5787 167.553 91.7654 167.18L92.5054 165.12C93.252 165.44 93.8854 165.667 94.4054 165.8C94.9387 165.92 95.4587 165.98 95.9654 165.98ZM115.384 157.86L112.784 168H110.284L108.604 160.38L106.824 168H104.324L101.724 157.86H104.084L105.064 161.88L105.744 165.54L107.464 157.86H109.784L111.564 165.62L112.204 161.9L113.164 157.86H115.384ZM119.87 155.94H117.45V153.56H119.87V155.94ZM119.81 168H117.51V157.86H119.81V168ZM129.719 164.42V159.86H125.679V168H123.379V159.86H121.739V157.86H123.379V157C123.379 156.213 123.519 155.52 123.799 154.92C124.079 154.32 124.532 153.853 125.159 153.52C125.785 153.173 126.612 153 127.639 153C128.265 153 128.945 153.08 129.679 153.24C130.425 153.4 131.205 153.687 132.019 154.1V157.86H135.179V159.86H132.019V164.42C132.019 165.033 132.132 165.46 132.359 165.7C132.599 165.927 132.939 166.04 133.379 166.04C133.592 166.04 133.819 166.02 134.059 165.98C134.312 165.927 134.592 165.84 134.899 165.72L135.479 167.66C135.132 167.82 134.732 167.947 134.279 168.04C133.825 168.147 133.365 168.2 132.899 168.2C132.125 168.2 131.505 168.04 131.039 167.72C130.572 167.4 130.232 166.953 130.019 166.38C129.819 165.807 129.719 165.153 129.719 164.42ZM125.679 157V157.86H129.719V155.44C129.012 155.253 128.339 155.16 127.699 155.16C127.045 155.16 126.545 155.293 126.199 155.56C125.852 155.813 125.679 156.293 125.679 157Z" fill="white"/>
<path fill-rule="evenodd" clip-rule="evenodd" d="M113.688 67C146.996 89.8267 136.224 114.997 136.224 114.997C136.224 114.997 145.697 125.775 141.866 135.201C141.866 135.201 137.96 128.6 131.408 128.6C125.092 128.6 121.383 135.201 108.675 135.201C80.3788 135.201 67 111.378 67 111.378C92.4921 128.279 109.899 116.31 109.899 116.31C98.4142 109.591 73.983 77.4566 73.983 77.4566C95.258 95.7096 104.454 100.523 104.454 100.523C98.9675 95.9497 83.5729 73.6011 83.5729 73.6011C95.887 86.1693 120.356 103.704 120.356 103.704C127.305 84.2978 113.688 67 113.688 67Z" fill="white"/>
<defs>
<filter id="filter0_b_734_6" x="-4.9824" y="-4.98252" width="236.238" height="236.239" filterUnits="userSpaceOnUse" color-interpolation-filters="sRGB">
<feFlood flood-opacity="0" result="BackgroundImageFix"/>
<feGaussianBlur in="BackgroundImageFix" stdDeviation="2.4912"/>
<feComposite in2="SourceAlpha" operator="in" result="effect1_backgroundBlur_734_6"/>
<feBlend mode="normal" in="SourceGraphic" in2="effect1_backgroundBlur_734_6" result="shape"/>
</filter>
</defs>
</svg>
