<svg width="227" height="227" viewBox="0 0 227 227" fill="none" xmlns="http://www.w3.org/2000/svg">
<g filter="url(#filter0_b_734_16)">
<rect x="0.273438" y="113.137" width="160" height="160" transform="rotate(-45 0.273438 113.137)" fill="white" fill-opacity="0.3"/>
<rect x="2.74831" y="113.137" width="156.5" height="156.5" transform="rotate(-45 2.74831 113.137)" stroke="white" stroke-width="3.5"/>
</g>
<path d="M63.5729 156.7V154.4H73.5729V156.7H69.7729V168H67.3729V156.7H63.5729ZM81.9288 167.42C81.2355 167.7 80.5821 167.9 79.9688 168.02C79.3555 168.14 78.7755 168.2 78.2288 168.2C76.7221 168.2 75.5821 167.773 74.8088 166.92C74.0355 166.067 73.6488 164.933 73.6488 163.52V162.32C73.6488 161.373 73.8221 160.553 74.1688 159.86C74.5155 159.167 75.0088 158.627 75.6488 158.24C76.2888 157.853 77.0421 157.66 77.9088 157.66C78.6155 157.66 79.2755 157.807 79.8888 158.1C80.5155 158.38 81.0221 158.827 81.4088 159.44C81.8088 160.04 82.0088 160.813 82.0088 161.76C82.0088 162.04 81.9888 162.34 81.9488 162.66C81.9088 162.967 81.8421 163.293 81.7488 163.64H75.8688C75.8955 164.467 76.1021 165.087 76.4888 165.5C76.8755 165.913 77.4955 166.12 78.3488 166.12C78.8021 166.12 79.2688 166.067 79.7488 165.96C80.2421 165.853 80.7488 165.693 81.2688 165.48L81.9288 167.42ZM77.9088 159.6C77.2955 159.6 76.8155 159.8 76.4688 160.2C76.1355 160.587 75.9421 161.147 75.8888 161.88H79.7288C79.7421 161.813 79.7488 161.753 79.7488 161.7C79.7488 161.633 79.7488 161.573 79.7488 161.52C79.7488 160.88 79.5688 160.4 79.2088 160.08C78.8488 159.76 78.4155 159.6 77.9088 159.6ZM89.6185 159.8C89.2851 159.8 88.9051 159.88 88.4785 160.04C88.0518 160.2 87.5451 160.513 86.9585 160.98V168H84.6585V157.86H86.8385V159.22C87.4651 158.673 88.0585 158.28 88.6185 158.04C89.1785 157.787 89.7451 157.66 90.3185 157.66C91.2918 157.66 92.0318 157.973 92.5385 158.6C93.0451 159.213 93.2985 160.08 93.2985 161.2V168H90.9985V161.48C90.9985 160.36 90.5385 159.8 89.6185 159.8ZM99.1782 166.2C99.6715 166.2 100.078 166.12 100.398 165.96C100.718 165.787 100.878 165.533 100.878 165.2C100.878 164.907 100.771 164.68 100.558 164.52C100.358 164.347 99.9915 164.193 99.4582 164.06L98.3182 163.76C97.4382 163.533 96.7848 163.153 96.3582 162.62C95.9448 162.087 95.7382 161.453 95.7382 160.72C95.7382 159.853 96.0382 159.127 96.6382 158.54C97.2382 157.953 98.1648 157.66 99.4182 157.66C99.9248 157.66 100.458 157.72 101.018 157.84C101.578 157.96 102.165 158.153 102.778 158.42L102.118 160.38C101.558 160.113 101.051 159.927 100.598 159.82C100.145 159.713 99.7448 159.66 99.3982 159.66C98.4515 159.66 97.9782 159.98 97.9782 160.62C97.9782 160.873 98.0582 161.073 98.2182 161.22C98.3915 161.367 98.7048 161.5 99.1582 161.62L100.298 161.92C101.271 162.173 101.978 162.56 102.418 163.08C102.871 163.6 103.098 164.253 103.098 165.04C103.098 165.973 102.778 166.733 102.138 167.32C101.511 167.907 100.518 168.2 99.1582 168.2C97.9982 168.2 96.7782 167.933 95.4982 167.4L96.1182 165.5C96.7448 165.753 97.3115 165.933 97.8182 166.04C98.3248 166.147 98.7782 166.2 99.1782 166.2ZM113.759 162.32V163.52C113.759 164.933 113.373 166.067 112.599 166.92C111.826 167.773 110.733 168.2 109.319 168.2C107.906 168.2 106.813 167.773 106.039 166.92C105.266 166.067 104.879 164.933 104.879 163.52V162.32C104.879 160.907 105.259 159.78 106.019 158.94C106.793 158.087 107.893 157.66 109.319 157.66C110.746 157.66 111.839 158.087 112.599 158.94C113.373 159.78 113.759 160.907 113.759 162.32ZM111.399 162.32C111.399 161.507 111.219 160.873 110.859 160.42C110.499 159.953 109.986 159.72 109.319 159.72C108.653 159.72 108.139 159.953 107.779 160.42C107.419 160.873 107.239 161.507 107.239 162.32V163.52C107.239 164.333 107.419 164.973 107.779 165.44C108.139 165.907 108.653 166.14 109.319 166.14C109.986 166.14 110.499 165.907 110.859 165.44C111.219 164.973 111.399 164.333 111.399 163.52V162.32ZM122.058 159.96C121.431 159.96 120.831 160.06 120.258 160.26C119.698 160.447 119.158 160.753 118.638 161.18V168H116.338V157.86H118.518V159.42C119.198 158.78 119.805 158.327 120.338 158.06C120.871 157.793 121.445 157.66 122.058 157.66V159.96ZM131.333 162.78H126.773V168H124.373V154.4H131.933V156.7H126.773V160.48H131.333V162.78ZM134.11 165.14V153.2H136.41V165.14C136.41 165.34 136.457 165.533 136.55 165.72C136.657 165.893 136.857 165.98 137.15 165.98H137.47V168.1H136.91C136.15 168.1 135.57 167.953 135.17 167.66C134.77 167.367 134.49 166.993 134.33 166.54C134.184 166.087 134.11 165.62 134.11 165.14ZM147.998 162.32V163.52C147.998 164.933 147.611 166.067 146.838 166.92C146.064 167.773 144.971 168.2 143.558 168.2C142.144 168.2 141.051 167.773 140.278 166.92C139.504 166.067 139.118 164.933 139.118 163.52V162.32C139.118 160.907 139.498 159.78 140.258 158.94C141.031 158.087 142.131 157.66 143.558 157.66C144.984 157.66 146.078 158.087 146.838 158.94C147.611 159.78 147.998 160.907 147.998 162.32ZM145.638 162.32C145.638 161.507 145.458 160.873 145.098 160.42C144.738 159.953 144.224 159.72 143.558 159.72C142.891 159.72 142.378 159.953 142.018 160.42C141.658 160.873 141.478 161.507 141.478 162.32V163.52C141.478 164.333 141.658 164.973 142.018 165.44C142.378 165.907 142.891 166.14 143.558 166.14C144.224 166.14 144.738 165.907 145.098 165.44C145.458 164.973 145.638 164.333 145.638 163.52V162.32ZM163.001 157.86L160.401 168H157.901L156.221 160.38L154.441 168H151.941L149.341 157.86H151.701L152.681 161.88L153.361 165.54L155.081 157.86H157.401L159.181 165.62L159.821 161.9L160.781 157.86H163.001Z" fill="white"/>
<path d="M134.861 101.006L135.137 114.323L126.359 109.22V128.217L114.736 135.014V67.0021L143.639 83.7181V98.7401L126.359 88.5448V96.1939L134.861 101.006ZM83 83.716L111.903 67V135.012L100.279 128.215V88.5405L83 98.7359V83.716Z" fill="white"/>
<defs>
<filter id="filter0_b_734_16" x="-4.70896" y="-4.98252" width="236.238" height="236.239" filterUnits="userSpaceOnUse" color-interpolation-filters="sRGB">
<feFlood flood-opacity="0" result="BackgroundImageFix"/>
<feGaussianBlur in="BackgroundImageFix" stdDeviation="2.4912"/>
<feComposite in2="SourceAlpha" operator="in" result="effect1_backgroundBlur_734_16"/>
<feBlend mode="normal" in="SourceGraphic" in2="effect1_backgroundBlur_734_16" result="shape"/>
</filter>
</defs>
</svg>
