<svg width="227" height="227" viewBox="0 0 227 227" fill="none" xmlns="http://www.w3.org/2000/svg">
<g filter="url(#filter0_b_734_8)">
<rect x="0.273438" y="113.137" width="160" height="160" transform="rotate(-45 0.273438 113.137)" fill="white" fill-opacity="0.3"/>
<rect x="2.74831" y="113.137" width="156.5" height="156.5" transform="rotate(-45 2.74831 113.137)" stroke="white" stroke-width="3.5"/>
</g>
<path d="M92.5779 154.4H95.0379V163.12C95.0379 164 95.2313 164.693 95.6179 165.2C96.0046 165.693 96.6246 165.94 97.4779 165.94C98.3313 165.94 98.9513 165.693 99.3379 165.2C99.7246 164.693 99.9179 164 99.9179 163.12V154.4H102.378V163.12C102.378 164.653 101.971 165.887 101.158 166.82C100.345 167.74 99.1179 168.2 97.4779 168.2C95.8246 168.2 94.5913 167.74 93.7779 166.82C92.9779 165.887 92.5779 164.653 92.5779 163.12V154.4ZM108.228 168H105.828V154.4H108.228V168ZM119.2 168L115.8 162.06C115.573 162.313 115.34 162.567 115.1 162.82C114.873 163.073 114.633 163.333 114.38 163.6V168H111.98V154.4H114.38V160.86C115.393 159.7 116.26 158.6 116.98 157.56C117.7 156.507 118.32 155.453 118.84 154.4H121.46C120.887 155.547 120.273 156.633 119.62 157.66C118.98 158.673 118.3 159.613 117.58 160.48L122.1 168H119.2ZM126.364 155.94H123.944V153.56H126.364V155.94ZM126.304 168H124.004V157.86H126.304V168ZM135.573 167.66C135.226 167.82 134.826 167.947 134.373 168.04C133.92 168.147 133.46 168.2 132.993 168.2C132.22 168.2 131.6 168.04 131.133 167.72C130.666 167.4 130.326 166.953 130.113 166.38C129.913 165.807 129.813 165.153 129.813 164.42V159.86H128.173V157.86H129.813V155.22H132.113V157.86H135.273V159.86H132.113V164.42C132.113 165.033 132.226 165.46 132.453 165.7C132.693 165.927 133.033 166.04 133.473 166.04C133.686 166.04 133.913 166.02 134.153 165.98C134.406 165.927 134.686 165.84 134.993 165.72L135.573 167.66Z" fill="white"/>
<path d="M117.767 83.2249L130.513 90.1788V109.879L111.971 120.309L94.588 109.879V93.6543L83 87.8589V117.992L111.971 135.375L142.104 117.992V83.2249L128.196 76.2709L117.767 83.2249ZM122.404 72.7954L110.816 67L100.386 73.9539L111.974 79.7493L122.404 72.7954Z" fill="white"/>
<defs>
<filter id="filter0_b_734_8" x="-4.70896" y="-4.98252" width="236.238" height="236.239" filterUnits="userSpaceOnUse" color-interpolation-filters="sRGB">
<feFlood flood-opacity="0" result="BackgroundImageFix"/>
<feGaussianBlur in="BackgroundImageFix" stdDeviation="2.4912"/>
<feComposite in2="SourceAlpha" operator="in" result="effect1_backgroundBlur_734_8"/>
<feBlend mode="normal" in="SourceGraphic" in2="effect1_backgroundBlur_734_8" result="shape"/>
</filter>
</defs>
</svg>
