<svg width="227" height="227" viewBox="0 0 227 227" fill="none" xmlns="http://www.w3.org/2000/svg">
<g filter="url(#filter0_b_734_11)">
<rect y="113.137" width="160" height="160" rx="20" transform="rotate(-45 0 113.137)" fill="white" fill-opacity="0.3"/>
<rect x="2.47487" y="113.137" width="156.5" height="156.5" rx="18.25" transform="rotate(-45 2.47487 113.137)" stroke="white" stroke-width="3.5"/>
</g>
<path d="M93.2305 140.76H95.4445V148.608C95.4445 149.4 95.6185 150.024 95.9665 150.48C96.3145 150.924 96.8725 151.146 97.6405 151.146C98.4085 151.146 98.9665 150.924 99.3145 150.48C99.6625 150.024 99.8365 149.4 99.8365 148.608V140.76H102.051V148.608C102.051 149.988 101.685 151.098 100.953 151.938C100.221 152.766 99.1165 153.18 97.6405 153.18C96.1525 153.18 95.0425 152.766 94.3105 151.938C93.5905 151.098 93.2305 149.988 93.2305 148.608V140.76ZM109.349 145.62C109.049 145.62 108.707 145.692 108.323 145.836C107.939 145.98 107.483 146.262 106.955 146.682V153H104.885V143.874H106.847V145.098C107.411 144.606 107.945 144.252 108.449 144.036C108.953 143.808 109.463 143.694 109.979 143.694C110.855 143.694 111.521 143.976 111.977 144.54C112.433 145.092 112.661 145.872 112.661 146.88V153H110.591V147.132C110.591 146.124 110.177 145.62 109.349 145.62ZM117.521 142.146H115.343V140.004H117.521V142.146ZM117.467 153H115.397V143.874H117.467V153ZM125.809 152.694C125.497 152.838 125.137 152.952 124.729 153.036C124.321 153.132 123.907 153.18 123.487 153.18C122.791 153.18 122.233 153.036 121.813 152.748C121.393 152.46 121.087 152.058 120.895 151.542C120.715 151.026 120.625 150.438 120.625 149.778V145.674H119.149V143.874H120.625V141.498H122.695V143.874H125.539V145.674H122.695V149.778C122.695 150.33 122.797 150.714 123.001 150.93C123.217 151.134 123.523 151.236 123.919 151.236C124.111 151.236 124.315 151.218 124.531 151.182C124.759 151.134 125.011 151.056 125.287 150.948L125.809 152.694ZM131.163 153.9C130.767 155.004 130.263 155.796 129.651 156.276C129.039 156.768 128.199 157.014 127.131 157.014V154.944C127.767 154.92 128.265 154.776 128.625 154.512C128.997 154.26 129.273 153.906 129.453 153.45L129.615 153.036L126.357 143.874H128.409L129.975 148.428L130.587 150.354L131.181 148.428L132.675 143.874H134.727L131.163 153.9ZM94.9416 172.93V175H87.8496V162.76H94.7616V164.83H90.0096V167.764H94.2216V169.834H90.0096V172.93H94.9416ZM101.694 167.62C101.394 167.62 101.052 167.692 100.668 167.836C100.284 167.98 99.828 168.262 99.3 168.682V175H97.23V165.874H99.192V167.098C99.756 166.606 100.29 166.252 100.794 166.036C101.298 165.808 101.808 165.694 102.324 165.694C103.2 165.694 103.866 165.976 104.322 166.54C104.778 167.092 105.006 167.872 105.006 168.88V175H102.936V169.132C102.936 168.124 102.522 167.62 101.694 167.62ZM115.32 175.918C115.32 176.89 114.936 177.646 114.168 178.186C113.412 178.738 112.356 179.014 111 179.014C110.364 179.014 109.692 178.942 108.984 178.798C108.276 178.654 107.622 178.414 107.022 178.078L107.616 176.44C108.192 176.728 108.762 176.932 109.326 177.052C109.89 177.184 110.442 177.25 110.982 177.25C111.738 177.25 112.314 177.148 112.71 176.944C113.106 176.74 113.304 176.47 113.304 176.134C113.304 175.618 112.998 175.36 112.386 175.36H110.226C109.638 175.36 109.164 175.264 108.804 175.072C108.444 174.88 108.18 174.634 108.012 174.334C107.844 174.022 107.76 173.698 107.76 173.362C107.76 173.014 107.832 172.69 107.976 172.39C108.132 172.078 108.342 171.79 108.606 171.526C108.174 171.262 107.826 170.908 107.562 170.464C107.31 170.02 107.184 169.486 107.184 168.862C107.184 168.154 107.334 167.566 107.634 167.098C107.934 166.63 108.342 166.282 108.858 166.054C109.386 165.814 109.968 165.694 110.604 165.694H110.91C111.15 165.694 111.384 165.712 111.612 165.748C111.84 165.772 112.056 165.814 112.26 165.874H115.518V167.638L113.718 167.35C113.898 167.542 114.036 167.782 114.132 168.07C114.24 168.346 114.294 168.688 114.294 169.096C114.294 169.708 114.138 170.236 113.826 170.68C113.526 171.112 113.118 171.448 112.602 171.688C112.098 171.916 111.534 172.03 110.91 172.03H110.604C110.364 172.03 110.136 172.012 109.92 171.976C109.788 172.12 109.692 172.27 109.632 172.426C109.572 172.57 109.542 172.708 109.542 172.84C109.542 173.26 109.812 173.47 110.352 173.47H112.548C113.376 173.47 114.042 173.686 114.546 174.118C115.062 174.538 115.32 175.138 115.32 175.918ZM110.91 170.338C111.282 170.338 111.606 170.212 111.882 169.96C112.17 169.708 112.314 169.342 112.314 168.862C112.314 168.382 112.17 168.016 111.882 167.764C111.606 167.512 111.282 167.386 110.91 167.386H110.604C110.22 167.386 109.884 167.512 109.596 167.764C109.32 168.016 109.182 168.382 109.182 168.862C109.182 169.342 109.32 169.708 109.596 169.96C109.884 170.212 110.22 170.338 110.604 170.338H110.91ZM119.428 164.146H117.25V162.004H119.428V164.146ZM119.374 175H117.304V165.874H119.374V175ZM126.69 167.62C126.39 167.62 126.048 167.692 125.664 167.836C125.28 167.98 124.824 168.262 124.296 168.682V175H122.226V165.874H124.188V167.098C124.752 166.606 125.286 166.252 125.79 166.036C126.294 165.808 126.804 165.694 127.32 165.694C128.196 165.694 128.862 165.976 129.318 166.54C129.774 167.092 130.002 167.872 130.002 168.88V175H127.932V169.132C127.932 168.124 127.518 167.62 126.69 167.62ZM139.668 174.478C139.044 174.73 138.456 174.91 137.904 175.018C137.352 175.126 136.83 175.18 136.338 175.18C134.982 175.18 133.956 174.796 133.26 174.028C132.564 173.26 132.216 172.24 132.216 170.968V169.888C132.216 169.036 132.372 168.298 132.684 167.674C132.996 167.05 133.44 166.564 134.016 166.216C134.592 165.868 135.27 165.694 136.05 165.694C136.686 165.694 137.28 165.826 137.832 166.09C138.396 166.342 138.852 166.744 139.2 167.296C139.56 167.836 139.74 168.532 139.74 169.384C139.74 169.636 139.722 169.906 139.686 170.194C139.65 170.47 139.59 170.764 139.506 171.076H134.214C134.238 171.82 134.424 172.378 134.772 172.75C135.12 173.122 135.678 173.308 136.446 173.308C136.854 173.308 137.274 173.26 137.706 173.164C138.15 173.068 138.606 172.924 139.074 172.732L139.668 174.478ZM136.05 167.44C135.498 167.44 135.066 167.62 134.754 167.98C134.454 168.328 134.28 168.832 134.232 169.492H137.688C137.7 169.432 137.706 169.378 137.706 169.33C137.706 169.27 137.706 169.216 137.706 169.168C137.706 168.592 137.544 168.16 137.22 167.872C136.896 167.584 136.506 167.44 136.05 167.44Z" fill="white"/>
<path d="M124.715 111.718L112.474 91.1108L124.715 70.4947L130.624 91.1063L124.713 111.713L124.715 111.718ZM97.4344 109.739L82.0406 94.4612H106.512L118.749 115.071L97.4322 109.744L97.4344 109.739ZM97.4344 72.478L118.749 67.1511L106.514 87.7605H82.0383L97.4344 72.478ZM136.215 84.0962L128.75 57L100.885 64.2625L96.7635 71.3408L88.3933 71.2794L68 91.1108L88.3955 110.945L96.7612 110.879L100.894 117.957L128.748 125.217L136.215 98.1322L131.975 91.1108L136.215 84.0962Z" fill="white"/>
<defs>
<filter id="filter0_b_734_11" x="3.30276" y="3.30175" width="219.668" height="219.67" filterUnits="userSpaceOnUse" color-interpolation-filters="sRGB">
<feFlood flood-opacity="0" result="BackgroundImageFix"/>
<feGaussianBlur in="BackgroundImageFix" stdDeviation="2.4912"/>
<feComposite in2="SourceAlpha" operator="in" result="effect1_backgroundBlur_734_11"/>
<feBlend mode="normal" in="SourceGraphic" in2="effect1_backgroundBlur_734_11" result="shape"/>
</filter>
</defs>
</svg>
