<svg width="227" height="227" viewBox="0 0 227 227" fill="none" xmlns="http://www.w3.org/2000/svg">
<g filter="url(#filter0_b_734_7)">
<rect y="113.137" width="160" height="160" rx="20" transform="rotate(-45 0 113.137)" fill="white" fill-opacity="0.3"/>
<rect x="2.47487" y="113.137" width="156.5" height="156.5" rx="18.25" transform="rotate(-45 2.47487 113.137)" stroke="white" stroke-width="3.5"/>
</g>
<path d="M96.6171 171L94.0611 166.518L91.6311 171H89.3631L92.9451 164.646L89.5611 158.76H92.0091L94.3671 162.864L96.5811 158.76H98.8491L95.4831 164.754L99.0651 171H96.6171ZM102.513 166.158C102.513 167.034 102.705 167.754 103.089 168.318C103.473 168.87 104.103 169.146 104.979 169.146C105.339 169.146 105.711 169.098 106.095 169.002C106.491 168.906 106.977 168.744 107.553 168.516L108.219 170.388C107.571 170.676 106.971 170.88 106.419 171C105.879 171.12 105.357 171.18 104.853 171.18C103.845 171.18 102.999 170.964 102.315 170.532C101.643 170.1 101.139 169.506 100.803 168.75C100.467 167.994 100.299 167.13 100.299 166.158V163.584C100.299 162.612 100.467 161.748 100.803 160.992C101.139 160.236 101.643 159.648 102.315 159.228C102.999 158.796 103.845 158.58 104.853 158.58C105.345 158.58 105.855 158.64 106.383 158.76C106.911 158.868 107.487 159.06 108.111 159.336L107.445 161.244C106.893 161.016 106.431 160.854 106.059 160.758C105.687 160.662 105.327 160.614 104.979 160.614C104.103 160.614 103.473 160.89 103.089 161.442C102.705 161.994 102.513 162.708 102.513 163.584V166.158ZM117.321 165.888V166.968C117.321 168.24 116.973 169.26 116.277 170.028C115.581 170.796 114.597 171.18 113.325 171.18C112.053 171.18 111.069 170.796 110.373 170.028C109.677 169.26 109.329 168.24 109.329 166.968V165.888C109.329 164.616 109.671 163.602 110.355 162.846C111.051 162.078 112.041 161.694 113.325 161.694C114.609 161.694 115.593 162.078 116.277 162.846C116.973 163.602 117.321 164.616 117.321 165.888ZM115.197 165.888C115.197 165.156 115.035 164.586 114.711 164.178C114.387 163.758 113.925 163.548 113.325 163.548C112.725 163.548 112.263 163.758 111.939 164.178C111.615 164.586 111.453 165.156 111.453 165.888V166.968C111.453 167.7 111.615 168.276 111.939 168.696C112.263 169.116 112.725 169.326 113.325 169.326C113.925 169.326 114.387 169.116 114.711 168.696C115.035 168.276 115.197 167.7 115.197 166.968V165.888ZM124.988 171V169.758C124.436 170.31 123.956 170.688 123.548 170.892C123.152 171.084 122.738 171.18 122.306 171.18C121.322 171.18 120.554 170.808 120.002 170.064C119.462 169.32 119.192 168.276 119.192 166.932V165.96C119.192 164.652 119.522 163.614 120.182 162.846C120.842 162.078 121.796 161.694 123.044 161.694C123.356 161.694 123.662 161.724 123.962 161.784C124.274 161.844 124.58 161.928 124.88 162.036V157.68H126.95V171H124.988ZM121.316 166.932C121.316 167.736 121.448 168.324 121.712 168.696C121.988 169.068 122.372 169.254 122.864 169.254C123.14 169.254 123.434 169.176 123.746 169.02C124.058 168.852 124.436 168.54 124.88 168.084V163.908C124.292 163.668 123.752 163.548 123.26 163.548C122.564 163.548 122.066 163.764 121.766 164.196C121.466 164.628 121.316 165.216 121.316 165.96V166.932ZM136.732 170.478C136.108 170.73 135.52 170.91 134.968 171.018C134.416 171.126 133.894 171.18 133.402 171.18C132.046 171.18 131.02 170.796 130.324 170.028C129.628 169.26 129.28 168.24 129.28 166.968V165.888C129.28 165.036 129.436 164.298 129.748 163.674C130.06 163.05 130.504 162.564 131.08 162.216C131.656 161.868 132.334 161.694 133.114 161.694C133.75 161.694 134.344 161.826 134.896 162.09C135.46 162.342 135.916 162.744 136.264 163.296C136.624 163.836 136.804 164.532 136.804 165.384C136.804 165.636 136.786 165.906 136.75 166.194C136.714 166.47 136.654 166.764 136.57 167.076H131.278C131.302 167.82 131.488 168.378 131.836 168.75C132.184 169.122 132.742 169.308 133.51 169.308C133.918 169.308 134.338 169.26 134.77 169.164C135.214 169.068 135.67 168.924 136.138 168.732L136.732 170.478ZM133.114 163.44C132.562 163.44 132.13 163.62 131.818 163.98C131.518 164.328 131.344 164.832 131.296 165.492H134.752C134.764 165.432 134.77 165.378 134.77 165.33C134.77 165.27 134.77 165.216 134.77 165.168C134.77 164.592 134.608 164.16 134.284 163.872C133.96 163.584 133.57 163.44 133.114 163.44Z" fill="white"/>
<path d="M138.81 74.8318C140.106 74.1837 140.754 73.5356 141.727 73.5356C143.347 73.5356 144.319 74.5077 144.643 75.1558C145.291 76.128 147.56 76.7761 148.532 76.7761C149.18 76.7761 150.152 74.5077 150.8 72.5634C151.448 70.6191 151.448 68.3508 151.124 68.0267C150.8 67.7027 148.208 67.0546 147.56 67.0546C147.236 67.3786 146.587 67.7027 145.291 67.7027C143.995 67.7027 142.699 66.7305 141.727 65.7584C140.106 64.1381 138.162 63.49 136.218 62.8419C134.273 62.1938 132.005 62.1938 130.061 62.1938C127.144 61.8698 123.904 61.8698 120.987 62.8419C119.691 63.166 118.719 63.49 117.423 64.1381C117.099 64.4622 116.127 64.7862 115.803 64.7862C115.479 65.1103 115.479 65.4343 115.803 65.4343C116.127 65.4343 117.423 65.1103 117.423 65.1103C117.423 65.1103 115.803 65.7584 115.803 66.4065C115.803 66.7305 116.127 66.7305 116.127 66.7305C116.127 66.7305 117.099 66.4065 117.747 66.4065C119.043 66.4065 120.987 65.7584 122.608 65.7584C124.552 65.7584 126.496 66.4065 128.441 68.3508C131.357 71.9153 131.033 76.452 131.033 77.4242C130.385 84.2293 115.154 125.708 114.506 128.624C113.858 131.541 113.858 133.161 117.423 134.133C120.987 135.105 122.284 134.133 122.932 132.837C123.256 130.569 132.977 79.3685 138.81 74.8318ZM126.172 71.5913L74 79.6926L82.4253 133.809L110.294 129.272C109.97 127.004 117.423 107.561 118.719 103.996L104.461 106.265L106.405 100.432L116.451 98.8116L119.043 102.052C119.043 102.052 119.691 100.432 119.691 99.7837L105.757 82.609C105.109 81.6369 105.109 80.3407 106.081 79.6926L106.729 79.0445C107.701 78.3963 108.997 78.3963 109.646 79.3685L121.96 93.6267C124.552 85.8495 126.82 79.0445 126.82 76.7761C127.144 76.128 127.144 73.8596 126.172 71.5913ZM87.2861 103.672L96.0355 102.052L93.7671 107.885L87.9342 108.857L87.2861 103.672ZM106.081 87.1457L107.053 87.4698C108.349 87.7938 108.673 89.09 108.349 90.3862L98.6279 116.31L92.795 124.088L93.4431 114.366L103.165 88.4419C103.489 87.1457 104.785 86.8217 106.081 87.1457ZM141.079 78.0723C139.782 79.3685 138.162 83.5812 134.922 95.8951H135.246L136.218 101.08L133.625 101.404C133.301 103.024 132.977 104.644 132.329 106.589C137.838 109.505 134.922 116.634 134.598 116.634C134.273 116.634 134.273 116.634 134.273 116.31C134.273 115.986 134.598 115.014 133.625 114.69C132.977 114.366 131.681 114.042 130.709 113.394C129.737 117.282 128.765 121.819 127.792 126.68L148.208 123.439L141.403 77.7482L141.079 78.0723Z" fill="white"/>
<defs>
<filter id="filter0_b_734_7" x="3.30276" y="3.30175" width="219.67" height="219.67" filterUnits="userSpaceOnUse" color-interpolation-filters="sRGB">
<feFlood flood-opacity="0" result="BackgroundImageFix"/>
<feGaussianBlur in="BackgroundImageFix" stdDeviation="2.4912"/>
<feComposite in2="SourceAlpha" operator="in" result="effect1_backgroundBlur_734_7"/>
<feBlend mode="normal" in="SourceGraphic" in2="effect1_backgroundBlur_734_7" result="shape"/>
</filter>
</defs>
</svg>
